<?xml version="1.0" encoding="utf-8" standalone="no"?>
<!DOCTYPE svg PUBLIC "-//W3C//DTD SVG 1.1//EN"
  "http://www.w3.org/Graphics/SVG/1.1/DTD/svg11.dtd">
<svg xmlns:xlink="http://www.w3.org/1999/xlink" width="460.8pt" height="345.6pt" viewBox="0 0 460.8 345.6" xmlns="http://www.w3.org/2000/svg" version="1.1">
 <metadata>
  <rdf:RDF xmlns:dc="http://purl.org/dc/elements/1.1/" xmlns:cc="http://creativecommons.org/ns#" xmlns:rdf="http://www.w3.org/1999/02/22-rdf-syntax-ns#">
   <cc:Work>
    <dc:type rdf:resource="http://purl.org/dc/dcmitype/StillImage"/>
    <dc:date>2024-05-24T19:01:47.527660</dc:date>
    <dc:format>image/svg+xml</dc:format>
    <dc:creator>
     <cc:Agent>
      <dc:title>Matplotlib v3.8.3, https://matplotlib.org/</dc:title>
     </cc:Agent>
    </dc:creator>
   </cc:Work>
  </rdf:RDF>
 </metadata>
 <defs>
  <style type="text/css">*{stroke-linejoin: round; stroke-linecap: butt}</style>
 </defs>
 <g id="figure_1">
  <g id="patch_1">
   <path d="M 0 345.6 
L 460.8 345.6 
L 460.8 0 
L 0 0 
z
" style="fill: #ffffff"/>
  </g>
  <g id="axes_1">
   <g id="patch_2">
    <path d="M 57.6 307.584 
L 414.72 307.584 
L 414.72 41.472 
L 57.6 41.472 
z
" style="fill: #ffffff"/>
   </g>
   <g id="matplotlib.axis_1">
    <g id="xtick_1">
     <g id="line2d_1">
      <defs>
       <path id="m5f86f817e8" d="M 0 0 
L 0 3.5 
" style="stroke: #000000; stroke-width: 0.8"/>
      </defs>
      <g>
       <use xlink:href="#m5f86f817e8" x="57.6" y="307.584" style="stroke: #000000; stroke-width: 0.8"/>
      </g>
     </g>
     <g id="text_1">
      <!-- 0.0 -->
      <g transform="translate(49.648438 322.182437) scale(0.1 -0.1)">
       <defs>
        <path id="DejaVuSans-30" d="M 2034 4250 
Q 1547 4250 1301 3770 
Q 1056 3291 1056 2328 
Q 1056 1369 1301 889 
Q 1547 409 2034 409 
Q 2525 409 2770 889 
Q 3016 1369 3016 2328 
Q 3016 3291 2770 3770 
Q 2525 4250 2034 4250 
z
M 2034 4750 
Q 2819 4750 3233 4129 
Q 3647 3509 3647 2328 
Q 3647 1150 3233 529 
Q 2819 -91 2034 -91 
Q 1250 -91 836 529 
Q 422 1150 422 2328 
Q 422 3509 836 4129 
Q 1250 4750 2034 4750 
z
" transform="scale(0.015625)"/>
        <path id="DejaVuSans-2e" d="M 684 794 
L 1344 794 
L 1344 0 
L 684 0 
L 684 794 
z
" transform="scale(0.015625)"/>
       </defs>
       <use xlink:href="#DejaVuSans-30"/>
       <use xlink:href="#DejaVuSans-2e" x="63.623047"/>
       <use xlink:href="#DejaVuSans-30" x="95.410156"/>
      </g>
     </g>
    </g>
    <g id="xtick_2">
     <g id="line2d_2">
      <g>
       <use xlink:href="#m5f86f817e8" x="129.024" y="307.584" style="stroke: #000000; stroke-width: 0.8"/>
      </g>
     </g>
     <g id="text_2">
      <!-- 0.2 -->
      <g transform="translate(121.072438 322.182437) scale(0.1 -0.1)">
       <defs>
        <path id="DejaVuSans-32" d="M 1228 531 
L 3431 531 
L 3431 0 
L 469 0 
L 469 531 
Q 828 903 1448 1529 
Q 2069 2156 2228 2338 
Q 2531 2678 2651 2914 
Q 2772 3150 2772 3378 
Q 2772 3750 2511 3984 
Q 2250 4219 1831 4219 
Q 1534 4219 1204 4116 
Q 875 4013 500 3803 
L 500 4441 
Q 881 4594 1212 4672 
Q 1544 4750 1819 4750 
Q 2544 4750 2975 4387 
Q 3406 4025 3406 3419 
Q 3406 3131 3298 2873 
Q 3191 2616 2906 2266 
Q 2828 2175 2409 1742 
Q 1991 1309 1228 531 
z
" transform="scale(0.015625)"/>
       </defs>
       <use xlink:href="#DejaVuSans-30"/>
       <use xlink:href="#DejaVuSans-2e" x="63.623047"/>
       <use xlink:href="#DejaVuSans-32" x="95.410156"/>
      </g>
     </g>
    </g>
    <g id="xtick_3">
     <g id="line2d_3">
      <g>
       <use xlink:href="#m5f86f817e8" x="200.448" y="307.584" style="stroke: #000000; stroke-width: 0.8"/>
      </g>
     </g>
     <g id="text_3">
      <!-- 0.4 -->
      <g transform="translate(192.496438 322.182437) scale(0.1 -0.1)">
       <defs>
        <path id="DejaVuSans-34" d="M 2419 4116 
L 825 1625 
L 2419 1625 
L 2419 4116 
z
M 2253 4666 
L 3047 4666 
L 3047 1625 
L 3713 1625 
L 3713 1100 
L 3047 1100 
L 3047 0 
L 2419 0 
L 2419 1100 
L 313 1100 
L 313 1709 
L 2253 4666 
z
" transform="scale(0.015625)"/>
       </defs>
       <use xlink:href="#DejaVuSans-30"/>
       <use xlink:href="#DejaVuSans-2e" x="63.623047"/>
       <use xlink:href="#DejaVuSans-34" x="95.410156"/>
      </g>
     </g>
    </g>
    <g id="xtick_4">
     <g id="line2d_4">
      <g>
       <use xlink:href="#m5f86f817e8" x="271.872" y="307.584" style="stroke: #000000; stroke-width: 0.8"/>
      </g>
     </g>
     <g id="text_4">
      <!-- 0.6 -->
      <g transform="translate(263.920437 322.182437) scale(0.1 -0.1)">
       <defs>
        <path id="DejaVuSans-36" d="M 2113 2584 
Q 1688 2584 1439 2293 
Q 1191 2003 1191 1497 
Q 1191 994 1439 701 
Q 1688 409 2113 409 
Q 2538 409 2786 701 
Q 3034 994 3034 1497 
Q 3034 2003 2786 2293 
Q 2538 2584 2113 2584 
z
M 3366 4563 
L 3366 3988 
Q 3128 4100 2886 4159 
Q 2644 4219 2406 4219 
Q 1781 4219 1451 3797 
Q 1122 3375 1075 2522 
Q 1259 2794 1537 2939 
Q 1816 3084 2150 3084 
Q 2853 3084 3261 2657 
Q 3669 2231 3669 1497 
Q 3669 778 3244 343 
Q 2819 -91 2113 -91 
Q 1303 -91 875 529 
Q 447 1150 447 2328 
Q 447 3434 972 4092 
Q 1497 4750 2381 4750 
Q 2619 4750 2861 4703 
Q 3103 4656 3366 4563 
z
" transform="scale(0.015625)"/>
       </defs>
       <use xlink:href="#DejaVuSans-30"/>
       <use xlink:href="#DejaVuSans-2e" x="63.623047"/>
       <use xlink:href="#DejaVuSans-36" x="95.410156"/>
      </g>
     </g>
    </g>
    <g id="xtick_5">
     <g id="line2d_5">
      <g>
       <use xlink:href="#m5f86f817e8" x="343.296" y="307.584" style="stroke: #000000; stroke-width: 0.8"/>
      </g>
     </g>
     <g id="text_5">
      <!-- 0.8 -->
      <g transform="translate(335.344438 322.182437) scale(0.1 -0.1)">
       <defs>
        <path id="DejaVuSans-38" d="M 2034 2216 
Q 1584 2216 1326 1975 
Q 1069 1734 1069 1313 
Q 1069 891 1326 650 
Q 1584 409 2034 409 
Q 2484 409 2743 651 
Q 3003 894 3003 1313 
Q 3003 1734 2745 1975 
Q 2488 2216 2034 2216 
z
M 1403 2484 
Q 997 2584 770 2862 
Q 544 3141 544 3541 
Q 544 4100 942 4425 
Q 1341 4750 2034 4750 
Q 2731 4750 3128 4425 
Q 3525 4100 3525 3541 
Q 3525 3141 3298 2862 
Q 3072 2584 2669 2484 
Q 3125 2378 3379 2068 
Q 3634 1759 3634 1313 
Q 3634 634 3220 271 
Q 2806 -91 2034 -91 
Q 1263 -91 848 271 
Q 434 634 434 1313 
Q 434 1759 690 2068 
Q 947 2378 1403 2484 
z
M 1172 3481 
Q 1172 3119 1398 2916 
Q 1625 2713 2034 2713 
Q 2441 2713 2670 2916 
Q 2900 3119 2900 3481 
Q 2900 3844 2670 4047 
Q 2441 4250 2034 4250 
Q 1625 4250 1398 4047 
Q 1172 3844 1172 3481 
z
" transform="scale(0.015625)"/>
       </defs>
       <use xlink:href="#DejaVuSans-30"/>
       <use xlink:href="#DejaVuSans-2e" x="63.623047"/>
       <use xlink:href="#DejaVuSans-38" x="95.410156"/>
      </g>
     </g>
    </g>
    <g id="xtick_6">
     <g id="line2d_6">
      <g>
       <use xlink:href="#m5f86f817e8" x="414.72" y="307.584" style="stroke: #000000; stroke-width: 0.8"/>
      </g>
     </g>
     <g id="text_6">
      <!-- 1.0 -->
      <g transform="translate(406.768438 322.182437) scale(0.1 -0.1)">
       <defs>
        <path id="DejaVuSans-31" d="M 794 531 
L 1825 531 
L 1825 4091 
L 703 3866 
L 703 4441 
L 1819 4666 
L 2450 4666 
L 2450 531 
L 3481 531 
L 3481 0 
L 794 0 
L 794 531 
z
" transform="scale(0.015625)"/>
       </defs>
       <use xlink:href="#DejaVuSans-31"/>
       <use xlink:href="#DejaVuSans-2e" x="63.623047"/>
       <use xlink:href="#DejaVuSans-30" x="95.410156"/>
      </g>
     </g>
    </g>
    <g id="text_7">
     <!-- Freq -->
     <g transform="translate(225.452969 335.860562) scale(0.1 -0.1)">
      <defs>
       <path id="DejaVuSans-46" d="M 628 4666 
L 3309 4666 
L 3309 4134 
L 1259 4134 
L 1259 2759 
L 3109 2759 
L 3109 2228 
L 1259 2228 
L 1259 0 
L 628 0 
L 628 4666 
z
" transform="scale(0.015625)"/>
       <path id="DejaVuSans-72" d="M 2631 2963 
Q 2534 3019 2420 3045 
Q 2306 3072 2169 3072 
Q 1681 3072 1420 2755 
Q 1159 2438 1159 1844 
L 1159 0 
L 581 0 
L 581 3500 
L 1159 3500 
L 1159 2956 
Q 1341 3275 1631 3429 
Q 1922 3584 2338 3584 
Q 2397 3584 2469 3576 
Q 2541 3569 2628 3553 
L 2631 2963 
z
" transform="scale(0.015625)"/>
       <path id="DejaVuSans-65" d="M 3597 1894 
L 3597 1613 
L 953 1613 
Q 991 1019 1311 708 
Q 1631 397 2203 397 
Q 2534 397 2845 478 
Q 3156 559 3463 722 
L 3463 178 
Q 3153 47 2828 -22 
Q 2503 -91 2169 -91 
Q 1331 -91 842 396 
Q 353 884 353 1716 
Q 353 2575 817 3079 
Q 1281 3584 2069 3584 
Q 2775 3584 3186 3129 
Q 3597 2675 3597 1894 
z
M 3022 2063 
Q 3016 2534 2758 2815 
Q 2500 3097 2075 3097 
Q 1594 3097 1305 2825 
Q 1016 2553 972 2059 
L 3022 2063 
z
" transform="scale(0.015625)"/>
       <path id="DejaVuSans-71" d="M 947 1747 
Q 947 1113 1208 752 
Q 1469 391 1925 391 
Q 2381 391 2643 752 
Q 2906 1113 2906 1747 
Q 2906 2381 2643 2742 
Q 2381 3103 1925 3103 
Q 1469 3103 1208 2742 
Q 947 2381 947 1747 
z
M 2906 525 
Q 2725 213 2448 61 
Q 2172 -91 1784 -91 
Q 1150 -91 751 415 
Q 353 922 353 1747 
Q 353 2572 751 3078 
Q 1150 3584 1784 3584 
Q 2172 3584 2448 3432 
Q 2725 3281 2906 2969 
L 2906 3500 
L 3481 3500 
L 3481 -1331 
L 2906 -1331 
L 2906 525 
z
" transform="scale(0.015625)"/>
      </defs>
      <use xlink:href="#DejaVuSans-46"/>
      <use xlink:href="#DejaVuSans-72" x="50.269531"/>
      <use xlink:href="#DejaVuSans-65" x="89.132812"/>
      <use xlink:href="#DejaVuSans-71" x="150.65625"/>
     </g>
    </g>
    <g id="text_8">
     <!-- 1e13 -->
     <g transform="translate(389.479375 334.860562) scale(0.1 -0.1)">
      <defs>
       <path id="DejaVuSans-33" d="M 2597 2516 
Q 3050 2419 3304 2112 
Q 3559 1806 3559 1356 
Q 3559 666 3084 287 
Q 2609 -91 1734 -91 
Q 1441 -91 1130 -33 
Q 819 25 488 141 
L 488 750 
Q 750 597 1062 519 
Q 1375 441 1716 441 
Q 2309 441 2620 675 
Q 2931 909 2931 1356 
Q 2931 1769 2642 2001 
Q 2353 2234 1838 2234 
L 1294 2234 
L 1294 2753 
L 1863 2753 
Q 2328 2753 2575 2939 
Q 2822 3125 2822 3475 
Q 2822 3834 2567 4026 
Q 2313 4219 1838 4219 
Q 1578 4219 1281 4162 
Q 984 4106 628 3988 
L 628 4550 
Q 988 4650 1302 4700 
Q 1616 4750 1894 4750 
Q 2613 4750 3031 4423 
Q 3450 4097 3450 3541 
Q 3450 3153 3228 2886 
Q 3006 2619 2597 2516 
z
" transform="scale(0.015625)"/>
      </defs>
      <use xlink:href="#DejaVuSans-31"/>
      <use xlink:href="#DejaVuSans-65" x="63.623047"/>
      <use xlink:href="#DejaVuSans-31" x="125.146484"/>
      <use xlink:href="#DejaVuSans-33" x="188.769531"/>
     </g>
    </g>
   </g>
   <g id="matplotlib.axis_2">
    <g id="ytick_1">
     <g id="line2d_7">
      <defs>
       <path id="m14608ad8fc" d="M 0 0 
L -3.5 0 
" style="stroke: #000000; stroke-width: 0.8"/>
      </defs>
      <g>
       <use xlink:href="#m14608ad8fc" x="57.6" y="301.720137" style="stroke: #000000; stroke-width: 0.8"/>
      </g>
     </g>
     <g id="text_9">
      <!-- $\mathdefault{10^{-4}}$ -->
      <g transform="translate(27.1 305.519356) scale(0.1 -0.1)">
       <defs>
        <path id="DejaVuSans-2212" d="M 678 2272 
L 4684 2272 
L 4684 1741 
L 678 1741 
L 678 2272 
z
" transform="scale(0.015625)"/>
       </defs>
       <use xlink:href="#DejaVuSans-31" transform="translate(0 0.684375)"/>
       <use xlink:href="#DejaVuSans-30" transform="translate(63.623047 0.684375)"/>
       <use xlink:href="#DejaVuSans-2212" transform="translate(128.203125 38.965625) scale(0.7)"/>
       <use xlink:href="#DejaVuSans-34" transform="translate(186.855469 38.965625) scale(0.7)"/>
      </g>
     </g>
    </g>
    <g id="ytick_2">
     <g id="line2d_8">
      <g>
       <use xlink:href="#m14608ad8fc" x="57.6" y="241.211808" style="stroke: #000000; stroke-width: 0.8"/>
      </g>
     </g>
     <g id="text_10">
      <!-- $\mathdefault{10^{-3}}$ -->
      <g transform="translate(27.1 245.011027) scale(0.1 -0.1)">
       <use xlink:href="#DejaVuSans-31" transform="translate(0 0.765625)"/>
       <use xlink:href="#DejaVuSans-30" transform="translate(63.623047 0.765625)"/>
       <use xlink:href="#DejaVuSans-2212" transform="translate(128.203125 39.046875) scale(0.7)"/>
       <use xlink:href="#DejaVuSans-33" transform="translate(186.855469 39.046875) scale(0.7)"/>
      </g>
     </g>
    </g>
    <g id="ytick_3">
     <g id="line2d_9">
      <g>
       <use xlink:href="#m14608ad8fc" x="57.6" y="180.70348" style="stroke: #000000; stroke-width: 0.8"/>
      </g>
     </g>
     <g id="text_11">
      <!-- $\mathdefault{10^{-2}}$ -->
      <g transform="translate(27.1 184.502698) scale(0.1 -0.1)">
       <use xlink:href="#DejaVuSans-31" transform="translate(0 0.765625)"/>
       <use xlink:href="#DejaVuSans-30" transform="translate(63.623047 0.765625)"/>
       <use xlink:href="#DejaVuSans-2212" transform="translate(128.203125 39.046875) scale(0.7)"/>
       <use xlink:href="#DejaVuSans-32" transform="translate(186.855469 39.046875) scale(0.7)"/>
      </g>
     </g>
    </g>
    <g id="ytick_4">
     <g id="line2d_10">
      <g>
       <use xlink:href="#m14608ad8fc" x="57.6" y="120.195151" style="stroke: #000000; stroke-width: 0.8"/>
      </g>
     </g>
     <g id="text_12">
      <!-- $\mathdefault{10^{-1}}$ -->
      <g transform="translate(27.1 123.994369) scale(0.1 -0.1)">
       <use xlink:href="#DejaVuSans-31" transform="translate(0 0.684375)"/>
       <use xlink:href="#DejaVuSans-30" transform="translate(63.623047 0.684375)"/>
       <use xlink:href="#DejaVuSans-2212" transform="translate(128.203125 38.965625) scale(0.7)"/>
       <use xlink:href="#DejaVuSans-31" transform="translate(186.855469 38.965625) scale(0.7)"/>
      </g>
     </g>
    </g>
    <g id="ytick_5">
     <g id="line2d_11">
      <g>
       <use xlink:href="#m14608ad8fc" x="57.6" y="59.686822" style="stroke: #000000; stroke-width: 0.8"/>
      </g>
     </g>
     <g id="text_13">
      <!-- $\mathdefault{10^{0}}$ -->
      <g transform="translate(33 63.486041) scale(0.1 -0.1)">
       <use xlink:href="#DejaVuSans-31" transform="translate(0 0.765625)"/>
       <use xlink:href="#DejaVuSans-30" transform="translate(63.623047 0.765625)"/>
       <use xlink:href="#DejaVuSans-30" transform="translate(128.203125 39.046875) scale(0.7)"/>
      </g>
     </g>
    </g>
    <g id="ytick_6">
     <g id="line2d_12">
      <defs>
       <path id="m598065ec8e" d="M 0 0 
L -2 0 
" style="stroke: #000000; stroke-width: 0.6"/>
      </defs>
      <g>
       <use xlink:href="#m598065ec8e" x="57.6" y="307.584" style="stroke: #000000; stroke-width: 0.6"/>
      </g>
     </g>
    </g>
    <g id="ytick_7">
     <g id="line2d_13">
      <g>
       <use xlink:href="#m598065ec8e" x="57.6" y="304.488846" style="stroke: #000000; stroke-width: 0.6"/>
      </g>
     </g>
    </g>
    <g id="ytick_8">
     <g id="line2d_14">
      <g>
       <use xlink:href="#m598065ec8e" x="57.6" y="283.505315" style="stroke: #000000; stroke-width: 0.6"/>
      </g>
     </g>
    </g>
    <g id="ytick_9">
     <g id="line2d_15">
      <g>
       <use xlink:href="#m598065ec8e" x="57.6" y="272.850327" style="stroke: #000000; stroke-width: 0.6"/>
      </g>
     </g>
    </g>
    <g id="ytick_10">
     <g id="line2d_16">
      <g>
       <use xlink:href="#m598065ec8e" x="57.6" y="265.290493" style="stroke: #000000; stroke-width: 0.6"/>
      </g>
     </g>
    </g>
    <g id="ytick_11">
     <g id="line2d_17">
      <g>
       <use xlink:href="#m598065ec8e" x="57.6" y="259.42663" style="stroke: #000000; stroke-width: 0.6"/>
      </g>
     </g>
    </g>
    <g id="ytick_12">
     <g id="line2d_18">
      <g>
       <use xlink:href="#m598065ec8e" x="57.6" y="254.635505" style="stroke: #000000; stroke-width: 0.6"/>
      </g>
     </g>
    </g>
    <g id="ytick_13">
     <g id="line2d_19">
      <g>
       <use xlink:href="#m598065ec8e" x="57.6" y="250.584667" style="stroke: #000000; stroke-width: 0.6"/>
      </g>
     </g>
    </g>
    <g id="ytick_14">
     <g id="line2d_20">
      <g>
       <use xlink:href="#m598065ec8e" x="57.6" y="247.075671" style="stroke: #000000; stroke-width: 0.6"/>
      </g>
     </g>
    </g>
    <g id="ytick_15">
     <g id="line2d_21">
      <g>
       <use xlink:href="#m598065ec8e" x="57.6" y="243.980518" style="stroke: #000000; stroke-width: 0.6"/>
      </g>
     </g>
    </g>
    <g id="ytick_16">
     <g id="line2d_22">
      <g>
       <use xlink:href="#m598065ec8e" x="57.6" y="222.996986" style="stroke: #000000; stroke-width: 0.6"/>
      </g>
     </g>
    </g>
    <g id="ytick_17">
     <g id="line2d_23">
      <g>
       <use xlink:href="#m598065ec8e" x="57.6" y="212.341999" style="stroke: #000000; stroke-width: 0.6"/>
      </g>
     </g>
    </g>
    <g id="ytick_18">
     <g id="line2d_24">
      <g>
       <use xlink:href="#m598065ec8e" x="57.6" y="204.782164" style="stroke: #000000; stroke-width: 0.6"/>
      </g>
     </g>
    </g>
    <g id="ytick_19">
     <g id="line2d_25">
      <g>
       <use xlink:href="#m598065ec8e" x="57.6" y="198.918301" style="stroke: #000000; stroke-width: 0.6"/>
      </g>
     </g>
    </g>
    <g id="ytick_20">
     <g id="line2d_26">
      <g>
       <use xlink:href="#m598065ec8e" x="57.6" y="194.127177" style="stroke: #000000; stroke-width: 0.6"/>
      </g>
     </g>
    </g>
    <g id="ytick_21">
     <g id="line2d_27">
      <g>
       <use xlink:href="#m598065ec8e" x="57.6" y="190.076338" style="stroke: #000000; stroke-width: 0.6"/>
      </g>
     </g>
    </g>
    <g id="ytick_22">
     <g id="line2d_28">
      <g>
       <use xlink:href="#m598065ec8e" x="57.6" y="186.567342" style="stroke: #000000; stroke-width: 0.6"/>
      </g>
     </g>
    </g>
    <g id="ytick_23">
     <g id="line2d_29">
      <g>
       <use xlink:href="#m598065ec8e" x="57.6" y="183.472189" style="stroke: #000000; stroke-width: 0.6"/>
      </g>
     </g>
    </g>
    <g id="ytick_24">
     <g id="line2d_30">
      <g>
       <use xlink:href="#m598065ec8e" x="57.6" y="162.488658" style="stroke: #000000; stroke-width: 0.6"/>
      </g>
     </g>
    </g>
    <g id="ytick_25">
     <g id="line2d_31">
      <g>
       <use xlink:href="#m598065ec8e" x="57.6" y="151.83367" style="stroke: #000000; stroke-width: 0.6"/>
      </g>
     </g>
    </g>
    <g id="ytick_26">
     <g id="line2d_32">
      <g>
       <use xlink:href="#m598065ec8e" x="57.6" y="144.273836" style="stroke: #000000; stroke-width: 0.6"/>
      </g>
     </g>
    </g>
    <g id="ytick_27">
     <g id="line2d_33">
      <g>
       <use xlink:href="#m598065ec8e" x="57.6" y="138.409973" style="stroke: #000000; stroke-width: 0.6"/>
      </g>
     </g>
    </g>
    <g id="ytick_28">
     <g id="line2d_34">
      <g>
       <use xlink:href="#m598065ec8e" x="57.6" y="133.618848" style="stroke: #000000; stroke-width: 0.6"/>
      </g>
     </g>
    </g>
    <g id="ytick_29">
     <g id="line2d_35">
      <g>
       <use xlink:href="#m598065ec8e" x="57.6" y="129.568009" style="stroke: #000000; stroke-width: 0.6"/>
      </g>
     </g>
    </g>
    <g id="ytick_30">
     <g id="line2d_36">
      <g>
       <use xlink:href="#m598065ec8e" x="57.6" y="126.059014" style="stroke: #000000; stroke-width: 0.6"/>
      </g>
     </g>
    </g>
    <g id="ytick_31">
     <g id="line2d_37">
      <g>
       <use xlink:href="#m598065ec8e" x="57.6" y="122.96386" style="stroke: #000000; stroke-width: 0.6"/>
      </g>
     </g>
    </g>
    <g id="ytick_32">
     <g id="line2d_38">
      <g>
       <use xlink:href="#m598065ec8e" x="57.6" y="101.980329" style="stroke: #000000; stroke-width: 0.6"/>
      </g>
     </g>
    </g>
    <g id="ytick_33">
     <g id="line2d_39">
      <g>
       <use xlink:href="#m598065ec8e" x="57.6" y="91.325341" style="stroke: #000000; stroke-width: 0.6"/>
      </g>
     </g>
    </g>
    <g id="ytick_34">
     <g id="line2d_40">
      <g>
       <use xlink:href="#m598065ec8e" x="57.6" y="83.765507" style="stroke: #000000; stroke-width: 0.6"/>
      </g>
     </g>
    </g>
    <g id="ytick_35">
     <g id="line2d_41">
      <g>
       <use xlink:href="#m598065ec8e" x="57.6" y="77.901644" style="stroke: #000000; stroke-width: 0.6"/>
      </g>
     </g>
    </g>
    <g id="ytick_36">
     <g id="line2d_42">
      <g>
       <use xlink:href="#m598065ec8e" x="57.6" y="73.110519" style="stroke: #000000; stroke-width: 0.6"/>
      </g>
     </g>
    </g>
    <g id="ytick_37">
     <g id="line2d_43">
      <g>
       <use xlink:href="#m598065ec8e" x="57.6" y="69.059681" style="stroke: #000000; stroke-width: 0.6"/>
      </g>
     </g>
    </g>
    <g id="ytick_38">
     <g id="line2d_44">
      <g>
       <use xlink:href="#m598065ec8e" x="57.6" y="65.550685" style="stroke: #000000; stroke-width: 0.6"/>
      </g>
     </g>
    </g>
    <g id="ytick_39">
     <g id="line2d_45">
      <g>
       <use xlink:href="#m598065ec8e" x="57.6" y="62.455531" style="stroke: #000000; stroke-width: 0.6"/>
      </g>
     </g>
    </g>
    <g id="ytick_40">
     <g id="line2d_46">
      <g>
       <use xlink:href="#m598065ec8e" x="57.6" y="41.472" style="stroke: #000000; stroke-width: 0.6"/>
      </g>
     </g>
    </g>
    <g id="text_14">
     <!-- E field ^2 -->
     <g transform="translate(21.020312 199.025656) rotate(-90) scale(0.1 -0.1)">
      <defs>
       <path id="DejaVuSans-45" d="M 628 4666 
L 3578 4666 
L 3578 4134 
L 1259 4134 
L 1259 2753 
L 3481 2753 
L 3481 2222 
L 1259 2222 
L 1259 531 
L 3634 531 
L 3634 0 
L 628 0 
L 628 4666 
z
" transform="scale(0.015625)"/>
       <path id="DejaVuSans-20" transform="scale(0.015625)"/>
       <path id="DejaVuSans-66" d="M 2375 4863 
L 2375 4384 
L 1825 4384 
Q 1516 4384 1395 4259 
Q 1275 4134 1275 3809 
L 1275 3500 
L 2222 3500 
L 2222 3053 
L 1275 3053 
L 1275 0 
L 697 0 
L 697 3053 
L 147 3053 
L 147 3500 
L 697 3500 
L 697 3744 
Q 697 4328 969 4595 
Q 1241 4863 1831 4863 
L 2375 4863 
z
" transform="scale(0.015625)"/>
       <path id="DejaVuSans-69" d="M 603 3500 
L 1178 3500 
L 1178 0 
L 603 0 
L 603 3500 
z
M 603 4863 
L 1178 4863 
L 1178 4134 
L 603 4134 
L 603 4863 
z
" transform="scale(0.015625)"/>
       <path id="DejaVuSans-6c" d="M 603 4863 
L 1178 4863 
L 1178 0 
L 603 0 
L 603 4863 
z
" transform="scale(0.015625)"/>
       <path id="DejaVuSans-64" d="M 2906 2969 
L 2906 4863 
L 3481 4863 
L 3481 0 
L 2906 0 
L 2906 525 
Q 2725 213 2448 61 
Q 2172 -91 1784 -91 
Q 1150 -91 751 415 
Q 353 922 353 1747 
Q 353 2572 751 3078 
Q 1150 3584 1784 3584 
Q 2172 3584 2448 3432 
Q 2725 3281 2906 2969 
z
M 947 1747 
Q 947 1113 1208 752 
Q 1469 391 1925 391 
Q 2381 391 2643 752 
Q 2906 1113 2906 1747 
Q 2906 2381 2643 2742 
Q 2381 3103 1925 3103 
Q 1469 3103 1208 2742 
Q 947 2381 947 1747 
z
" transform="scale(0.015625)"/>
       <path id="DejaVuSans-5e" d="M 2988 4666 
L 4684 2925 
L 4056 2925 
L 2681 4159 
L 1306 2925 
L 678 2925 
L 2375 4666 
L 2988 4666 
z
" transform="scale(0.015625)"/>
      </defs>
      <use xlink:href="#DejaVuSans-45"/>
      <use xlink:href="#DejaVuSans-20" x="63.183594"/>
      <use xlink:href="#DejaVuSans-66" x="94.970703"/>
      <use xlink:href="#DejaVuSans-69" x="130.175781"/>
      <use xlink:href="#DejaVuSans-65" x="157.958984"/>
      <use xlink:href="#DejaVuSans-6c" x="219.482422"/>
      <use xlink:href="#DejaVuSans-64" x="247.265625"/>
      <use xlink:href="#DejaVuSans-20" x="310.742188"/>
      <use xlink:href="#DejaVuSans-5e" x="342.529297"/>
      <use xlink:href="#DejaVuSans-32" x="426.318359"/>
     </g>
    </g>
   </g>
   <g id="line2d_47">
    <path d="M 65.793764 346.6 
L 67.126843 314.942842 
L 68.554037 286.199065 
L 70.016911 261.138509 
L 71.479785 239.819973 
L 72.8713 222.625751 
L 74.191454 208.912849 
L 75.40457 198.488205 
L 76.510645 190.806813 
L 77.474001 185.559138 
L 78.330318 182.041184 
L 79.079595 179.849003 
L 79.721832 178.608736 
L 80.29271 177.964156 
L 80.792228 177.704715 
L 81.363106 177.665878 
L 82.68326 177.695641 
L 83.075739 177.400355 
L 83.468217 176.806017 
L 83.896375 175.731631 
L 84.395893 173.852167 
L 85.038131 170.486371 
L 86.001487 164.061566 
L 87.821159 151.886613 
L 88.677476 147.698321 
L 89.355393 145.384693 
L 89.926271 144.136912 
L 90.425789 143.530514 
L 90.889627 143.306823 
L 91.389145 143.320447 
L 92.423861 143.431046 
L 92.816339 143.186712 
L 93.208818 142.629286 
L 93.636976 141.593598 
L 94.172174 139.663602 
L 94.957131 135.875194 
L 96.598404 127.821756 
L 97.276321 125.645306 
L 97.811519 124.602227 
L 98.275357 124.153904 
L 98.703516 124.044376 
L 99.274393 124.162514 
L 99.916631 124.251446 
L 100.273429 124.083803 
L 100.630228 123.657121 
L 101.058386 122.742307 
L 101.593584 121.003644 
L 102.59262 116.772711 
L 103.520296 113.252076 
L 104.091174 111.846962 
L 104.555012 111.217137 
L 104.94749 111.008985 
L 105.375649 111.031197 
L 106.410364 111.21194 
L 106.767163 110.967144 
L 107.123962 110.434216 
L 107.5878 109.29163 
L 108.301397 106.813983 
L 109.443152 102.930772 
L 109.97835 101.847842 
L 110.406508 101.425731 
L 110.798987 101.338314 
L 111.334185 101.492325 
L 111.940742 101.613134 
L 112.297541 101.436681 
L 112.654339 100.976506 
L 113.118177 99.93663 
L 113.867454 97.569655 
L 114.759451 94.970505 
L 115.258969 94.135811 
L 115.651447 93.858224 
L 116.043926 93.853617 
L 117.221361 94.073148 
L 117.542479 93.791533 
L 117.934958 93.118541 
L 118.505836 91.619642 
L 119.647591 88.579239 
L 120.111429 87.965181 
L 120.468228 87.806786 
L 120.860706 87.873025 
L 121.788382 88.122222 
L 122.109501 87.92069 
L 122.4663 87.414866 
L 123.001497 86.183355 
L 124.143253 83.435489 
L 124.571411 82.962882 
L 124.92821 82.866832 
L 125.356368 83.001071 
L 126.069965 83.226754 
L 126.391084 83.077683 
L 126.747882 82.632376 
L 127.2474 81.583744 
L 128.353476 79.174382 
L 128.745954 78.816125 
L 129.102753 78.771416 
L 129.602271 78.984217 
L 130.137469 79.148988 
L 130.458587 79.016936 
L 130.815386 78.590761 
L 131.350584 77.507962 
L 132.24258 75.711905 
L 132.635059 75.361778 
L 132.991857 75.328544 
L 133.491375 75.559872 
L 133.990893 75.726748 
L 134.312012 75.606449 
L 134.66881 75.193724 
L 135.204008 74.15897 
L 135.988965 72.721044 
L 136.381443 72.423764 
L 136.738242 72.435145 
L 137.915677 72.767434 
L 138.236796 72.464999 
L 138.700634 71.678396 
L 139.59263 70.156172 
L 139.949429 69.939692 
L 140.306228 69.987374 
L 141.376623 70.348834 
L 141.697742 70.087105 
L 142.16158 69.357313 
L 142.982217 68.042306 
L 143.339015 67.839786 
L 143.695814 67.903282 
L 144.73053 68.284236 
L 145.051648 68.035786 
L 145.515487 67.33729 
L 146.264764 66.229399 
L 146.621562 66.059522 
L 146.978361 66.152857 
L 147.906037 66.55496 
L 148.227156 66.357338 
L 148.655314 65.778066 
L 149.440271 64.692125 
L 149.797069 64.56255 
L 150.153868 64.6904 
L 150.974505 65.093555 
L 151.295623 64.941513 
L 151.723782 64.414519 
L 152.508738 63.407605 
L 152.829857 63.312932 
L 153.186656 63.452906 
L 154.007292 63.867483 
L 154.328411 63.7105 
L 154.756569 63.192647 
L 155.470166 62.353693 
L 155.791285 62.285374 
L 156.148084 62.450922 
L 156.897361 62.864017 
L 157.218479 62.73884 
L 157.646638 62.259442 
L 158.324555 61.509956 
L 158.645674 61.453357 
L 159.002472 61.633129 
L 159.716069 62.054861 
L 160.037188 61.950919 
L 160.465346 61.50093 
L 161.107584 60.841115 
L 161.428702 60.802605 
L 161.785501 61.001266 
L 162.463418 61.424258 
L 162.784537 61.336202 
L 163.212695 60.911021 
L 163.819253 60.336266 
L 164.140371 60.317712 
L 164.53285 60.566341 
L 165.139407 60.957637 
L 165.460526 60.884708 
L 165.888684 60.483464 
L 166.459562 59.985481 
L 166.780681 59.984759 
L 167.173159 60.253265 
L 167.779717 60.647976 
L 168.100835 60.566626 
L 168.564674 60.136837 
L 169.064192 59.76882 
L 169.38531 59.806825 
L 169.813469 60.141673 
L 170.312986 60.47369 
L 170.634105 60.417532 
L 171.062263 60.055168 
L 171.561781 59.700218 
L 171.8829 59.741662 
L 172.311058 60.088278 
L 172.810576 60.436973 
L 173.131695 60.389212 
L 173.595533 60.014646 
L 174.059371 59.747246 
L 174.38049 59.833722 
L 174.915688 60.317532 
L 175.308166 60.538348 
L 175.629285 60.459021 
L 176.628321 59.944912 
L 176.98512 60.192492 
L 177.698717 60.751904 
L 178.019835 60.682531 
L 178.983192 60.24423 
L 179.33999 60.508905 
L 180.053587 61.084989 
L 180.374706 61.017045 
L 181.231022 60.634755 
L 181.552141 60.840691 
L 182.408458 61.537248 
L 182.729576 61.441752 
L 183.443174 61.139966 
L 183.764292 61.324872 
L 184.727648 62.095912 
L 185.084447 61.954266 
L 185.619645 61.755627 
L 185.905084 61.8913 
L 186.475961 62.521948 
L 186.86844 62.76307 
L 187.189558 62.69529 
L 187.831796 62.489611 
L 188.152914 62.693832 
L 189.116271 63.545702 
L 189.508749 63.416683 
L 189.936907 63.31555 
L 190.222346 63.471587 
L 190.793224 64.157129 
L 191.185702 64.426337 
L 191.506821 64.380766 
L 192.077699 64.26332 
L 192.398817 64.494252 
L 193.362173 65.431336 
L 193.754652 65.337635 
L 194.14713 65.308787 
L 194.468249 65.552721 
L 195.431605 66.538999 
L 195.859763 66.456124 
L 196.216562 66.475523 
L 196.537681 66.75932 
L 197.429677 67.751539 
L 197.822155 67.714616 
L 198.214634 67.735484 
L 198.535753 68.028043 
L 199.463429 69.090136 
L 199.927267 69.057199 
L 200.248386 69.14583 
L 200.569504 69.501082 
L 201.354461 70.509908 
L 201.71126 70.54828 
L 202.139418 70.602616 
L 202.460537 70.928938 
L 203.388213 72.111766 
L 204.315889 72.464991 
L 205.421965 73.835963 
L 206.028522 74.004448 
L 206.349641 74.43382 
L 207.134598 75.599836 
L 207.527076 75.698315 
L 207.883875 75.858973 
L 208.204994 76.299757 
L 209.02563 77.571729 
L 209.525148 77.72372 
L 209.810587 77.950326 
L 210.203065 78.631509 
L 210.773943 79.596563 
L 211.130742 79.782483 
L 211.52322 79.978292 
L 211.844339 80.445142 
L 212.736335 81.957332 
L 213.521292 82.539649 
L 214.05649 83.688836 
L 214.484648 84.334302 
L 215.376645 85.158178 
L 216.375681 87.00508 
L 216.946558 87.467536 
L 217.303357 88.210779 
L 217.981274 89.640487 
L 218.94463 90.825343 
L 219.765267 92.650881 
L 220.550224 93.596201 
L 221.691979 96.025984 
L 222.084458 96.492449 
L 222.441256 97.377682 
L 223.119173 99.139063 
L 224.01117 100.555474 
L 224.903166 102.934677 
L 225.509724 103.846504 
L 225.937882 105.227801 
L 226.4374 106.661639 
L 227.365076 108.515301 
L 228.150033 111.010827 
L 228.86363 112.419355 
L 230.005386 115.96538 
L 230.362184 116.733983 
L 230.754663 118.275939 
L 231.32554 120.403827 
L 232.146177 122.508173 
L 233.073853 126.139867 
L 233.537691 127.290555 
L 233.93017 129.141523 
L 234.501047 131.687896 
L 235.286004 134.170635 
L 236.213681 138.596471 
L 236.677519 140.079652 
L 237.105677 142.661473 
L 237.605195 145.35347 
L 238.354472 148.316074 
L 239.317828 154.065214 
L 239.710306 155.672558 
L 240.102785 158.62884 
L 240.673663 162.68363 
L 241.3159 165.862385 
L 242.671734 175.889813 
L 243.028533 179.392329 
L 243.70645 186.239359 
L 244.241648 189.911467 
L 244.634127 195.308037 
L 245.133645 201.626412 
L 245.775882 207.601249 
L 246.23972 216.687049 
L 246.667878 223.219974 
L 247.131716 228.723941 
L 247.452835 236.645324 
L 248.202112 256.784476 
L 248.558911 263.976206 
L 248.84435 275.76526 
L 249.236828 303.852115 
L 249.700666 334.973796 
L 249.879065 338.721955 
L 249.914745 338.643063 
L 250.021785 336.288233 
L 250.235864 323.476304 
L 250.735382 294.32083 
L 251.12786 284.861842 
L 251.413299 275.774915 
L 252.126896 250.128715 
L 252.448015 246.359205 
L 252.733454 243.282495 
L 253.090252 235.841639 
L 253.554091 227.514648 
L 253.875209 225.497531 
L 254.124968 223.966442 
L 254.410407 220.375861 
L 254.945605 213.564442 
L 255.231044 212.412089 
L 255.480803 211.572771 
L 255.730562 209.597619 
L 256.372799 203.752986 
L 256.622558 203.231046 
L 256.836637 202.830607 
L 257.050716 201.742961 
L 257.835673 196.776812 
L 258.299511 196.238926 
L 258.54927 194.900882 
L 259.048788 192.153574 
L 259.227188 191.972315 
L 259.583986 191.96235 
L 259.762385 191.476355 
L 260.511662 188.63075 
L 260.725742 188.810473 
L 260.939821 188.883611 
L 261.08254 188.633551 
L 261.367979 187.498691 
L 261.689098 186.49003 
L 261.831817 186.456224 
L 262.045896 186.754499 
L 262.295655 186.985573 
L 262.438375 186.803889 
L 262.759493 185.770452 
L 263.009252 185.253707 
L 263.151972 185.306498 
L 263.437411 185.886351 
L 263.65149 186.126679 
L 263.794209 185.989149 
L 264.365087 184.957929 
L 264.400767 184.988799 
L 264.614846 185.445682 
L 264.971644 186.211018 
L 265.114364 186.157529 
L 265.613882 185.488823 
L 265.685242 185.560579 
L 265.899321 186.112708 
L 266.327479 187.21004 
L 266.470198 187.168045 
L 266.898357 186.861014 
L 267.076756 187.246714 
L 267.718993 189.111912 
L 267.968752 188.978561 
L 268.147152 189.021617 
L 268.325551 189.44292 
L 269.110508 191.923487 
L 269.360267 191.980939 
L 269.538666 192.376885 
L 269.824105 193.781973 
L 270.216583 195.487526 
L 270.466342 195.738865 
L 270.644742 195.938986 
L 270.823141 196.506927 
L 271.179939 198.682848 
L 271.536738 200.277116 
L 272.071936 201.548645 
L 272.428734 204.091159 
L 272.785533 206.08076 
L 273.356411 208.03477 
L 274.284087 214.020268 
L 274.498166 215.002382 
L 274.783605 217.568628 
L 275.318803 222.25562 
L 275.782641 224.747157 
L 276.139439 229.126954 
L 276.531918 233.169703 
L 277.031436 236.758712 
L 277.459594 243.619625 
L 277.816393 247.734381 
L 278.208871 251.376401 
L 278.52999 257.783869 
L 278.993828 266.551475 
L 279.421986 272.140862 
L 279.743105 281.546913 
L 280.242623 296.19808 
L 280.635101 304.817421 
L 280.92054 319.239191 
L 281.287411 346.6 
M 282.481079 346.6 
L 282.989972 327.486976 
L 283.52517 301.673879 
L 283.810608 296.978337 
L 284.096047 292.915721 
L 284.988044 274.979125 
L 285.237803 273.254768 
L 285.523241 268.703316 
L 285.9514 262.507607 
L 286.201159 261.594269 
L 286.379558 260.953059 
L 286.593637 258.979275 
L 287.128835 253.410399 
L 287.307234 253.129384 
L 287.485634 253.001009 
L 287.628353 252.460657 
L 287.913792 249.976829 
L 288.234911 247.743968 
L 288.37763 247.596582 
L 288.698749 247.781495 
L 288.734429 247.710051 
L 288.912828 246.883767 
L 289.376666 244.30043 
L 289.483705 244.31691 
L 289.876184 245.024471 
L 289.947544 244.911687 
L 290.161623 243.985241 
L 290.482741 242.829416 
L 290.589781 242.932152 
L 290.83954 243.837843 
L 291.053619 244.286613 
L 291.160659 244.143767 
L 291.588817 243.056716 
L 291.624497 243.093608 
L 291.767216 243.533144 
L 292.266734 245.403491 
L 292.409454 245.185767 
L 292.659213 244.877645 
L 292.766252 245.105251 
L 292.980331 246.306477 
L 293.37281 248.340011 
L 293.515529 248.358199 
L 293.729608 248.324521 
L 293.872328 248.755037 
L 294.122087 250.620236 
L 294.514565 253.187654 
L 294.978403 254.286516 
L 295.263842 257.083983 
L 295.620641 260.101331 
L 296.084479 262.04288 
L 296.405598 266.178959 
L 296.762396 269.833169 
L 297.154875 272.229578 
L 297.440313 276.775065 
L 297.868472 283.029631 
L 298.26095 286.699597 
L 298.582069 294.047456 
L 298.974547 301.862423 
L 299.331346 306.834317 
L 299.616785 316.16624 
L 300.116303 332.410461 
L 300.401741 339.25971 
L 300.558368 346.6 
M 302.680558 346.6 
L 303.042051 330.947488 
L 303.32749 326.908997 
L 303.541569 323.491941 
L 304.290846 307.325086 
L 304.540605 305.89245 
L 304.754684 302.601281 
L 305.182842 295.937449 
L 305.361241 295.412396 
L 305.539641 295.182905 
L 305.68236 294.297083 
L 306.324598 288.463363 
L 306.360277 288.500157 
L 306.610036 288.831282 
L 306.717076 288.496158 
L 306.966835 286.408969 
L 307.216594 284.86169 
L 307.287954 284.835407 
L 307.323633 284.890976 
L 307.537713 285.7454 
L 307.716112 286.104524 
L 307.823151 285.809894 
L 308.21563 283.95 
L 308.28699 284.027574 
L 308.429709 284.697803 
L 308.786508 286.522621 
L 308.893547 286.377986 
L 309.178986 285.601636 
L 309.214666 285.627125 
L 309.321705 285.99436 
L 309.571464 288.150189 
L 309.856903 289.915055 
L 309.963943 289.917218 
L 310.142342 289.801064 
L 310.249382 290.089641 
L 310.427781 291.573406 
L 310.927299 296.529567 
L 311.248418 297.480528 
L 311.462497 300.083338 
L 311.962015 306.921637 
L 312.247454 308.664583 
L 312.461533 312.278599 
L 313.03241 322.998969 
L 313.282169 325.989156 
L 313.531928 333.149906 
L 313.956155 346.6 
M 317.468499 346.6 
L 317.777831 339.202562 
L 318.313029 333.379269 
L 318.705508 326.177636 
L 318.848227 325.745985 
L 318.883907 325.75614 
L 319.026626 325.748835 
L 319.133666 325.237778 
L 319.347745 322.477703 
L 319.668864 319.069257 
L 319.740223 319.043204 
L 319.882943 319.547877 
L 320.061342 320.012649 
L 320.168382 319.617219 
L 320.59654 316.501498 
L 320.6679 316.642358 
L 320.846299 317.864983 
L 321.096058 319.099539 
L 321.203097 318.784911 
L 321.488536 317.611436 
L 321.524216 317.667708 
L 321.666936 318.577641 
L 322.130774 322.571899 
L 322.273493 322.351111 
L 322.344853 322.284246 
L 322.380533 322.315922 
L 322.487572 322.799668 
L 322.665972 325.045306 
L 323.09413 330.672131 
L 323.379569 331.767416 
L 323.557968 334.521063 
L 324.128846 345.095547 
L 324.293547 346.6 
M 330.070741 346.6 
L 330.301461 344.209588 
L 330.337141 344.165827 
L 330.37282 344.215252 
L 330.51554 345.119478 
L 330.729619 346.46987 
L 330.765299 346.454215 
L 330.872338 345.916168 
L 331.157777 343.96206 
L 331.193457 343.998433 
L 331.300497 344.667211 
L 331.44842 346.6 
L 331.44842 346.6 
" clip-path="url(#p0a3bfce9e4)" style="fill: none; stroke: #1f77b4; stroke-width: 1.5; stroke-linecap: square"/>
   </g>
   <g id="patch_3">
    <path d="M 57.6 307.584 
L 57.6 41.472 
" style="fill: none; stroke: #000000; stroke-width: 0.8; stroke-linejoin: miter; stroke-linecap: square"/>
   </g>
   <g id="patch_4">
    <path d="M 414.72 307.584 
L 414.72 41.472 
" style="fill: none; stroke: #000000; stroke-width: 0.8; stroke-linejoin: miter; stroke-linecap: square"/>
   </g>
   <g id="patch_5">
    <path d="M 57.6 307.584 
L 414.72 307.584 
" style="fill: none; stroke: #000000; stroke-width: 0.8; stroke-linejoin: miter; stroke-linecap: square"/>
   </g>
   <g id="patch_6">
    <path d="M 57.6 41.472 
L 414.72 41.472 
" style="fill: none; stroke: #000000; stroke-width: 0.8; stroke-linejoin: miter; stroke-linecap: square"/>
   </g>
   <g id="text_15">
    <!-- Detected E-field (Frequency domain) -->
    <g transform="translate(125.88 35.472) scale(0.12 -0.12)">
     <defs>
      <path id="DejaVuSans-44" d="M 1259 4147 
L 1259 519 
L 2022 519 
Q 2988 519 3436 956 
Q 3884 1394 3884 2338 
Q 3884 3275 3436 3711 
Q 2988 4147 2022 4147 
L 1259 4147 
z
M 628 4666 
L 1925 4666 
Q 3281 4666 3915 4102 
Q 4550 3538 4550 2338 
Q 4550 1131 3912 565 
Q 3275 0 1925 0 
L 628 0 
L 628 4666 
z
" transform="scale(0.015625)"/>
      <path id="DejaVuSans-74" d="M 1172 4494 
L 1172 3500 
L 2356 3500 
L 2356 3053 
L 1172 3053 
L 1172 1153 
Q 1172 725 1289 603 
Q 1406 481 1766 481 
L 2356 481 
L 2356 0 
L 1766 0 
Q 1100 0 847 248 
Q 594 497 594 1153 
L 594 3053 
L 172 3053 
L 172 3500 
L 594 3500 
L 594 4494 
L 1172 4494 
z
" transform="scale(0.015625)"/>
      <path id="DejaVuSans-63" d="M 3122 3366 
L 3122 2828 
Q 2878 2963 2633 3030 
Q 2388 3097 2138 3097 
Q 1578 3097 1268 2742 
Q 959 2388 959 1747 
Q 959 1106 1268 751 
Q 1578 397 2138 397 
Q 2388 397 2633 464 
Q 2878 531 3122 666 
L 3122 134 
Q 2881 22 2623 -34 
Q 2366 -91 2075 -91 
Q 1284 -91 818 406 
Q 353 903 353 1747 
Q 353 2603 823 3093 
Q 1294 3584 2113 3584 
Q 2378 3584 2631 3529 
Q 2884 3475 3122 3366 
z
" transform="scale(0.015625)"/>
      <path id="DejaVuSans-2d" d="M 313 2009 
L 1997 2009 
L 1997 1497 
L 313 1497 
L 313 2009 
z
" transform="scale(0.015625)"/>
      <path id="DejaVuSans-28" d="M 1984 4856 
Q 1566 4138 1362 3434 
Q 1159 2731 1159 2009 
Q 1159 1288 1364 580 
Q 1569 -128 1984 -844 
L 1484 -844 
Q 1016 -109 783 600 
Q 550 1309 550 2009 
Q 550 2706 781 3412 
Q 1013 4119 1484 4856 
L 1984 4856 
z
" transform="scale(0.015625)"/>
      <path id="DejaVuSans-75" d="M 544 1381 
L 544 3500 
L 1119 3500 
L 1119 1403 
Q 1119 906 1312 657 
Q 1506 409 1894 409 
Q 2359 409 2629 706 
Q 2900 1003 2900 1516 
L 2900 3500 
L 3475 3500 
L 3475 0 
L 2900 0 
L 2900 538 
Q 2691 219 2414 64 
Q 2138 -91 1772 -91 
Q 1169 -91 856 284 
Q 544 659 544 1381 
z
M 1991 3584 
L 1991 3584 
z
" transform="scale(0.015625)"/>
      <path id="DejaVuSans-6e" d="M 3513 2113 
L 3513 0 
L 2938 0 
L 2938 2094 
Q 2938 2591 2744 2837 
Q 2550 3084 2163 3084 
Q 1697 3084 1428 2787 
Q 1159 2491 1159 1978 
L 1159 0 
L 581 0 
L 581 3500 
L 1159 3500 
L 1159 2956 
Q 1366 3272 1645 3428 
Q 1925 3584 2291 3584 
Q 2894 3584 3203 3211 
Q 3513 2838 3513 2113 
z
" transform="scale(0.015625)"/>
      <path id="DejaVuSans-79" d="M 2059 -325 
Q 1816 -950 1584 -1140 
Q 1353 -1331 966 -1331 
L 506 -1331 
L 506 -850 
L 844 -850 
Q 1081 -850 1212 -737 
Q 1344 -625 1503 -206 
L 1606 56 
L 191 3500 
L 800 3500 
L 1894 763 
L 2988 3500 
L 3597 3500 
L 2059 -325 
z
" transform="scale(0.015625)"/>
      <path id="DejaVuSans-6f" d="M 1959 3097 
Q 1497 3097 1228 2736 
Q 959 2375 959 1747 
Q 959 1119 1226 758 
Q 1494 397 1959 397 
Q 2419 397 2687 759 
Q 2956 1122 2956 1747 
Q 2956 2369 2687 2733 
Q 2419 3097 1959 3097 
z
M 1959 3584 
Q 2709 3584 3137 3096 
Q 3566 2609 3566 1747 
Q 3566 888 3137 398 
Q 2709 -91 1959 -91 
Q 1206 -91 779 398 
Q 353 888 353 1747 
Q 353 2609 779 3096 
Q 1206 3584 1959 3584 
z
" transform="scale(0.015625)"/>
      <path id="DejaVuSans-6d" d="M 3328 2828 
Q 3544 3216 3844 3400 
Q 4144 3584 4550 3584 
Q 5097 3584 5394 3201 
Q 5691 2819 5691 2113 
L 5691 0 
L 5113 0 
L 5113 2094 
Q 5113 2597 4934 2840 
Q 4756 3084 4391 3084 
Q 3944 3084 3684 2787 
Q 3425 2491 3425 1978 
L 3425 0 
L 2847 0 
L 2847 2094 
Q 2847 2600 2669 2842 
Q 2491 3084 2119 3084 
Q 1678 3084 1418 2786 
Q 1159 2488 1159 1978 
L 1159 0 
L 581 0 
L 581 3500 
L 1159 3500 
L 1159 2956 
Q 1356 3278 1631 3431 
Q 1906 3584 2284 3584 
Q 2666 3584 2933 3390 
Q 3200 3197 3328 2828 
z
" transform="scale(0.015625)"/>
      <path id="DejaVuSans-61" d="M 2194 1759 
Q 1497 1759 1228 1600 
Q 959 1441 959 1056 
Q 959 750 1161 570 
Q 1363 391 1709 391 
Q 2188 391 2477 730 
Q 2766 1069 2766 1631 
L 2766 1759 
L 2194 1759 
z
M 3341 1997 
L 3341 0 
L 2766 0 
L 2766 531 
Q 2569 213 2275 61 
Q 1981 -91 1556 -91 
Q 1019 -91 701 211 
Q 384 513 384 1019 
Q 384 1609 779 1909 
Q 1175 2209 1959 2209 
L 2766 2209 
L 2766 2266 
Q 2766 2663 2505 2880 
Q 2244 3097 1772 3097 
Q 1472 3097 1187 3025 
Q 903 2953 641 2809 
L 641 3341 
Q 956 3463 1253 3523 
Q 1550 3584 1831 3584 
Q 2591 3584 2966 3190 
Q 3341 2797 3341 1997 
z
" transform="scale(0.015625)"/>
      <path id="DejaVuSans-29" d="M 513 4856 
L 1013 4856 
Q 1481 4119 1714 3412 
Q 1947 2706 1947 2009 
Q 1947 1309 1714 600 
Q 1481 -109 1013 -844 
L 513 -844 
Q 928 -128 1133 580 
Q 1338 1288 1338 2009 
Q 1338 2731 1133 3434 
Q 928 4138 513 4856 
z
" transform="scale(0.015625)"/>
     </defs>
     <use xlink:href="#DejaVuSans-44"/>
     <use xlink:href="#DejaVuSans-65" x="77.001953"/>
     <use xlink:href="#DejaVuSans-74" x="138.525391"/>
     <use xlink:href="#DejaVuSans-65" x="177.734375"/>
     <use xlink:href="#DejaVuSans-63" x="239.257812"/>
     <use xlink:href="#DejaVuSans-74" x="294.238281"/>
     <use xlink:href="#DejaVuSans-65" x="333.447266"/>
     <use xlink:href="#DejaVuSans-64" x="394.970703"/>
     <use xlink:href="#DejaVuSans-20" x="458.447266"/>
     <use xlink:href="#DejaVuSans-45" x="490.234375"/>
     <use xlink:href="#DejaVuSans-2d" x="553.417969"/>
     <use xlink:href="#DejaVuSans-66" x="589.501953"/>
     <use xlink:href="#DejaVuSans-69" x="624.707031"/>
     <use xlink:href="#DejaVuSans-65" x="652.490234"/>
     <use xlink:href="#DejaVuSans-6c" x="714.013672"/>
     <use xlink:href="#DejaVuSans-64" x="741.796875"/>
     <use xlink:href="#DejaVuSans-20" x="805.273438"/>
     <use xlink:href="#DejaVuSans-28" x="837.060547"/>
     <use xlink:href="#DejaVuSans-46" x="876.074219"/>
     <use xlink:href="#DejaVuSans-72" x="926.34375"/>
     <use xlink:href="#DejaVuSans-65" x="965.207031"/>
     <use xlink:href="#DejaVuSans-71" x="1026.730469"/>
     <use xlink:href="#DejaVuSans-75" x="1090.207031"/>
     <use xlink:href="#DejaVuSans-65" x="1153.585938"/>
     <use xlink:href="#DejaVuSans-6e" x="1215.109375"/>
     <use xlink:href="#DejaVuSans-63" x="1278.488281"/>
     <use xlink:href="#DejaVuSans-79" x="1333.46875"/>
     <use xlink:href="#DejaVuSans-20" x="1392.648438"/>
     <use xlink:href="#DejaVuSans-64" x="1424.435547"/>
     <use xlink:href="#DejaVuSans-6f" x="1487.912109"/>
     <use xlink:href="#DejaVuSans-6d" x="1549.09375"/>
     <use xlink:href="#DejaVuSans-61" x="1646.505859"/>
     <use xlink:href="#DejaVuSans-69" x="1707.785156"/>
     <use xlink:href="#DejaVuSans-6e" x="1735.568359"/>
     <use xlink:href="#DejaVuSans-29" x="1798.947266"/>
    </g>
   </g>
  </g>
 </g>
 <defs>
  <clipPath id="p0a3bfce9e4">
   <rect x="57.6" y="41.472" width="357.12" height="266.112"/>
  </clipPath>
 </defs>
</svg>
