<?xml version="1.0" encoding="utf-8" standalone="no"?>
<!DOCTYPE svg PUBLIC "-//W3C//DTD SVG 1.1//EN"
  "http://www.w3.org/Graphics/SVG/1.1/DTD/svg11.dtd">
<svg xmlns:xlink="http://www.w3.org/1999/xlink" width="460.8pt" height="345.6pt" viewBox="0 0 460.8 345.6" xmlns="http://www.w3.org/2000/svg" version="1.1">
 <metadata>
  <rdf:RDF xmlns:dc="http://purl.org/dc/elements/1.1/" xmlns:cc="http://creativecommons.org/ns#" xmlns:rdf="http://www.w3.org/1999/02/22-rdf-syntax-ns#">
   <cc:Work>
    <dc:type rdf:resource="http://purl.org/dc/dcmitype/StillImage"/>
    <dc:date>2024-05-25T21:23:43.290734</dc:date>
    <dc:format>image/svg+xml</dc:format>
    <dc:creator>
     <cc:Agent>
      <dc:title>Matplotlib v3.8.3, https://matplotlib.org/</dc:title>
     </cc:Agent>
    </dc:creator>
   </cc:Work>
  </rdf:RDF>
 </metadata>
 <defs>
  <style type="text/css">*{stroke-linejoin: round; stroke-linecap: butt}</style>
 </defs>
 <g id="figure_1">
  <g id="patch_1">
   <path d="M 0 345.6 
L 460.8 345.6 
L 460.8 0 
L 0 0 
z
" style="fill: #ffffff"/>
  </g>
  <g id="axes_1">
   <g id="patch_2">
    <path d="M 57.6 307.584 
L 414.72 307.584 
L 414.72 41.472 
L 57.6 41.472 
z
" style="fill: #ffffff"/>
   </g>
   <g id="matplotlib.axis_1">
    <g id="xtick_1">
     <g id="line2d_1">
      <defs>
       <path id="mc3a00a081c" d="M 0 0 
L 0 3.5 
" style="stroke: #000000; stroke-width: 0.8"/>
      </defs>
      <g>
       <use xlink:href="#mc3a00a081c" x="57.6" y="307.584" style="stroke: #000000; stroke-width: 0.8"/>
      </g>
     </g>
     <g id="text_1">
      <!-- 0.0 -->
      <g transform="translate(49.648438 322.182437) scale(0.1 -0.1)">
       <defs>
        <path id="DejaVuSans-30" d="M 2034 4250 
Q 1547 4250 1301 3770 
Q 1056 3291 1056 2328 
Q 1056 1369 1301 889 
Q 1547 409 2034 409 
Q 2525 409 2770 889 
Q 3016 1369 3016 2328 
Q 3016 3291 2770 3770 
Q 2525 4250 2034 4250 
z
M 2034 4750 
Q 2819 4750 3233 4129 
Q 3647 3509 3647 2328 
Q 3647 1150 3233 529 
Q 2819 -91 2034 -91 
Q 1250 -91 836 529 
Q 422 1150 422 2328 
Q 422 3509 836 4129 
Q 1250 4750 2034 4750 
z
" transform="scale(0.015625)"/>
        <path id="DejaVuSans-2e" d="M 684 794 
L 1344 794 
L 1344 0 
L 684 0 
L 684 794 
z
" transform="scale(0.015625)"/>
       </defs>
       <use xlink:href="#DejaVuSans-30"/>
       <use xlink:href="#DejaVuSans-2e" x="63.623047"/>
       <use xlink:href="#DejaVuSans-30" x="95.410156"/>
      </g>
     </g>
    </g>
    <g id="xtick_2">
     <g id="line2d_2">
      <g>
       <use xlink:href="#mc3a00a081c" x="129.024" y="307.584" style="stroke: #000000; stroke-width: 0.8"/>
      </g>
     </g>
     <g id="text_2">
      <!-- 0.2 -->
      <g transform="translate(121.072438 322.182437) scale(0.1 -0.1)">
       <defs>
        <path id="DejaVuSans-32" d="M 1228 531 
L 3431 531 
L 3431 0 
L 469 0 
L 469 531 
Q 828 903 1448 1529 
Q 2069 2156 2228 2338 
Q 2531 2678 2651 2914 
Q 2772 3150 2772 3378 
Q 2772 3750 2511 3984 
Q 2250 4219 1831 4219 
Q 1534 4219 1204 4116 
Q 875 4013 500 3803 
L 500 4441 
Q 881 4594 1212 4672 
Q 1544 4750 1819 4750 
Q 2544 4750 2975 4387 
Q 3406 4025 3406 3419 
Q 3406 3131 3298 2873 
Q 3191 2616 2906 2266 
Q 2828 2175 2409 1742 
Q 1991 1309 1228 531 
z
" transform="scale(0.015625)"/>
       </defs>
       <use xlink:href="#DejaVuSans-30"/>
       <use xlink:href="#DejaVuSans-2e" x="63.623047"/>
       <use xlink:href="#DejaVuSans-32" x="95.410156"/>
      </g>
     </g>
    </g>
    <g id="xtick_3">
     <g id="line2d_3">
      <g>
       <use xlink:href="#mc3a00a081c" x="200.448" y="307.584" style="stroke: #000000; stroke-width: 0.8"/>
      </g>
     </g>
     <g id="text_3">
      <!-- 0.4 -->
      <g transform="translate(192.496438 322.182437) scale(0.1 -0.1)">
       <defs>
        <path id="DejaVuSans-34" d="M 2419 4116 
L 825 1625 
L 2419 1625 
L 2419 4116 
z
M 2253 4666 
L 3047 4666 
L 3047 1625 
L 3713 1625 
L 3713 1100 
L 3047 1100 
L 3047 0 
L 2419 0 
L 2419 1100 
L 313 1100 
L 313 1709 
L 2253 4666 
z
" transform="scale(0.015625)"/>
       </defs>
       <use xlink:href="#DejaVuSans-30"/>
       <use xlink:href="#DejaVuSans-2e" x="63.623047"/>
       <use xlink:href="#DejaVuSans-34" x="95.410156"/>
      </g>
     </g>
    </g>
    <g id="xtick_4">
     <g id="line2d_4">
      <g>
       <use xlink:href="#mc3a00a081c" x="271.872" y="307.584" style="stroke: #000000; stroke-width: 0.8"/>
      </g>
     </g>
     <g id="text_4">
      <!-- 0.6 -->
      <g transform="translate(263.920437 322.182437) scale(0.1 -0.1)">
       <defs>
        <path id="DejaVuSans-36" d="M 2113 2584 
Q 1688 2584 1439 2293 
Q 1191 2003 1191 1497 
Q 1191 994 1439 701 
Q 1688 409 2113 409 
Q 2538 409 2786 701 
Q 3034 994 3034 1497 
Q 3034 2003 2786 2293 
Q 2538 2584 2113 2584 
z
M 3366 4563 
L 3366 3988 
Q 3128 4100 2886 4159 
Q 2644 4219 2406 4219 
Q 1781 4219 1451 3797 
Q 1122 3375 1075 2522 
Q 1259 2794 1537 2939 
Q 1816 3084 2150 3084 
Q 2853 3084 3261 2657 
Q 3669 2231 3669 1497 
Q 3669 778 3244 343 
Q 2819 -91 2113 -91 
Q 1303 -91 875 529 
Q 447 1150 447 2328 
Q 447 3434 972 4092 
Q 1497 4750 2381 4750 
Q 2619 4750 2861 4703 
Q 3103 4656 3366 4563 
z
" transform="scale(0.015625)"/>
       </defs>
       <use xlink:href="#DejaVuSans-30"/>
       <use xlink:href="#DejaVuSans-2e" x="63.623047"/>
       <use xlink:href="#DejaVuSans-36" x="95.410156"/>
      </g>
     </g>
    </g>
    <g id="xtick_5">
     <g id="line2d_5">
      <g>
       <use xlink:href="#mc3a00a081c" x="343.296" y="307.584" style="stroke: #000000; stroke-width: 0.8"/>
      </g>
     </g>
     <g id="text_5">
      <!-- 0.8 -->
      <g transform="translate(335.344438 322.182437) scale(0.1 -0.1)">
       <defs>
        <path id="DejaVuSans-38" d="M 2034 2216 
Q 1584 2216 1326 1975 
Q 1069 1734 1069 1313 
Q 1069 891 1326 650 
Q 1584 409 2034 409 
Q 2484 409 2743 651 
Q 3003 894 3003 1313 
Q 3003 1734 2745 1975 
Q 2488 2216 2034 2216 
z
M 1403 2484 
Q 997 2584 770 2862 
Q 544 3141 544 3541 
Q 544 4100 942 4425 
Q 1341 4750 2034 4750 
Q 2731 4750 3128 4425 
Q 3525 4100 3525 3541 
Q 3525 3141 3298 2862 
Q 3072 2584 2669 2484 
Q 3125 2378 3379 2068 
Q 3634 1759 3634 1313 
Q 3634 634 3220 271 
Q 2806 -91 2034 -91 
Q 1263 -91 848 271 
Q 434 634 434 1313 
Q 434 1759 690 2068 
Q 947 2378 1403 2484 
z
M 1172 3481 
Q 1172 3119 1398 2916 
Q 1625 2713 2034 2713 
Q 2441 2713 2670 2916 
Q 2900 3119 2900 3481 
Q 2900 3844 2670 4047 
Q 2441 4250 2034 4250 
Q 1625 4250 1398 4047 
Q 1172 3844 1172 3481 
z
" transform="scale(0.015625)"/>
       </defs>
       <use xlink:href="#DejaVuSans-30"/>
       <use xlink:href="#DejaVuSans-2e" x="63.623047"/>
       <use xlink:href="#DejaVuSans-38" x="95.410156"/>
      </g>
     </g>
    </g>
    <g id="xtick_6">
     <g id="line2d_6">
      <g>
       <use xlink:href="#mc3a00a081c" x="414.72" y="307.584" style="stroke: #000000; stroke-width: 0.8"/>
      </g>
     </g>
     <g id="text_6">
      <!-- 1.0 -->
      <g transform="translate(406.768438 322.182437) scale(0.1 -0.1)">
       <defs>
        <path id="DejaVuSans-31" d="M 794 531 
L 1825 531 
L 1825 4091 
L 703 3866 
L 703 4441 
L 1819 4666 
L 2450 4666 
L 2450 531 
L 3481 531 
L 3481 0 
L 794 0 
L 794 531 
z
" transform="scale(0.015625)"/>
       </defs>
       <use xlink:href="#DejaVuSans-31"/>
       <use xlink:href="#DejaVuSans-2e" x="63.623047"/>
       <use xlink:href="#DejaVuSans-30" x="95.410156"/>
      </g>
     </g>
    </g>
    <g id="text_7">
     <!-- Freq -->
     <g transform="translate(225.452969 335.860562) scale(0.1 -0.1)">
      <defs>
       <path id="DejaVuSans-46" d="M 628 4666 
L 3309 4666 
L 3309 4134 
L 1259 4134 
L 1259 2759 
L 3109 2759 
L 3109 2228 
L 1259 2228 
L 1259 0 
L 628 0 
L 628 4666 
z
" transform="scale(0.015625)"/>
       <path id="DejaVuSans-72" d="M 2631 2963 
Q 2534 3019 2420 3045 
Q 2306 3072 2169 3072 
Q 1681 3072 1420 2755 
Q 1159 2438 1159 1844 
L 1159 0 
L 581 0 
L 581 3500 
L 1159 3500 
L 1159 2956 
Q 1341 3275 1631 3429 
Q 1922 3584 2338 3584 
Q 2397 3584 2469 3576 
Q 2541 3569 2628 3553 
L 2631 2963 
z
" transform="scale(0.015625)"/>
       <path id="DejaVuSans-65" d="M 3597 1894 
L 3597 1613 
L 953 1613 
Q 991 1019 1311 708 
Q 1631 397 2203 397 
Q 2534 397 2845 478 
Q 3156 559 3463 722 
L 3463 178 
Q 3153 47 2828 -22 
Q 2503 -91 2169 -91 
Q 1331 -91 842 396 
Q 353 884 353 1716 
Q 353 2575 817 3079 
Q 1281 3584 2069 3584 
Q 2775 3584 3186 3129 
Q 3597 2675 3597 1894 
z
M 3022 2063 
Q 3016 2534 2758 2815 
Q 2500 3097 2075 3097 
Q 1594 3097 1305 2825 
Q 1016 2553 972 2059 
L 3022 2063 
z
" transform="scale(0.015625)"/>
       <path id="DejaVuSans-71" d="M 947 1747 
Q 947 1113 1208 752 
Q 1469 391 1925 391 
Q 2381 391 2643 752 
Q 2906 1113 2906 1747 
Q 2906 2381 2643 2742 
Q 2381 3103 1925 3103 
Q 1469 3103 1208 2742 
Q 947 2381 947 1747 
z
M 2906 525 
Q 2725 213 2448 61 
Q 2172 -91 1784 -91 
Q 1150 -91 751 415 
Q 353 922 353 1747 
Q 353 2572 751 3078 
Q 1150 3584 1784 3584 
Q 2172 3584 2448 3432 
Q 2725 3281 2906 2969 
L 2906 3500 
L 3481 3500 
L 3481 -1331 
L 2906 -1331 
L 2906 525 
z
" transform="scale(0.015625)"/>
      </defs>
      <use xlink:href="#DejaVuSans-46"/>
      <use xlink:href="#DejaVuSans-72" x="50.269531"/>
      <use xlink:href="#DejaVuSans-65" x="89.132812"/>
      <use xlink:href="#DejaVuSans-71" x="150.65625"/>
     </g>
    </g>
    <g id="text_8">
     <!-- 1e13 -->
     <g transform="translate(389.479375 334.860562) scale(0.1 -0.1)">
      <defs>
       <path id="DejaVuSans-33" d="M 2597 2516 
Q 3050 2419 3304 2112 
Q 3559 1806 3559 1356 
Q 3559 666 3084 287 
Q 2609 -91 1734 -91 
Q 1441 -91 1130 -33 
Q 819 25 488 141 
L 488 750 
Q 750 597 1062 519 
Q 1375 441 1716 441 
Q 2309 441 2620 675 
Q 2931 909 2931 1356 
Q 2931 1769 2642 2001 
Q 2353 2234 1838 2234 
L 1294 2234 
L 1294 2753 
L 1863 2753 
Q 2328 2753 2575 2939 
Q 2822 3125 2822 3475 
Q 2822 3834 2567 4026 
Q 2313 4219 1838 4219 
Q 1578 4219 1281 4162 
Q 984 4106 628 3988 
L 628 4550 
Q 988 4650 1302 4700 
Q 1616 4750 1894 4750 
Q 2613 4750 3031 4423 
Q 3450 4097 3450 3541 
Q 3450 3153 3228 2886 
Q 3006 2619 2597 2516 
z
" transform="scale(0.015625)"/>
      </defs>
      <use xlink:href="#DejaVuSans-31"/>
      <use xlink:href="#DejaVuSans-65" x="63.623047"/>
      <use xlink:href="#DejaVuSans-31" x="125.146484"/>
      <use xlink:href="#DejaVuSans-33" x="188.769531"/>
     </g>
    </g>
   </g>
   <g id="matplotlib.axis_2">
    <g id="ytick_1">
     <g id="line2d_7">
      <defs>
       <path id="m02883ecb03" d="M 0 0 
L -3.5 0 
" style="stroke: #000000; stroke-width: 0.8"/>
      </defs>
      <g>
       <use xlink:href="#m02883ecb03" x="57.6" y="301.720137" style="stroke: #000000; stroke-width: 0.8"/>
      </g>
     </g>
     <g id="text_9">
      <!-- $\mathdefault{10^{-4}}$ -->
      <g transform="translate(27.1 305.519356) scale(0.1 -0.1)">
       <defs>
        <path id="DejaVuSans-2212" d="M 678 2272 
L 4684 2272 
L 4684 1741 
L 678 1741 
L 678 2272 
z
" transform="scale(0.015625)"/>
       </defs>
       <use xlink:href="#DejaVuSans-31" transform="translate(0 0.684375)"/>
       <use xlink:href="#DejaVuSans-30" transform="translate(63.623047 0.684375)"/>
       <use xlink:href="#DejaVuSans-2212" transform="translate(128.203125 38.965625) scale(0.7)"/>
       <use xlink:href="#DejaVuSans-34" transform="translate(186.855469 38.965625) scale(0.7)"/>
      </g>
     </g>
    </g>
    <g id="ytick_2">
     <g id="line2d_8">
      <g>
       <use xlink:href="#m02883ecb03" x="57.6" y="241.211808" style="stroke: #000000; stroke-width: 0.8"/>
      </g>
     </g>
     <g id="text_10">
      <!-- $\mathdefault{10^{-3}}$ -->
      <g transform="translate(27.1 245.011027) scale(0.1 -0.1)">
       <use xlink:href="#DejaVuSans-31" transform="translate(0 0.765625)"/>
       <use xlink:href="#DejaVuSans-30" transform="translate(63.623047 0.765625)"/>
       <use xlink:href="#DejaVuSans-2212" transform="translate(128.203125 39.046875) scale(0.7)"/>
       <use xlink:href="#DejaVuSans-33" transform="translate(186.855469 39.046875) scale(0.7)"/>
      </g>
     </g>
    </g>
    <g id="ytick_3">
     <g id="line2d_9">
      <g>
       <use xlink:href="#m02883ecb03" x="57.6" y="180.70348" style="stroke: #000000; stroke-width: 0.8"/>
      </g>
     </g>
     <g id="text_11">
      <!-- $\mathdefault{10^{-2}}$ -->
      <g transform="translate(27.1 184.502698) scale(0.1 -0.1)">
       <use xlink:href="#DejaVuSans-31" transform="translate(0 0.765625)"/>
       <use xlink:href="#DejaVuSans-30" transform="translate(63.623047 0.765625)"/>
       <use xlink:href="#DejaVuSans-2212" transform="translate(128.203125 39.046875) scale(0.7)"/>
       <use xlink:href="#DejaVuSans-32" transform="translate(186.855469 39.046875) scale(0.7)"/>
      </g>
     </g>
    </g>
    <g id="ytick_4">
     <g id="line2d_10">
      <g>
       <use xlink:href="#m02883ecb03" x="57.6" y="120.195151" style="stroke: #000000; stroke-width: 0.8"/>
      </g>
     </g>
     <g id="text_12">
      <!-- $\mathdefault{10^{-1}}$ -->
      <g transform="translate(27.1 123.994369) scale(0.1 -0.1)">
       <use xlink:href="#DejaVuSans-31" transform="translate(0 0.684375)"/>
       <use xlink:href="#DejaVuSans-30" transform="translate(63.623047 0.684375)"/>
       <use xlink:href="#DejaVuSans-2212" transform="translate(128.203125 38.965625) scale(0.7)"/>
       <use xlink:href="#DejaVuSans-31" transform="translate(186.855469 38.965625) scale(0.7)"/>
      </g>
     </g>
    </g>
    <g id="ytick_5">
     <g id="line2d_11">
      <g>
       <use xlink:href="#m02883ecb03" x="57.6" y="59.686822" style="stroke: #000000; stroke-width: 0.8"/>
      </g>
     </g>
     <g id="text_13">
      <!-- $\mathdefault{10^{0}}$ -->
      <g transform="translate(33 63.486041) scale(0.1 -0.1)">
       <use xlink:href="#DejaVuSans-31" transform="translate(0 0.765625)"/>
       <use xlink:href="#DejaVuSans-30" transform="translate(63.623047 0.765625)"/>
       <use xlink:href="#DejaVuSans-30" transform="translate(128.203125 39.046875) scale(0.7)"/>
      </g>
     </g>
    </g>
    <g id="ytick_6">
     <g id="line2d_12">
      <defs>
       <path id="m3293c87496" d="M 0 0 
L -2 0 
" style="stroke: #000000; stroke-width: 0.6"/>
      </defs>
      <g>
       <use xlink:href="#m3293c87496" x="57.6" y="307.584" style="stroke: #000000; stroke-width: 0.6"/>
      </g>
     </g>
    </g>
    <g id="ytick_7">
     <g id="line2d_13">
      <g>
       <use xlink:href="#m3293c87496" x="57.6" y="304.488846" style="stroke: #000000; stroke-width: 0.6"/>
      </g>
     </g>
    </g>
    <g id="ytick_8">
     <g id="line2d_14">
      <g>
       <use xlink:href="#m3293c87496" x="57.6" y="283.505315" style="stroke: #000000; stroke-width: 0.6"/>
      </g>
     </g>
    </g>
    <g id="ytick_9">
     <g id="line2d_15">
      <g>
       <use xlink:href="#m3293c87496" x="57.6" y="272.850327" style="stroke: #000000; stroke-width: 0.6"/>
      </g>
     </g>
    </g>
    <g id="ytick_10">
     <g id="line2d_16">
      <g>
       <use xlink:href="#m3293c87496" x="57.6" y="265.290493" style="stroke: #000000; stroke-width: 0.6"/>
      </g>
     </g>
    </g>
    <g id="ytick_11">
     <g id="line2d_17">
      <g>
       <use xlink:href="#m3293c87496" x="57.6" y="259.42663" style="stroke: #000000; stroke-width: 0.6"/>
      </g>
     </g>
    </g>
    <g id="ytick_12">
     <g id="line2d_18">
      <g>
       <use xlink:href="#m3293c87496" x="57.6" y="254.635505" style="stroke: #000000; stroke-width: 0.6"/>
      </g>
     </g>
    </g>
    <g id="ytick_13">
     <g id="line2d_19">
      <g>
       <use xlink:href="#m3293c87496" x="57.6" y="250.584667" style="stroke: #000000; stroke-width: 0.6"/>
      </g>
     </g>
    </g>
    <g id="ytick_14">
     <g id="line2d_20">
      <g>
       <use xlink:href="#m3293c87496" x="57.6" y="247.075671" style="stroke: #000000; stroke-width: 0.6"/>
      </g>
     </g>
    </g>
    <g id="ytick_15">
     <g id="line2d_21">
      <g>
       <use xlink:href="#m3293c87496" x="57.6" y="243.980518" style="stroke: #000000; stroke-width: 0.6"/>
      </g>
     </g>
    </g>
    <g id="ytick_16">
     <g id="line2d_22">
      <g>
       <use xlink:href="#m3293c87496" x="57.6" y="222.996986" style="stroke: #000000; stroke-width: 0.6"/>
      </g>
     </g>
    </g>
    <g id="ytick_17">
     <g id="line2d_23">
      <g>
       <use xlink:href="#m3293c87496" x="57.6" y="212.341999" style="stroke: #000000; stroke-width: 0.6"/>
      </g>
     </g>
    </g>
    <g id="ytick_18">
     <g id="line2d_24">
      <g>
       <use xlink:href="#m3293c87496" x="57.6" y="204.782164" style="stroke: #000000; stroke-width: 0.6"/>
      </g>
     </g>
    </g>
    <g id="ytick_19">
     <g id="line2d_25">
      <g>
       <use xlink:href="#m3293c87496" x="57.6" y="198.918301" style="stroke: #000000; stroke-width: 0.6"/>
      </g>
     </g>
    </g>
    <g id="ytick_20">
     <g id="line2d_26">
      <g>
       <use xlink:href="#m3293c87496" x="57.6" y="194.127177" style="stroke: #000000; stroke-width: 0.6"/>
      </g>
     </g>
    </g>
    <g id="ytick_21">
     <g id="line2d_27">
      <g>
       <use xlink:href="#m3293c87496" x="57.6" y="190.076338" style="stroke: #000000; stroke-width: 0.6"/>
      </g>
     </g>
    </g>
    <g id="ytick_22">
     <g id="line2d_28">
      <g>
       <use xlink:href="#m3293c87496" x="57.6" y="186.567342" style="stroke: #000000; stroke-width: 0.6"/>
      </g>
     </g>
    </g>
    <g id="ytick_23">
     <g id="line2d_29">
      <g>
       <use xlink:href="#m3293c87496" x="57.6" y="183.472189" style="stroke: #000000; stroke-width: 0.6"/>
      </g>
     </g>
    </g>
    <g id="ytick_24">
     <g id="line2d_30">
      <g>
       <use xlink:href="#m3293c87496" x="57.6" y="162.488658" style="stroke: #000000; stroke-width: 0.6"/>
      </g>
     </g>
    </g>
    <g id="ytick_25">
     <g id="line2d_31">
      <g>
       <use xlink:href="#m3293c87496" x="57.6" y="151.83367" style="stroke: #000000; stroke-width: 0.6"/>
      </g>
     </g>
    </g>
    <g id="ytick_26">
     <g id="line2d_32">
      <g>
       <use xlink:href="#m3293c87496" x="57.6" y="144.273836" style="stroke: #000000; stroke-width: 0.6"/>
      </g>
     </g>
    </g>
    <g id="ytick_27">
     <g id="line2d_33">
      <g>
       <use xlink:href="#m3293c87496" x="57.6" y="138.409973" style="stroke: #000000; stroke-width: 0.6"/>
      </g>
     </g>
    </g>
    <g id="ytick_28">
     <g id="line2d_34">
      <g>
       <use xlink:href="#m3293c87496" x="57.6" y="133.618848" style="stroke: #000000; stroke-width: 0.6"/>
      </g>
     </g>
    </g>
    <g id="ytick_29">
     <g id="line2d_35">
      <g>
       <use xlink:href="#m3293c87496" x="57.6" y="129.568009" style="stroke: #000000; stroke-width: 0.6"/>
      </g>
     </g>
    </g>
    <g id="ytick_30">
     <g id="line2d_36">
      <g>
       <use xlink:href="#m3293c87496" x="57.6" y="126.059014" style="stroke: #000000; stroke-width: 0.6"/>
      </g>
     </g>
    </g>
    <g id="ytick_31">
     <g id="line2d_37">
      <g>
       <use xlink:href="#m3293c87496" x="57.6" y="122.96386" style="stroke: #000000; stroke-width: 0.6"/>
      </g>
     </g>
    </g>
    <g id="ytick_32">
     <g id="line2d_38">
      <g>
       <use xlink:href="#m3293c87496" x="57.6" y="101.980329" style="stroke: #000000; stroke-width: 0.6"/>
      </g>
     </g>
    </g>
    <g id="ytick_33">
     <g id="line2d_39">
      <g>
       <use xlink:href="#m3293c87496" x="57.6" y="91.325341" style="stroke: #000000; stroke-width: 0.6"/>
      </g>
     </g>
    </g>
    <g id="ytick_34">
     <g id="line2d_40">
      <g>
       <use xlink:href="#m3293c87496" x="57.6" y="83.765507" style="stroke: #000000; stroke-width: 0.6"/>
      </g>
     </g>
    </g>
    <g id="ytick_35">
     <g id="line2d_41">
      <g>
       <use xlink:href="#m3293c87496" x="57.6" y="77.901644" style="stroke: #000000; stroke-width: 0.6"/>
      </g>
     </g>
    </g>
    <g id="ytick_36">
     <g id="line2d_42">
      <g>
       <use xlink:href="#m3293c87496" x="57.6" y="73.110519" style="stroke: #000000; stroke-width: 0.6"/>
      </g>
     </g>
    </g>
    <g id="ytick_37">
     <g id="line2d_43">
      <g>
       <use xlink:href="#m3293c87496" x="57.6" y="69.059681" style="stroke: #000000; stroke-width: 0.6"/>
      </g>
     </g>
    </g>
    <g id="ytick_38">
     <g id="line2d_44">
      <g>
       <use xlink:href="#m3293c87496" x="57.6" y="65.550685" style="stroke: #000000; stroke-width: 0.6"/>
      </g>
     </g>
    </g>
    <g id="ytick_39">
     <g id="line2d_45">
      <g>
       <use xlink:href="#m3293c87496" x="57.6" y="62.455531" style="stroke: #000000; stroke-width: 0.6"/>
      </g>
     </g>
    </g>
    <g id="ytick_40">
     <g id="line2d_46">
      <g>
       <use xlink:href="#m3293c87496" x="57.6" y="41.472" style="stroke: #000000; stroke-width: 0.6"/>
      </g>
     </g>
    </g>
    <g id="text_14">
     <!-- E field ^2 -->
     <g transform="translate(21.020312 199.025656) rotate(-90) scale(0.1 -0.1)">
      <defs>
       <path id="DejaVuSans-45" d="M 628 4666 
L 3578 4666 
L 3578 4134 
L 1259 4134 
L 1259 2753 
L 3481 2753 
L 3481 2222 
L 1259 2222 
L 1259 531 
L 3634 531 
L 3634 0 
L 628 0 
L 628 4666 
z
" transform="scale(0.015625)"/>
       <path id="DejaVuSans-20" transform="scale(0.015625)"/>
       <path id="DejaVuSans-66" d="M 2375 4863 
L 2375 4384 
L 1825 4384 
Q 1516 4384 1395 4259 
Q 1275 4134 1275 3809 
L 1275 3500 
L 2222 3500 
L 2222 3053 
L 1275 3053 
L 1275 0 
L 697 0 
L 697 3053 
L 147 3053 
L 147 3500 
L 697 3500 
L 697 3744 
Q 697 4328 969 4595 
Q 1241 4863 1831 4863 
L 2375 4863 
z
" transform="scale(0.015625)"/>
       <path id="DejaVuSans-69" d="M 603 3500 
L 1178 3500 
L 1178 0 
L 603 0 
L 603 3500 
z
M 603 4863 
L 1178 4863 
L 1178 4134 
L 603 4134 
L 603 4863 
z
" transform="scale(0.015625)"/>
       <path id="DejaVuSans-6c" d="M 603 4863 
L 1178 4863 
L 1178 0 
L 603 0 
L 603 4863 
z
" transform="scale(0.015625)"/>
       <path id="DejaVuSans-64" d="M 2906 2969 
L 2906 4863 
L 3481 4863 
L 3481 0 
L 2906 0 
L 2906 525 
Q 2725 213 2448 61 
Q 2172 -91 1784 -91 
Q 1150 -91 751 415 
Q 353 922 353 1747 
Q 353 2572 751 3078 
Q 1150 3584 1784 3584 
Q 2172 3584 2448 3432 
Q 2725 3281 2906 2969 
z
M 947 1747 
Q 947 1113 1208 752 
Q 1469 391 1925 391 
Q 2381 391 2643 752 
Q 2906 1113 2906 1747 
Q 2906 2381 2643 2742 
Q 2381 3103 1925 3103 
Q 1469 3103 1208 2742 
Q 947 2381 947 1747 
z
" transform="scale(0.015625)"/>
       <path id="DejaVuSans-5e" d="M 2988 4666 
L 4684 2925 
L 4056 2925 
L 2681 4159 
L 1306 2925 
L 678 2925 
L 2375 4666 
L 2988 4666 
z
" transform="scale(0.015625)"/>
      </defs>
      <use xlink:href="#DejaVuSans-45"/>
      <use xlink:href="#DejaVuSans-20" x="63.183594"/>
      <use xlink:href="#DejaVuSans-66" x="94.970703"/>
      <use xlink:href="#DejaVuSans-69" x="130.175781"/>
      <use xlink:href="#DejaVuSans-65" x="157.958984"/>
      <use xlink:href="#DejaVuSans-6c" x="219.482422"/>
      <use xlink:href="#DejaVuSans-64" x="247.265625"/>
      <use xlink:href="#DejaVuSans-20" x="310.742188"/>
      <use xlink:href="#DejaVuSans-5e" x="342.529297"/>
      <use xlink:href="#DejaVuSans-32" x="426.318359"/>
     </g>
    </g>
   </g>
   <g id="line2d_47">
    <path d="M 66.20932 346.6 
L 67.590681 315.50345 
L 69.017875 288.213442 
L 70.480749 264.374152 
L 71.943624 244.112931 
L 73.335138 227.838693 
L 74.619613 215.278809 
L 75.797048 205.813697 
L 76.867444 198.926736 
L 77.79512 194.307036 
L 78.615757 191.278139 
L 79.329354 189.44453 
L 79.935911 188.445284 
L 80.471109 187.949909 
L 81.006307 187.753602 
L 81.684224 187.777522 
L 82.504861 187.790041 
L 82.933019 187.556866 
L 83.325498 187.065883 
L 83.753656 186.130617 
L 84.253174 184.426481 
L 84.859731 181.460767 
L 85.716048 175.977791 
L 88.035239 160.52102 
L 88.855875 156.768975 
L 89.498113 154.7515 
L 90.06899 153.630273 
L 90.568508 153.1164 
L 91.032346 152.952387 
L 91.638904 153.009381 
L 92.352501 153.044141 
L 92.74498 152.826624 
L 93.137458 152.311152 
L 93.565616 151.329476 
L 94.100814 149.460373 
L 94.850091 145.894488 
L 96.669764 136.90596 
L 97.312001 134.875762 
L 97.847199 133.840094 
L 98.311037 133.393358 
L 98.739195 133.27756 
L 99.381433 133.386547 
L 99.95231 133.400672 
L 100.309109 133.187505 
L 100.665908 132.708833 
L 101.094066 131.728868 
L 101.664944 129.775999 
L 103.984134 120.945853 
L 104.483652 120.138759 
L 104.91181 119.840736 
L 105.339969 119.815441 
L 106.446044 119.911773 
L 106.802843 119.614215 
L 107.195321 118.948337 
L 107.694839 117.584134 
L 108.551156 114.425106 
L 109.443152 111.417687 
L 109.97835 110.292987 
L 110.406508 109.83715 
L 110.798987 109.718577 
L 111.334185 109.829731 
L 111.940742 109.901451 
L 112.297541 109.695864 
L 112.654339 109.206365 
L 113.118177 108.128082 
L 113.903134 105.57627 
L 114.759451 103.023468 
L 115.258969 102.145824 
L 115.651447 101.834229 
L 116.043926 101.795383 
L 117.221361 101.910813 
L 117.578159 101.550983 
L 118.006318 100.726763 
L 118.648555 98.901906 
L 119.611911 96.265971 
L 120.075749 95.572125 
L 120.468228 95.346627 
L 120.860706 95.375796 
L 121.752703 95.548593 
L 122.073821 95.341457 
L 122.43062 94.830808 
L 122.930138 93.673891 
L 124.214613 90.504844 
L 124.642771 90.057268 
L 124.999569 89.972429 
L 125.499087 90.11907 
L 126.034285 90.222576 
L 126.355404 90.065269 
L 126.712202 89.612802 
L 127.21172 88.540679 
L 128.389156 85.874536 
L 128.781634 85.505814 
L 129.138433 85.446113 
L 129.70931 85.644687 
L 130.173149 85.700772 
L 130.494267 85.508248 
L 130.851066 85.014059 
L 131.421943 83.761561 
L 132.24258 82.039281 
L 132.670738 81.626442 
L 133.027537 81.576613 
L 133.598415 81.791408 
L 134.026573 81.85 
L 134.347692 81.667151 
L 134.70449 81.18491 
L 135.311048 79.905828 
L 135.988965 78.619094 
L 136.381443 78.27562 
L 136.738242 78.244806 
L 137.915677 78.436501 
L 138.272476 78.043164 
L 138.807674 77.026545 
L 139.556951 75.663318 
L 139.949429 75.361024 
L 140.306228 75.364605 
L 141.376623 75.592618 
L 141.697742 75.290521 
L 142.16158 74.502145 
L 143.017897 73.044826 
L 143.374695 72.825371 
L 143.731494 72.864776 
L 144.65917 73.130454 
L 144.980289 72.893272 
L 145.408447 72.246439 
L 146.336123 70.775172 
L 146.692922 70.615233 
L 147.04972 70.701503 
L 147.834677 70.968293 
L 148.155796 70.780723 
L 148.548274 70.251418 
L 149.54731 68.791121 
L 149.904109 68.697589 
L 150.332267 68.870323 
L 150.903145 69.075193 
L 151.224264 68.931769 
L 151.616742 68.451024 
L 152.615778 67.088572 
L 152.936897 67.025229 
L 153.365055 67.210683 
L 153.900253 67.421198 
L 154.221371 67.298155 
L 154.61385 66.842932 
L 155.541526 65.63409 
L 155.862645 65.570322 
L 156.255123 65.740921 
L 156.826001 65.985583 
L 157.14712 65.86629 
L 157.539598 65.420806 
L 158.395915 64.36806 
L 158.717033 64.314947 
L 159.109512 64.499096 
L 159.680389 64.74769 
L 160.001508 64.621462 
L 160.393987 64.177382 
L 161.143264 63.295968 
L 161.464382 63.233857 
L 161.856861 63.41866 
L 162.427738 63.689601 
L 162.748857 63.577983 
L 163.141335 63.153881 
L 163.854933 62.367263 
L 164.176051 62.323861 
L 164.56853 62.527852 
L 165.139407 62.796995 
L 165.460526 62.672269 
L 165.888684 62.201721 
L 166.495242 61.593008 
L 166.816361 61.566257 
L 167.244519 61.813994 
L 167.744037 62.056623 
L 168.065156 61.94907 
L 168.493314 61.502748 
L 169.064192 60.964509 
L 169.38531 60.948829 
L 169.813469 61.211857 
L 170.312986 61.459737 
L 170.634105 61.349294 
L 171.097943 60.873269 
L 171.597461 60.460683 
L 171.91858 60.473738 
L 172.382418 60.789871 
L 172.810576 60.99673 
L 173.131695 60.893482 
L 173.631213 60.400761 
L 174.095051 60.081651 
L 174.41617 60.138042 
L 175.486566 60.615698 
L 175.879044 60.295321 
L 176.449922 59.846298 
L 176.77104 59.880009 
L 177.234879 60.22914 
L 177.663037 60.449339 
L 177.984156 60.348104 
L 179.054551 59.730319 
L 179.44703 60.003181 
L 179.982227 60.350752 
L 180.303346 60.27576 
L 181.373742 59.726082 
L 181.76622 60.022118 
L 182.301418 60.372166 
L 182.622537 60.289855 
L 183.585893 59.806094 
L 183.942691 60.057123 
L 184.549249 60.501271 
L 184.870368 60.433103 
L 185.798044 60.009496 
L 186.154843 60.271429 
L 186.7614 60.740925 
L 187.082519 60.683579 
L 187.938835 60.307735 
L 188.259954 60.524949 
L 188.973551 61.09722 
L 189.29467 61.023442 
L 190.043947 60.713418 
L 190.365066 60.919723 
L 191.150022 61.561239 
L 191.471141 61.472957 
L 192.113379 61.226019 
L 192.434497 61.419663 
L 193.290814 62.13329 
L 193.647612 62.014981 
L 194.14713 61.845986 
L 194.432569 61.992039 
L 195.467285 62.806822 
L 196.394961 62.675066 
L 196.78744 63.104589 
L 197.286958 63.580771 
L 197.608076 63.578618 
L 198.285994 63.4548 
L 198.607112 63.735557 
L 199.356389 64.505575 
L 199.677508 64.475218 
L 200.212706 64.392436 
L 200.498145 64.609259 
L 201.425821 65.545694 
L 201.853979 65.453526 
L 202.175098 65.471864 
L 202.460537 65.714233 
L 203.388213 66.69515 
L 204.315889 66.845174 
L 205.421965 67.972185 
L 206.028522 68.006108 
L 206.349641 68.364017 
L 207.098918 69.339826 
L 207.455717 69.372462 
L 207.848195 69.423368 
L 208.133634 69.708348 
L 209.09699 70.920713 
L 209.846267 71.13802 
L 210.238745 71.758044 
L 210.773943 72.526444 
L 211.130742 72.630416 
L 211.52322 72.735862 
L 211.808659 73.070022 
L 212.772015 74.446908 
L 213.449932 74.738832 
L 213.806731 75.349719 
L 214.413288 76.352284 
L 214.770087 76.497896 
L 215.126886 76.671829 
L 215.448004 77.150466 
L 216.268641 78.569111 
L 217.089278 79.169603 
L 218.231033 81.024391 
L 218.623512 81.275451 
L 218.94463 81.830803 
L 219.765267 83.457533 
L 220.550224 84.211745 
L 221.656299 86.339974 
L 222.084458 86.731799 
L 222.405576 87.431261 
L 223.154853 89.164889 
L 223.93981 90.134008 
L 225.045886 92.605822 
L 225.438364 93.085699 
L 225.795163 94.03337 
L 226.4374 95.814459 
L 227.365076 97.432896 
L 228.150033 99.72838 
L 228.82795 100.848 
L 229.327468 102.669842 
L 229.755627 103.847207 
L 230.469224 105.207212 
L 231.646659 108.838056 
L 231.967778 109.551069 
L 232.360256 111.149467 
L 232.895454 113.212417 
L 233.75177 115.471115 
L 234.608087 119.002573 
L 235.107605 120.243571 
L 235.500083 122.197883 
L 236.070961 124.844803 
L 236.784558 127.079515 
L 237.854954 132.285232 
L 238.176073 133.379592 
L 238.532871 135.562668 
L 239.139429 139.251919 
L 239.853026 142.220598 
L 240.887742 148.877242 
L 241.20886 150.349368 
L 241.565659 153.302528 
L 242.172216 158.28966 
L 242.814454 161.885688 
L 243.385332 168.290497 
L 243.77781 171.189168 
L 244.205968 173.971478 
L 244.562767 178.521735 
L 245.169324 186.064153 
L 245.704522 190.57063 
L 246.061321 196.841439 
L 246.632198 206.588457 
L 247.167396 212.982084 
L 247.488515 221.25694 
L 248.166432 239.51735 
L 248.558911 247.168744 
L 248.84435 258.876101 
L 249.236828 286.850425 
L 249.700666 317.838817 
L 249.879065 321.535625 
L 249.914745 321.446456 
L 250.021785 319.060788 
L 250.235864 306.187128 
L 250.735382 276.887351 
L 251.12786 267.31472 
L 251.413299 258.144998 
L 252.126896 232.291278 
L 252.448015 228.428135 
L 252.733454 225.268066 
L 253.090252 217.72284 
L 253.554091 209.259882 
L 253.875209 207.148446 
L 254.124968 205.54389 
L 254.410407 201.869234 
L 254.945605 194.899844 
L 255.231044 193.663064 
L 255.480803 192.749773 
L 255.730562 190.700553 
L 256.408479 184.53084 
L 256.693918 183.956551 
L 256.872317 183.470734 
L 257.122076 181.894189 
L 257.728634 177.486228 
L 257.978393 177.123287 
L 258.192472 176.890235 
L 258.370871 176.260878 
L 258.763349 173.628325 
L 259.084468 172.182323 
L 259.298547 172.02281 
L 259.548306 171.963588 
L 259.726706 171.515828 
L 260.083504 169.601544 
L 260.404623 168.386123 
L 260.583022 168.309249 
L 260.939821 168.420427 
L 261.11822 168.010895 
L 261.831817 165.720793 
L 262.045896 165.953552 
L 262.295655 166.108103 
L 262.438375 165.88265 
L 262.795173 164.626926 
L 263.044932 164.135076 
L 263.187652 164.204743 
L 263.68717 164.810081 
L 263.722849 164.771969 
L 263.936929 164.272313 
L 264.293727 163.45218 
L 264.436447 163.497932 
L 264.650526 163.944932 
L 264.971644 164.5078 
L 265.114364 164.409969 
L 265.649562 163.602431 
L 265.685242 163.63535 
L 265.863641 164.013786 
L 266.327479 165.084349 
L 266.470198 164.997723 
L 266.898357 164.556616 
L 267.041076 164.789989 
L 267.718993 166.549767 
L 267.790353 166.510626 
L 268.147152 166.324595 
L 268.325551 166.689619 
L 269.074828 168.931009 
L 269.395947 168.935136 
L 269.574346 169.358954 
L 269.931144 171.12438 
L 270.252263 172.188809 
L 270.502022 172.31793 
L 270.680421 172.51635 
L 270.894501 173.29093 
L 271.608098 176.609472 
L 271.964896 177.165207 
L 272.214655 178.450144 
L 272.821213 181.995276 
L 273.285051 183.246794 
L 273.60617 185.710531 
L 274.034328 188.65793 
L 274.569526 190.757357 
L 274.962004 194.656621 
L 275.318803 197.258598 
L 275.746961 199.298654 
L 276.06808 202.908046 
L 276.531918 207.776009 
L 277.031436 211.201042 
L 277.423914 217.345458 
L 277.816393 221.918279 
L 278.173191 224.946871 
L 278.45863 230.098376 
L 279.029508 240.726682 
L 279.421986 245.793275 
L 279.707425 253.841019 
L 280.278303 270.18038 
L 280.599421 276.892571 
L 280.84918 287.962701 
L 281.812536 339.603542 
L 281.883896 340.073428 
L 281.919576 339.93578 
L 282.026616 337.853467 
L 282.882932 305.76569 
L 283.667889 270.981619 
L 284.238767 261.367373 
L 284.773965 248.452338 
L 285.059403 246.368228 
L 285.273482 244.526973 
L 285.594601 238.913781 
L 285.9514 233.958872 
L 286.201159 232.960069 
L 286.379558 232.257755 
L 286.593637 230.210585 
L 287.128835 224.45794 
L 287.342914 224.094313 
L 287.485634 223.9258 
L 287.628353 223.336295 
L 287.913792 220.754068 
L 288.234911 218.410362 
L 288.41331 218.226103 
L 288.663069 218.340494 
L 288.805788 217.938609 
L 289.091227 215.968223 
L 289.376666 214.571461 
L 289.483705 214.550776 
L 289.697785 214.986879 
L 289.840504 215.145253 
L 289.876184 215.121916 
L 290.018903 214.730388 
L 290.518421 212.707401 
L 290.554101 212.729848 
L 290.696821 213.072751 
L 291.053619 213.973413 
L 291.160659 213.793133 
L 291.588817 212.556173 
L 291.624497 212.58056 
L 291.767216 212.970058 
L 292.231054 214.682319 
L 292.338094 214.561497 
L 292.659213 214.001129 
L 292.694893 214.033215 
L 292.837612 214.471645 
L 293.44417 217.231383 
L 293.479849 217.211746 
L 293.729608 217.070316 
L 293.836648 217.306919 
L 294.050727 218.617985 
L 294.514565 221.655386 
L 294.764324 221.8523 
L 294.907044 222.214176 
L 295.121123 223.754295 
L 295.656321 228.295212 
L 296.048799 229.662821 
L 296.298558 232.454791 
L 296.762396 237.499525 
L 297.154875 239.755235 
L 297.440313 244.198251 
L 297.868472 250.298881 
L 298.26095 253.827499 
L 298.546389 260.122734 
L 298.974547 268.732735 
L 299.331346 273.57555 
L 299.616785 282.80407 
L 300.116303 298.867045 
L 300.401741 305.612557 
L 300.6515 318.87085 
L 300.97593 346.6 
M 301.861015 346.6 
L 302.185734 335.153451 
L 302.435493 326.493209 
L 303.14909 294.269973 
L 303.648608 285.791454 
L 304.148126 273.315136 
L 304.433565 271.57163 
L 304.611964 269.848218 
L 305.361241 259.943328 
L 305.539641 259.647615 
L 305.68236 258.70878 
L 306.324598 252.636126 
L 306.360277 252.659628 
L 306.574357 252.929701 
L 306.610036 252.897653 
L 306.717076 252.522601 
L 306.966835 250.34218 
L 307.252274 248.650886 
L 307.323633 248.690835 
L 307.502033 249.320824 
L 307.680432 249.779088 
L 307.716112 249.757477 
L 307.823151 249.422741 
L 308.25131 247.416811 
L 308.28699 247.466432 
L 308.429709 248.083061 
L 308.786508 249.773746 
L 308.893547 249.588834 
L 309.178986 248.704994 
L 309.214666 248.717039 
L 309.321705 249.043928 
L 309.571464 251.10555 
L 309.856903 252.762637 
L 309.963943 252.72435 
L 310.142342 252.540744 
L 310.178022 252.577996 
L 310.285062 252.970502 
L 310.499141 255.062816 
L 310.891619 258.874996 
L 311.284097 260.076903 
L 311.498177 262.913297 
L 311.926335 268.782959 
L 312.283133 271.013557 
L 312.532892 275.803962 
L 312.961051 284.038893 
L 313.282169 287.533867 
L 313.531928 294.598929 
L 314.031446 309.07724 
L 314.281205 314.034183 
L 314.530964 325.792832 
L 314.829104 346.6 
M 316.370465 346.6 
L 316.707436 326.562105 
L 316.992874 321.206303 
L 317.206954 316.542064 
L 317.849191 298.410652 
L 318.17031 295.898812 
L 318.883907 285.132248 
L 319.026626 285.069078 
L 319.133666 284.516103 
L 319.347745 281.672138 
L 319.668864 278.137731 
L 319.740223 278.083664 
L 319.775903 278.144777 
L 320.025662 278.94117 
L 320.097022 278.847703 
L 320.239741 277.900721 
L 320.59654 275.205213 
L 320.6679 275.317961 
L 320.846299 276.470273 
L 321.096058 277.606312 
L 321.203097 277.249433 
L 321.488536 275.963206 
L 321.524216 276.005376 
L 321.631256 276.549275 
L 322.130774 280.669531 
L 322.202133 280.560542 
L 322.344853 280.297029 
L 322.380533 280.314556 
L 322.487572 280.755845 
L 322.665972 282.930685 
L 323.09413 288.387398 
L 323.379569 289.369123 
L 323.557968 292.051732 
L 324.128846 302.398577 
L 324.307245 304.014554 
L 324.521324 309.167519 
L 325.092202 325.889827 
L 325.306281 330.381788 
L 325.52036 340.937188 
L 325.601264 346.6 
M 327.498652 346.6 
L 327.732511 340.354689 
L 327.98227 336.152865 
L 328.731547 316.30865 
L 328.874266 315.462497 
L 329.052666 312.188548 
L 329.445144 304.682895 
L 329.516504 304.498729 
L 329.552184 304.523055 
L 329.730583 304.949173 
L 329.801943 304.822751 
L 329.944662 303.485663 
L 330.337141 298.961763 
L 330.4085 299.116365 
L 330.729619 301.105371 
L 330.800979 300.957075 
L 331.015058 299.165169 
L 331.157777 298.422279 
L 331.193457 298.444033 
L 331.300497 299.068942 
L 331.728655 303.299799 
L 331.800015 303.14803 
L 331.978414 302.572486 
L 332.014094 302.601438 
L 332.121133 303.249753 
L 332.335213 306.97348 
L 332.656331 311.697408 
L 332.94177 312.794717 
L 333.120169 316.319762 
L 333.655367 328.756997 
L 333.833766 331.029981 
L 334.012166 336.956353 
L 334.192179 346.6 
M 336.769412 346.6 
L 337.009274 340.878061 
L 337.294713 338.404476 
L 337.615831 328.658252 
L 337.82991 325.448818 
L 337.86559 325.386548 
L 337.90127 325.418516 
L 338.079669 325.894184 
L 338.115349 325.818969 
L 338.222389 324.861174 
L 338.650547 318.751805 
L 338.686227 318.831504 
L 338.828946 320.016539 
L 339.043025 321.400225 
L 339.150065 320.742491 
L 339.435504 318.42503 
L 339.506864 318.751899 
L 339.685263 321.384767 
L 339.970702 324.726643 
L 340.077741 324.410556 
L 340.184781 324.06393 
L 340.220461 324.089971 
L 340.3275 324.896604 
L 340.5059 328.844521 
L 340.862698 336.400095 
L 341.076777 337.475422 
L 341.219497 340.436173 
L 341.371364 346.6 
M 344.735819 346.6 
L 344.930202 343.293727 
L 344.965882 343.245798 
L 345.001561 343.315789 
L 345.179961 343.945233 
L 345.215641 343.81535 
L 345.32268 342.460429 
L 345.715159 335.940459 
L 345.822198 336.742578 
L 346.071957 339.38794 
L 346.107637 339.338068 
L 346.250356 337.937393 
L 346.428756 336.254904 
L 346.464435 336.274464 
L 346.571475 337.294815 
L 346.999633 344.508193 
L 347.070993 344.278572 
L 347.178033 343.97336 
L 347.213712 344.059196 
L 347.320752 345.300839 
L 347.37525 346.6 
L 347.37525 346.6 
" clip-path="url(#p0ff22a6b40)" style="fill: none; stroke: #1f77b4; stroke-width: 1.5; stroke-linecap: square"/>
   </g>
   <g id="patch_3">
    <path d="M 57.6 307.584 
L 57.6 41.472 
" style="fill: none; stroke: #000000; stroke-width: 0.8; stroke-linejoin: miter; stroke-linecap: square"/>
   </g>
   <g id="patch_4">
    <path d="M 414.72 307.584 
L 414.72 41.472 
" style="fill: none; stroke: #000000; stroke-width: 0.8; stroke-linejoin: miter; stroke-linecap: square"/>
   </g>
   <g id="patch_5">
    <path d="M 57.6 307.584 
L 414.72 307.584 
" style="fill: none; stroke: #000000; stroke-width: 0.8; stroke-linejoin: miter; stroke-linecap: square"/>
   </g>
   <g id="patch_6">
    <path d="M 57.6 41.472 
L 414.72 41.472 
" style="fill: none; stroke: #000000; stroke-width: 0.8; stroke-linejoin: miter; stroke-linecap: square"/>
   </g>
   <g id="text_15">
    <!-- Detected E-field (Frequency domain) -->
    <g transform="translate(125.88 35.472) scale(0.12 -0.12)">
     <defs>
      <path id="DejaVuSans-44" d="M 1259 4147 
L 1259 519 
L 2022 519 
Q 2988 519 3436 956 
Q 3884 1394 3884 2338 
Q 3884 3275 3436 3711 
Q 2988 4147 2022 4147 
L 1259 4147 
z
M 628 4666 
L 1925 4666 
Q 3281 4666 3915 4102 
Q 4550 3538 4550 2338 
Q 4550 1131 3912 565 
Q 3275 0 1925 0 
L 628 0 
L 628 4666 
z
" transform="scale(0.015625)"/>
      <path id="DejaVuSans-74" d="M 1172 4494 
L 1172 3500 
L 2356 3500 
L 2356 3053 
L 1172 3053 
L 1172 1153 
Q 1172 725 1289 603 
Q 1406 481 1766 481 
L 2356 481 
L 2356 0 
L 1766 0 
Q 1100 0 847 248 
Q 594 497 594 1153 
L 594 3053 
L 172 3053 
L 172 3500 
L 594 3500 
L 594 4494 
L 1172 4494 
z
" transform="scale(0.015625)"/>
      <path id="DejaVuSans-63" d="M 3122 3366 
L 3122 2828 
Q 2878 2963 2633 3030 
Q 2388 3097 2138 3097 
Q 1578 3097 1268 2742 
Q 959 2388 959 1747 
Q 959 1106 1268 751 
Q 1578 397 2138 397 
Q 2388 397 2633 464 
Q 2878 531 3122 666 
L 3122 134 
Q 2881 22 2623 -34 
Q 2366 -91 2075 -91 
Q 1284 -91 818 406 
Q 353 903 353 1747 
Q 353 2603 823 3093 
Q 1294 3584 2113 3584 
Q 2378 3584 2631 3529 
Q 2884 3475 3122 3366 
z
" transform="scale(0.015625)"/>
      <path id="DejaVuSans-2d" d="M 313 2009 
L 1997 2009 
L 1997 1497 
L 313 1497 
L 313 2009 
z
" transform="scale(0.015625)"/>
      <path id="DejaVuSans-28" d="M 1984 4856 
Q 1566 4138 1362 3434 
Q 1159 2731 1159 2009 
Q 1159 1288 1364 580 
Q 1569 -128 1984 -844 
L 1484 -844 
Q 1016 -109 783 600 
Q 550 1309 550 2009 
Q 550 2706 781 3412 
Q 1013 4119 1484 4856 
L 1984 4856 
z
" transform="scale(0.015625)"/>
      <path id="DejaVuSans-75" d="M 544 1381 
L 544 3500 
L 1119 3500 
L 1119 1403 
Q 1119 906 1312 657 
Q 1506 409 1894 409 
Q 2359 409 2629 706 
Q 2900 1003 2900 1516 
L 2900 3500 
L 3475 3500 
L 3475 0 
L 2900 0 
L 2900 538 
Q 2691 219 2414 64 
Q 2138 -91 1772 -91 
Q 1169 -91 856 284 
Q 544 659 544 1381 
z
M 1991 3584 
L 1991 3584 
z
" transform="scale(0.015625)"/>
      <path id="DejaVuSans-6e" d="M 3513 2113 
L 3513 0 
L 2938 0 
L 2938 2094 
Q 2938 2591 2744 2837 
Q 2550 3084 2163 3084 
Q 1697 3084 1428 2787 
Q 1159 2491 1159 1978 
L 1159 0 
L 581 0 
L 581 3500 
L 1159 3500 
L 1159 2956 
Q 1366 3272 1645 3428 
Q 1925 3584 2291 3584 
Q 2894 3584 3203 3211 
Q 3513 2838 3513 2113 
z
" transform="scale(0.015625)"/>
      <path id="DejaVuSans-79" d="M 2059 -325 
Q 1816 -950 1584 -1140 
Q 1353 -1331 966 -1331 
L 506 -1331 
L 506 -850 
L 844 -850 
Q 1081 -850 1212 -737 
Q 1344 -625 1503 -206 
L 1606 56 
L 191 3500 
L 800 3500 
L 1894 763 
L 2988 3500 
L 3597 3500 
L 2059 -325 
z
" transform="scale(0.015625)"/>
      <path id="DejaVuSans-6f" d="M 1959 3097 
Q 1497 3097 1228 2736 
Q 959 2375 959 1747 
Q 959 1119 1226 758 
Q 1494 397 1959 397 
Q 2419 397 2687 759 
Q 2956 1122 2956 1747 
Q 2956 2369 2687 2733 
Q 2419 3097 1959 3097 
z
M 1959 3584 
Q 2709 3584 3137 3096 
Q 3566 2609 3566 1747 
Q 3566 888 3137 398 
Q 2709 -91 1959 -91 
Q 1206 -91 779 398 
Q 353 888 353 1747 
Q 353 2609 779 3096 
Q 1206 3584 1959 3584 
z
" transform="scale(0.015625)"/>
      <path id="DejaVuSans-6d" d="M 3328 2828 
Q 3544 3216 3844 3400 
Q 4144 3584 4550 3584 
Q 5097 3584 5394 3201 
Q 5691 2819 5691 2113 
L 5691 0 
L 5113 0 
L 5113 2094 
Q 5113 2597 4934 2840 
Q 4756 3084 4391 3084 
Q 3944 3084 3684 2787 
Q 3425 2491 3425 1978 
L 3425 0 
L 2847 0 
L 2847 2094 
Q 2847 2600 2669 2842 
Q 2491 3084 2119 3084 
Q 1678 3084 1418 2786 
Q 1159 2488 1159 1978 
L 1159 0 
L 581 0 
L 581 3500 
L 1159 3500 
L 1159 2956 
Q 1356 3278 1631 3431 
Q 1906 3584 2284 3584 
Q 2666 3584 2933 3390 
Q 3200 3197 3328 2828 
z
" transform="scale(0.015625)"/>
      <path id="DejaVuSans-61" d="M 2194 1759 
Q 1497 1759 1228 1600 
Q 959 1441 959 1056 
Q 959 750 1161 570 
Q 1363 391 1709 391 
Q 2188 391 2477 730 
Q 2766 1069 2766 1631 
L 2766 1759 
L 2194 1759 
z
M 3341 1997 
L 3341 0 
L 2766 0 
L 2766 531 
Q 2569 213 2275 61 
Q 1981 -91 1556 -91 
Q 1019 -91 701 211 
Q 384 513 384 1019 
Q 384 1609 779 1909 
Q 1175 2209 1959 2209 
L 2766 2209 
L 2766 2266 
Q 2766 2663 2505 2880 
Q 2244 3097 1772 3097 
Q 1472 3097 1187 3025 
Q 903 2953 641 2809 
L 641 3341 
Q 956 3463 1253 3523 
Q 1550 3584 1831 3584 
Q 2591 3584 2966 3190 
Q 3341 2797 3341 1997 
z
" transform="scale(0.015625)"/>
      <path id="DejaVuSans-29" d="M 513 4856 
L 1013 4856 
Q 1481 4119 1714 3412 
Q 1947 2706 1947 2009 
Q 1947 1309 1714 600 
Q 1481 -109 1013 -844 
L 513 -844 
Q 928 -128 1133 580 
Q 1338 1288 1338 2009 
Q 1338 2731 1133 3434 
Q 928 4138 513 4856 
z
" transform="scale(0.015625)"/>
     </defs>
     <use xlink:href="#DejaVuSans-44"/>
     <use xlink:href="#DejaVuSans-65" x="77.001953"/>
     <use xlink:href="#DejaVuSans-74" x="138.525391"/>
     <use xlink:href="#DejaVuSans-65" x="177.734375"/>
     <use xlink:href="#DejaVuSans-63" x="239.257812"/>
     <use xlink:href="#DejaVuSans-74" x="294.238281"/>
     <use xlink:href="#DejaVuSans-65" x="333.447266"/>
     <use xlink:href="#DejaVuSans-64" x="394.970703"/>
     <use xlink:href="#DejaVuSans-20" x="458.447266"/>
     <use xlink:href="#DejaVuSans-45" x="490.234375"/>
     <use xlink:href="#DejaVuSans-2d" x="553.417969"/>
     <use xlink:href="#DejaVuSans-66" x="589.501953"/>
     <use xlink:href="#DejaVuSans-69" x="624.707031"/>
     <use xlink:href="#DejaVuSans-65" x="652.490234"/>
     <use xlink:href="#DejaVuSans-6c" x="714.013672"/>
     <use xlink:href="#DejaVuSans-64" x="741.796875"/>
     <use xlink:href="#DejaVuSans-20" x="805.273438"/>
     <use xlink:href="#DejaVuSans-28" x="837.060547"/>
     <use xlink:href="#DejaVuSans-46" x="876.074219"/>
     <use xlink:href="#DejaVuSans-72" x="926.34375"/>
     <use xlink:href="#DejaVuSans-65" x="965.207031"/>
     <use xlink:href="#DejaVuSans-71" x="1026.730469"/>
     <use xlink:href="#DejaVuSans-75" x="1090.207031"/>
     <use xlink:href="#DejaVuSans-65" x="1153.585938"/>
     <use xlink:href="#DejaVuSans-6e" x="1215.109375"/>
     <use xlink:href="#DejaVuSans-63" x="1278.488281"/>
     <use xlink:href="#DejaVuSans-79" x="1333.46875"/>
     <use xlink:href="#DejaVuSans-20" x="1392.648438"/>
     <use xlink:href="#DejaVuSans-64" x="1424.435547"/>
     <use xlink:href="#DejaVuSans-6f" x="1487.912109"/>
     <use xlink:href="#DejaVuSans-6d" x="1549.09375"/>
     <use xlink:href="#DejaVuSans-61" x="1646.505859"/>
     <use xlink:href="#DejaVuSans-69" x="1707.785156"/>
     <use xlink:href="#DejaVuSans-6e" x="1735.568359"/>
     <use xlink:href="#DejaVuSans-29" x="1798.947266"/>
    </g>
   </g>
  </g>
 </g>
 <defs>
  <clipPath id="p0ff22a6b40">
   <rect x="57.6" y="41.472" width="357.12" height="266.112"/>
  </clipPath>
 </defs>
</svg>
