<?xml version="1.0" encoding="utf-8" standalone="no"?>
<!DOCTYPE svg PUBLIC "-//W3C//DTD SVG 1.1//EN"
  "http://www.w3.org/Graphics/SVG/1.1/DTD/svg11.dtd">
<svg xmlns:xlink="http://www.w3.org/1999/xlink" width="460.8pt" height="345.6pt" viewBox="0 0 460.8 345.6" xmlns="http://www.w3.org/2000/svg" version="1.1">
 <metadata>
  <rdf:RDF xmlns:dc="http://purl.org/dc/elements/1.1/" xmlns:cc="http://creativecommons.org/ns#" xmlns:rdf="http://www.w3.org/1999/02/22-rdf-syntax-ns#">
   <cc:Work>
    <dc:type rdf:resource="http://purl.org/dc/dcmitype/StillImage"/>
    <dc:date>2024-05-24T12:22:06.833217</dc:date>
    <dc:format>image/svg+xml</dc:format>
    <dc:creator>
     <cc:Agent>
      <dc:title>Matplotlib v3.8.3, https://matplotlib.org/</dc:title>
     </cc:Agent>
    </dc:creator>
   </cc:Work>
  </rdf:RDF>
 </metadata>
 <defs>
  <style type="text/css">*{stroke-linejoin: round; stroke-linecap: butt}</style>
 </defs>
 <g id="figure_1">
  <g id="patch_1">
   <path d="M 0 345.6 
L 460.8 345.6 
L 460.8 0 
L 0 0 
z
" style="fill: #ffffff"/>
  </g>
  <g id="axes_1">
   <g id="patch_2">
    <path d="M 57.6 307.584 
L 414.72 307.584 
L 414.72 41.472 
L 57.6 41.472 
z
" style="fill: #ffffff"/>
   </g>
   <g id="matplotlib.axis_1">
    <g id="xtick_1">
     <g id="line2d_1">
      <defs>
       <path id="mcbab385220" d="M 0 0 
L 0 3.5 
" style="stroke: #000000; stroke-width: 0.8"/>
      </defs>
      <g>
       <use xlink:href="#mcbab385220" x="57.6" y="307.584" style="stroke: #000000; stroke-width: 0.8"/>
      </g>
     </g>
     <g id="text_1">
      <!-- 0.0 -->
      <g transform="translate(49.648438 322.182437) scale(0.1 -0.1)">
       <defs>
        <path id="DejaVuSans-30" d="M 2034 4250 
Q 1547 4250 1301 3770 
Q 1056 3291 1056 2328 
Q 1056 1369 1301 889 
Q 1547 409 2034 409 
Q 2525 409 2770 889 
Q 3016 1369 3016 2328 
Q 3016 3291 2770 3770 
Q 2525 4250 2034 4250 
z
M 2034 4750 
Q 2819 4750 3233 4129 
Q 3647 3509 3647 2328 
Q 3647 1150 3233 529 
Q 2819 -91 2034 -91 
Q 1250 -91 836 529 
Q 422 1150 422 2328 
Q 422 3509 836 4129 
Q 1250 4750 2034 4750 
z
" transform="scale(0.015625)"/>
        <path id="DejaVuSans-2e" d="M 684 794 
L 1344 794 
L 1344 0 
L 684 0 
L 684 794 
z
" transform="scale(0.015625)"/>
       </defs>
       <use xlink:href="#DejaVuSans-30"/>
       <use xlink:href="#DejaVuSans-2e" x="63.623047"/>
       <use xlink:href="#DejaVuSans-30" x="95.410156"/>
      </g>
     </g>
    </g>
    <g id="xtick_2">
     <g id="line2d_2">
      <g>
       <use xlink:href="#mcbab385220" x="129.024" y="307.584" style="stroke: #000000; stroke-width: 0.8"/>
      </g>
     </g>
     <g id="text_2">
      <!-- 0.2 -->
      <g transform="translate(121.072438 322.182437) scale(0.1 -0.1)">
       <defs>
        <path id="DejaVuSans-32" d="M 1228 531 
L 3431 531 
L 3431 0 
L 469 0 
L 469 531 
Q 828 903 1448 1529 
Q 2069 2156 2228 2338 
Q 2531 2678 2651 2914 
Q 2772 3150 2772 3378 
Q 2772 3750 2511 3984 
Q 2250 4219 1831 4219 
Q 1534 4219 1204 4116 
Q 875 4013 500 3803 
L 500 4441 
Q 881 4594 1212 4672 
Q 1544 4750 1819 4750 
Q 2544 4750 2975 4387 
Q 3406 4025 3406 3419 
Q 3406 3131 3298 2873 
Q 3191 2616 2906 2266 
Q 2828 2175 2409 1742 
Q 1991 1309 1228 531 
z
" transform="scale(0.015625)"/>
       </defs>
       <use xlink:href="#DejaVuSans-30"/>
       <use xlink:href="#DejaVuSans-2e" x="63.623047"/>
       <use xlink:href="#DejaVuSans-32" x="95.410156"/>
      </g>
     </g>
    </g>
    <g id="xtick_3">
     <g id="line2d_3">
      <g>
       <use xlink:href="#mcbab385220" x="200.448" y="307.584" style="stroke: #000000; stroke-width: 0.8"/>
      </g>
     </g>
     <g id="text_3">
      <!-- 0.4 -->
      <g transform="translate(192.496438 322.182437) scale(0.1 -0.1)">
       <defs>
        <path id="DejaVuSans-34" d="M 2419 4116 
L 825 1625 
L 2419 1625 
L 2419 4116 
z
M 2253 4666 
L 3047 4666 
L 3047 1625 
L 3713 1625 
L 3713 1100 
L 3047 1100 
L 3047 0 
L 2419 0 
L 2419 1100 
L 313 1100 
L 313 1709 
L 2253 4666 
z
" transform="scale(0.015625)"/>
       </defs>
       <use xlink:href="#DejaVuSans-30"/>
       <use xlink:href="#DejaVuSans-2e" x="63.623047"/>
       <use xlink:href="#DejaVuSans-34" x="95.410156"/>
      </g>
     </g>
    </g>
    <g id="xtick_4">
     <g id="line2d_4">
      <g>
       <use xlink:href="#mcbab385220" x="271.872" y="307.584" style="stroke: #000000; stroke-width: 0.8"/>
      </g>
     </g>
     <g id="text_4">
      <!-- 0.6 -->
      <g transform="translate(263.920437 322.182437) scale(0.1 -0.1)">
       <defs>
        <path id="DejaVuSans-36" d="M 2113 2584 
Q 1688 2584 1439 2293 
Q 1191 2003 1191 1497 
Q 1191 994 1439 701 
Q 1688 409 2113 409 
Q 2538 409 2786 701 
Q 3034 994 3034 1497 
Q 3034 2003 2786 2293 
Q 2538 2584 2113 2584 
z
M 3366 4563 
L 3366 3988 
Q 3128 4100 2886 4159 
Q 2644 4219 2406 4219 
Q 1781 4219 1451 3797 
Q 1122 3375 1075 2522 
Q 1259 2794 1537 2939 
Q 1816 3084 2150 3084 
Q 2853 3084 3261 2657 
Q 3669 2231 3669 1497 
Q 3669 778 3244 343 
Q 2819 -91 2113 -91 
Q 1303 -91 875 529 
Q 447 1150 447 2328 
Q 447 3434 972 4092 
Q 1497 4750 2381 4750 
Q 2619 4750 2861 4703 
Q 3103 4656 3366 4563 
z
" transform="scale(0.015625)"/>
       </defs>
       <use xlink:href="#DejaVuSans-30"/>
       <use xlink:href="#DejaVuSans-2e" x="63.623047"/>
       <use xlink:href="#DejaVuSans-36" x="95.410156"/>
      </g>
     </g>
    </g>
    <g id="xtick_5">
     <g id="line2d_5">
      <g>
       <use xlink:href="#mcbab385220" x="343.296" y="307.584" style="stroke: #000000; stroke-width: 0.8"/>
      </g>
     </g>
     <g id="text_5">
      <!-- 0.8 -->
      <g transform="translate(335.344438 322.182437) scale(0.1 -0.1)">
       <defs>
        <path id="DejaVuSans-38" d="M 2034 2216 
Q 1584 2216 1326 1975 
Q 1069 1734 1069 1313 
Q 1069 891 1326 650 
Q 1584 409 2034 409 
Q 2484 409 2743 651 
Q 3003 894 3003 1313 
Q 3003 1734 2745 1975 
Q 2488 2216 2034 2216 
z
M 1403 2484 
Q 997 2584 770 2862 
Q 544 3141 544 3541 
Q 544 4100 942 4425 
Q 1341 4750 2034 4750 
Q 2731 4750 3128 4425 
Q 3525 4100 3525 3541 
Q 3525 3141 3298 2862 
Q 3072 2584 2669 2484 
Q 3125 2378 3379 2068 
Q 3634 1759 3634 1313 
Q 3634 634 3220 271 
Q 2806 -91 2034 -91 
Q 1263 -91 848 271 
Q 434 634 434 1313 
Q 434 1759 690 2068 
Q 947 2378 1403 2484 
z
M 1172 3481 
Q 1172 3119 1398 2916 
Q 1625 2713 2034 2713 
Q 2441 2713 2670 2916 
Q 2900 3119 2900 3481 
Q 2900 3844 2670 4047 
Q 2441 4250 2034 4250 
Q 1625 4250 1398 4047 
Q 1172 3844 1172 3481 
z
" transform="scale(0.015625)"/>
       </defs>
       <use xlink:href="#DejaVuSans-30"/>
       <use xlink:href="#DejaVuSans-2e" x="63.623047"/>
       <use xlink:href="#DejaVuSans-38" x="95.410156"/>
      </g>
     </g>
    </g>
    <g id="xtick_6">
     <g id="line2d_6">
      <g>
       <use xlink:href="#mcbab385220" x="414.72" y="307.584" style="stroke: #000000; stroke-width: 0.8"/>
      </g>
     </g>
     <g id="text_6">
      <!-- 1.0 -->
      <g transform="translate(406.768438 322.182437) scale(0.1 -0.1)">
       <defs>
        <path id="DejaVuSans-31" d="M 794 531 
L 1825 531 
L 1825 4091 
L 703 3866 
L 703 4441 
L 1819 4666 
L 2450 4666 
L 2450 531 
L 3481 531 
L 3481 0 
L 794 0 
L 794 531 
z
" transform="scale(0.015625)"/>
       </defs>
       <use xlink:href="#DejaVuSans-31"/>
       <use xlink:href="#DejaVuSans-2e" x="63.623047"/>
       <use xlink:href="#DejaVuSans-30" x="95.410156"/>
      </g>
     </g>
    </g>
    <g id="text_7">
     <!-- Freq -->
     <g transform="translate(225.452969 335.860562) scale(0.1 -0.1)">
      <defs>
       <path id="DejaVuSans-46" d="M 628 4666 
L 3309 4666 
L 3309 4134 
L 1259 4134 
L 1259 2759 
L 3109 2759 
L 3109 2228 
L 1259 2228 
L 1259 0 
L 628 0 
L 628 4666 
z
" transform="scale(0.015625)"/>
       <path id="DejaVuSans-72" d="M 2631 2963 
Q 2534 3019 2420 3045 
Q 2306 3072 2169 3072 
Q 1681 3072 1420 2755 
Q 1159 2438 1159 1844 
L 1159 0 
L 581 0 
L 581 3500 
L 1159 3500 
L 1159 2956 
Q 1341 3275 1631 3429 
Q 1922 3584 2338 3584 
Q 2397 3584 2469 3576 
Q 2541 3569 2628 3553 
L 2631 2963 
z
" transform="scale(0.015625)"/>
       <path id="DejaVuSans-65" d="M 3597 1894 
L 3597 1613 
L 953 1613 
Q 991 1019 1311 708 
Q 1631 397 2203 397 
Q 2534 397 2845 478 
Q 3156 559 3463 722 
L 3463 178 
Q 3153 47 2828 -22 
Q 2503 -91 2169 -91 
Q 1331 -91 842 396 
Q 353 884 353 1716 
Q 353 2575 817 3079 
Q 1281 3584 2069 3584 
Q 2775 3584 3186 3129 
Q 3597 2675 3597 1894 
z
M 3022 2063 
Q 3016 2534 2758 2815 
Q 2500 3097 2075 3097 
Q 1594 3097 1305 2825 
Q 1016 2553 972 2059 
L 3022 2063 
z
" transform="scale(0.015625)"/>
       <path id="DejaVuSans-71" d="M 947 1747 
Q 947 1113 1208 752 
Q 1469 391 1925 391 
Q 2381 391 2643 752 
Q 2906 1113 2906 1747 
Q 2906 2381 2643 2742 
Q 2381 3103 1925 3103 
Q 1469 3103 1208 2742 
Q 947 2381 947 1747 
z
M 2906 525 
Q 2725 213 2448 61 
Q 2172 -91 1784 -91 
Q 1150 -91 751 415 
Q 353 922 353 1747 
Q 353 2572 751 3078 
Q 1150 3584 1784 3584 
Q 2172 3584 2448 3432 
Q 2725 3281 2906 2969 
L 2906 3500 
L 3481 3500 
L 3481 -1331 
L 2906 -1331 
L 2906 525 
z
" transform="scale(0.015625)"/>
      </defs>
      <use xlink:href="#DejaVuSans-46"/>
      <use xlink:href="#DejaVuSans-72" x="50.269531"/>
      <use xlink:href="#DejaVuSans-65" x="89.132812"/>
      <use xlink:href="#DejaVuSans-71" x="150.65625"/>
     </g>
    </g>
    <g id="text_8">
     <!-- 1e13 -->
     <g transform="translate(389.479375 334.860562) scale(0.1 -0.1)">
      <defs>
       <path id="DejaVuSans-33" d="M 2597 2516 
Q 3050 2419 3304 2112 
Q 3559 1806 3559 1356 
Q 3559 666 3084 287 
Q 2609 -91 1734 -91 
Q 1441 -91 1130 -33 
Q 819 25 488 141 
L 488 750 
Q 750 597 1062 519 
Q 1375 441 1716 441 
Q 2309 441 2620 675 
Q 2931 909 2931 1356 
Q 2931 1769 2642 2001 
Q 2353 2234 1838 2234 
L 1294 2234 
L 1294 2753 
L 1863 2753 
Q 2328 2753 2575 2939 
Q 2822 3125 2822 3475 
Q 2822 3834 2567 4026 
Q 2313 4219 1838 4219 
Q 1578 4219 1281 4162 
Q 984 4106 628 3988 
L 628 4550 
Q 988 4650 1302 4700 
Q 1616 4750 1894 4750 
Q 2613 4750 3031 4423 
Q 3450 4097 3450 3541 
Q 3450 3153 3228 2886 
Q 3006 2619 2597 2516 
z
" transform="scale(0.015625)"/>
      </defs>
      <use xlink:href="#DejaVuSans-31"/>
      <use xlink:href="#DejaVuSans-65" x="63.623047"/>
      <use xlink:href="#DejaVuSans-31" x="125.146484"/>
      <use xlink:href="#DejaVuSans-33" x="188.769531"/>
     </g>
    </g>
   </g>
   <g id="matplotlib.axis_2">
    <g id="ytick_1">
     <g id="line2d_7">
      <defs>
       <path id="m567e4010cf" d="M 0 0 
L -3.5 0 
" style="stroke: #000000; stroke-width: 0.8"/>
      </defs>
      <g>
       <use xlink:href="#m567e4010cf" x="57.6" y="301.720137" style="stroke: #000000; stroke-width: 0.8"/>
      </g>
     </g>
     <g id="text_9">
      <!-- $\mathdefault{10^{-4}}$ -->
      <g transform="translate(27.1 305.519356) scale(0.1 -0.1)">
       <defs>
        <path id="DejaVuSans-2212" d="M 678 2272 
L 4684 2272 
L 4684 1741 
L 678 1741 
L 678 2272 
z
" transform="scale(0.015625)"/>
       </defs>
       <use xlink:href="#DejaVuSans-31" transform="translate(0 0.684375)"/>
       <use xlink:href="#DejaVuSans-30" transform="translate(63.623047 0.684375)"/>
       <use xlink:href="#DejaVuSans-2212" transform="translate(128.203125 38.965625) scale(0.7)"/>
       <use xlink:href="#DejaVuSans-34" transform="translate(186.855469 38.965625) scale(0.7)"/>
      </g>
     </g>
    </g>
    <g id="ytick_2">
     <g id="line2d_8">
      <g>
       <use xlink:href="#m567e4010cf" x="57.6" y="241.211808" style="stroke: #000000; stroke-width: 0.8"/>
      </g>
     </g>
     <g id="text_10">
      <!-- $\mathdefault{10^{-3}}$ -->
      <g transform="translate(27.1 245.011027) scale(0.1 -0.1)">
       <use xlink:href="#DejaVuSans-31" transform="translate(0 0.765625)"/>
       <use xlink:href="#DejaVuSans-30" transform="translate(63.623047 0.765625)"/>
       <use xlink:href="#DejaVuSans-2212" transform="translate(128.203125 39.046875) scale(0.7)"/>
       <use xlink:href="#DejaVuSans-33" transform="translate(186.855469 39.046875) scale(0.7)"/>
      </g>
     </g>
    </g>
    <g id="ytick_3">
     <g id="line2d_9">
      <g>
       <use xlink:href="#m567e4010cf" x="57.6" y="180.70348" style="stroke: #000000; stroke-width: 0.8"/>
      </g>
     </g>
     <g id="text_11">
      <!-- $\mathdefault{10^{-2}}$ -->
      <g transform="translate(27.1 184.502698) scale(0.1 -0.1)">
       <use xlink:href="#DejaVuSans-31" transform="translate(0 0.765625)"/>
       <use xlink:href="#DejaVuSans-30" transform="translate(63.623047 0.765625)"/>
       <use xlink:href="#DejaVuSans-2212" transform="translate(128.203125 39.046875) scale(0.7)"/>
       <use xlink:href="#DejaVuSans-32" transform="translate(186.855469 39.046875) scale(0.7)"/>
      </g>
     </g>
    </g>
    <g id="ytick_4">
     <g id="line2d_10">
      <g>
       <use xlink:href="#m567e4010cf" x="57.6" y="120.195151" style="stroke: #000000; stroke-width: 0.8"/>
      </g>
     </g>
     <g id="text_12">
      <!-- $\mathdefault{10^{-1}}$ -->
      <g transform="translate(27.1 123.994369) scale(0.1 -0.1)">
       <use xlink:href="#DejaVuSans-31" transform="translate(0 0.684375)"/>
       <use xlink:href="#DejaVuSans-30" transform="translate(63.623047 0.684375)"/>
       <use xlink:href="#DejaVuSans-2212" transform="translate(128.203125 38.965625) scale(0.7)"/>
       <use xlink:href="#DejaVuSans-31" transform="translate(186.855469 38.965625) scale(0.7)"/>
      </g>
     </g>
    </g>
    <g id="ytick_5">
     <g id="line2d_11">
      <g>
       <use xlink:href="#m567e4010cf" x="57.6" y="59.686822" style="stroke: #000000; stroke-width: 0.8"/>
      </g>
     </g>
     <g id="text_13">
      <!-- $\mathdefault{10^{0}}$ -->
      <g transform="translate(33 63.486041) scale(0.1 -0.1)">
       <use xlink:href="#DejaVuSans-31" transform="translate(0 0.765625)"/>
       <use xlink:href="#DejaVuSans-30" transform="translate(63.623047 0.765625)"/>
       <use xlink:href="#DejaVuSans-30" transform="translate(128.203125 39.046875) scale(0.7)"/>
      </g>
     </g>
    </g>
    <g id="ytick_6">
     <g id="line2d_12">
      <defs>
       <path id="ma06cb90537" d="M 0 0 
L -2 0 
" style="stroke: #000000; stroke-width: 0.6"/>
      </defs>
      <g>
       <use xlink:href="#ma06cb90537" x="57.6" y="307.584" style="stroke: #000000; stroke-width: 0.6"/>
      </g>
     </g>
    </g>
    <g id="ytick_7">
     <g id="line2d_13">
      <g>
       <use xlink:href="#ma06cb90537" x="57.6" y="304.488846" style="stroke: #000000; stroke-width: 0.6"/>
      </g>
     </g>
    </g>
    <g id="ytick_8">
     <g id="line2d_14">
      <g>
       <use xlink:href="#ma06cb90537" x="57.6" y="283.505315" style="stroke: #000000; stroke-width: 0.6"/>
      </g>
     </g>
    </g>
    <g id="ytick_9">
     <g id="line2d_15">
      <g>
       <use xlink:href="#ma06cb90537" x="57.6" y="272.850327" style="stroke: #000000; stroke-width: 0.6"/>
      </g>
     </g>
    </g>
    <g id="ytick_10">
     <g id="line2d_16">
      <g>
       <use xlink:href="#ma06cb90537" x="57.6" y="265.290493" style="stroke: #000000; stroke-width: 0.6"/>
      </g>
     </g>
    </g>
    <g id="ytick_11">
     <g id="line2d_17">
      <g>
       <use xlink:href="#ma06cb90537" x="57.6" y="259.42663" style="stroke: #000000; stroke-width: 0.6"/>
      </g>
     </g>
    </g>
    <g id="ytick_12">
     <g id="line2d_18">
      <g>
       <use xlink:href="#ma06cb90537" x="57.6" y="254.635505" style="stroke: #000000; stroke-width: 0.6"/>
      </g>
     </g>
    </g>
    <g id="ytick_13">
     <g id="line2d_19">
      <g>
       <use xlink:href="#ma06cb90537" x="57.6" y="250.584667" style="stroke: #000000; stroke-width: 0.6"/>
      </g>
     </g>
    </g>
    <g id="ytick_14">
     <g id="line2d_20">
      <g>
       <use xlink:href="#ma06cb90537" x="57.6" y="247.075671" style="stroke: #000000; stroke-width: 0.6"/>
      </g>
     </g>
    </g>
    <g id="ytick_15">
     <g id="line2d_21">
      <g>
       <use xlink:href="#ma06cb90537" x="57.6" y="243.980518" style="stroke: #000000; stroke-width: 0.6"/>
      </g>
     </g>
    </g>
    <g id="ytick_16">
     <g id="line2d_22">
      <g>
       <use xlink:href="#ma06cb90537" x="57.6" y="222.996986" style="stroke: #000000; stroke-width: 0.6"/>
      </g>
     </g>
    </g>
    <g id="ytick_17">
     <g id="line2d_23">
      <g>
       <use xlink:href="#ma06cb90537" x="57.6" y="212.341999" style="stroke: #000000; stroke-width: 0.6"/>
      </g>
     </g>
    </g>
    <g id="ytick_18">
     <g id="line2d_24">
      <g>
       <use xlink:href="#ma06cb90537" x="57.6" y="204.782164" style="stroke: #000000; stroke-width: 0.6"/>
      </g>
     </g>
    </g>
    <g id="ytick_19">
     <g id="line2d_25">
      <g>
       <use xlink:href="#ma06cb90537" x="57.6" y="198.918301" style="stroke: #000000; stroke-width: 0.6"/>
      </g>
     </g>
    </g>
    <g id="ytick_20">
     <g id="line2d_26">
      <g>
       <use xlink:href="#ma06cb90537" x="57.6" y="194.127177" style="stroke: #000000; stroke-width: 0.6"/>
      </g>
     </g>
    </g>
    <g id="ytick_21">
     <g id="line2d_27">
      <g>
       <use xlink:href="#ma06cb90537" x="57.6" y="190.076338" style="stroke: #000000; stroke-width: 0.6"/>
      </g>
     </g>
    </g>
    <g id="ytick_22">
     <g id="line2d_28">
      <g>
       <use xlink:href="#ma06cb90537" x="57.6" y="186.567342" style="stroke: #000000; stroke-width: 0.6"/>
      </g>
     </g>
    </g>
    <g id="ytick_23">
     <g id="line2d_29">
      <g>
       <use xlink:href="#ma06cb90537" x="57.6" y="183.472189" style="stroke: #000000; stroke-width: 0.6"/>
      </g>
     </g>
    </g>
    <g id="ytick_24">
     <g id="line2d_30">
      <g>
       <use xlink:href="#ma06cb90537" x="57.6" y="162.488658" style="stroke: #000000; stroke-width: 0.6"/>
      </g>
     </g>
    </g>
    <g id="ytick_25">
     <g id="line2d_31">
      <g>
       <use xlink:href="#ma06cb90537" x="57.6" y="151.83367" style="stroke: #000000; stroke-width: 0.6"/>
      </g>
     </g>
    </g>
    <g id="ytick_26">
     <g id="line2d_32">
      <g>
       <use xlink:href="#ma06cb90537" x="57.6" y="144.273836" style="stroke: #000000; stroke-width: 0.6"/>
      </g>
     </g>
    </g>
    <g id="ytick_27">
     <g id="line2d_33">
      <g>
       <use xlink:href="#ma06cb90537" x="57.6" y="138.409973" style="stroke: #000000; stroke-width: 0.6"/>
      </g>
     </g>
    </g>
    <g id="ytick_28">
     <g id="line2d_34">
      <g>
       <use xlink:href="#ma06cb90537" x="57.6" y="133.618848" style="stroke: #000000; stroke-width: 0.6"/>
      </g>
     </g>
    </g>
    <g id="ytick_29">
     <g id="line2d_35">
      <g>
       <use xlink:href="#ma06cb90537" x="57.6" y="129.568009" style="stroke: #000000; stroke-width: 0.6"/>
      </g>
     </g>
    </g>
    <g id="ytick_30">
     <g id="line2d_36">
      <g>
       <use xlink:href="#ma06cb90537" x="57.6" y="126.059014" style="stroke: #000000; stroke-width: 0.6"/>
      </g>
     </g>
    </g>
    <g id="ytick_31">
     <g id="line2d_37">
      <g>
       <use xlink:href="#ma06cb90537" x="57.6" y="122.96386" style="stroke: #000000; stroke-width: 0.6"/>
      </g>
     </g>
    </g>
    <g id="ytick_32">
     <g id="line2d_38">
      <g>
       <use xlink:href="#ma06cb90537" x="57.6" y="101.980329" style="stroke: #000000; stroke-width: 0.6"/>
      </g>
     </g>
    </g>
    <g id="ytick_33">
     <g id="line2d_39">
      <g>
       <use xlink:href="#ma06cb90537" x="57.6" y="91.325341" style="stroke: #000000; stroke-width: 0.6"/>
      </g>
     </g>
    </g>
    <g id="ytick_34">
     <g id="line2d_40">
      <g>
       <use xlink:href="#ma06cb90537" x="57.6" y="83.765507" style="stroke: #000000; stroke-width: 0.6"/>
      </g>
     </g>
    </g>
    <g id="ytick_35">
     <g id="line2d_41">
      <g>
       <use xlink:href="#ma06cb90537" x="57.6" y="77.901644" style="stroke: #000000; stroke-width: 0.6"/>
      </g>
     </g>
    </g>
    <g id="ytick_36">
     <g id="line2d_42">
      <g>
       <use xlink:href="#ma06cb90537" x="57.6" y="73.110519" style="stroke: #000000; stroke-width: 0.6"/>
      </g>
     </g>
    </g>
    <g id="ytick_37">
     <g id="line2d_43">
      <g>
       <use xlink:href="#ma06cb90537" x="57.6" y="69.059681" style="stroke: #000000; stroke-width: 0.6"/>
      </g>
     </g>
    </g>
    <g id="ytick_38">
     <g id="line2d_44">
      <g>
       <use xlink:href="#ma06cb90537" x="57.6" y="65.550685" style="stroke: #000000; stroke-width: 0.6"/>
      </g>
     </g>
    </g>
    <g id="ytick_39">
     <g id="line2d_45">
      <g>
       <use xlink:href="#ma06cb90537" x="57.6" y="62.455531" style="stroke: #000000; stroke-width: 0.6"/>
      </g>
     </g>
    </g>
    <g id="ytick_40">
     <g id="line2d_46">
      <g>
       <use xlink:href="#ma06cb90537" x="57.6" y="41.472" style="stroke: #000000; stroke-width: 0.6"/>
      </g>
     </g>
    </g>
    <g id="text_14">
     <!-- E field ^2 -->
     <g transform="translate(21.020312 199.025656) rotate(-90) scale(0.1 -0.1)">
      <defs>
       <path id="DejaVuSans-45" d="M 628 4666 
L 3578 4666 
L 3578 4134 
L 1259 4134 
L 1259 2753 
L 3481 2753 
L 3481 2222 
L 1259 2222 
L 1259 531 
L 3634 531 
L 3634 0 
L 628 0 
L 628 4666 
z
" transform="scale(0.015625)"/>
       <path id="DejaVuSans-20" transform="scale(0.015625)"/>
       <path id="DejaVuSans-66" d="M 2375 4863 
L 2375 4384 
L 1825 4384 
Q 1516 4384 1395 4259 
Q 1275 4134 1275 3809 
L 1275 3500 
L 2222 3500 
L 2222 3053 
L 1275 3053 
L 1275 0 
L 697 0 
L 697 3053 
L 147 3053 
L 147 3500 
L 697 3500 
L 697 3744 
Q 697 4328 969 4595 
Q 1241 4863 1831 4863 
L 2375 4863 
z
" transform="scale(0.015625)"/>
       <path id="DejaVuSans-69" d="M 603 3500 
L 1178 3500 
L 1178 0 
L 603 0 
L 603 3500 
z
M 603 4863 
L 1178 4863 
L 1178 4134 
L 603 4134 
L 603 4863 
z
" transform="scale(0.015625)"/>
       <path id="DejaVuSans-6c" d="M 603 4863 
L 1178 4863 
L 1178 0 
L 603 0 
L 603 4863 
z
" transform="scale(0.015625)"/>
       <path id="DejaVuSans-64" d="M 2906 2969 
L 2906 4863 
L 3481 4863 
L 3481 0 
L 2906 0 
L 2906 525 
Q 2725 213 2448 61 
Q 2172 -91 1784 -91 
Q 1150 -91 751 415 
Q 353 922 353 1747 
Q 353 2572 751 3078 
Q 1150 3584 1784 3584 
Q 2172 3584 2448 3432 
Q 2725 3281 2906 2969 
z
M 947 1747 
Q 947 1113 1208 752 
Q 1469 391 1925 391 
Q 2381 391 2643 752 
Q 2906 1113 2906 1747 
Q 2906 2381 2643 2742 
Q 2381 3103 1925 3103 
Q 1469 3103 1208 2742 
Q 947 2381 947 1747 
z
" transform="scale(0.015625)"/>
       <path id="DejaVuSans-5e" d="M 2988 4666 
L 4684 2925 
L 4056 2925 
L 2681 4159 
L 1306 2925 
L 678 2925 
L 2375 4666 
L 2988 4666 
z
" transform="scale(0.015625)"/>
      </defs>
      <use xlink:href="#DejaVuSans-45"/>
      <use xlink:href="#DejaVuSans-20" x="63.183594"/>
      <use xlink:href="#DejaVuSans-66" x="94.970703"/>
      <use xlink:href="#DejaVuSans-69" x="130.175781"/>
      <use xlink:href="#DejaVuSans-65" x="157.958984"/>
      <use xlink:href="#DejaVuSans-6c" x="219.482422"/>
      <use xlink:href="#DejaVuSans-64" x="247.265625"/>
      <use xlink:href="#DejaVuSans-20" x="310.742188"/>
      <use xlink:href="#DejaVuSans-5e" x="342.529297"/>
      <use xlink:href="#DejaVuSans-32" x="426.318359"/>
     </g>
    </g>
   </g>
   <g id="line2d_47">
    <path d="M 65.152471 346.6 
L 66.448926 313.115042 
L 67.84044 282.757715 
L 69.267634 256.292335 
L 70.730508 233.181691 
L 72.157703 214.02238 
L 73.513537 198.647006 
L 74.798012 186.508463 
L 75.939767 177.682857 
L 76.974483 171.301173 
L 77.86648 167.056936 
L 78.651436 164.295901 
L 79.329354 162.637825 
L 79.935911 161.699717 
L 80.471109 161.259685 
L 80.970627 161.121722 
L 81.612865 161.200154 
L 82.540541 161.316004 
L 82.933019 161.1381 
L 83.325498 160.692955 
L 83.753656 159.808498 
L 84.253174 158.164701 
L 84.859731 155.273788 
L 85.680368 150.143144 
L 88.070918 134.568907 
L 88.855875 131.116879 
L 89.498113 129.192181 
L 90.033311 128.202239 
L 90.497149 127.754827 
L 90.925307 127.622182 
L 91.460505 127.712017 
L 92.388181 127.915728 
L 92.780659 127.737736 
L 93.137458 127.313215 
L 93.565616 126.401568 
L 94.065134 124.760581 
L 94.778731 121.541163 
L 96.705444 112.382602 
L 97.347681 110.515247 
L 97.847199 109.658598 
L 98.275357 109.31231 
L 98.703516 109.256654 
L 99.274393 109.447498 
L 99.916631 109.619425 
L 100.273429 109.498438 
L 100.630228 109.118803 
L 101.022706 108.349576 
L 101.557904 106.72297 
L 102.4499 103.101927 
L 103.448936 99.322032 
L 104.019814 97.912657 
L 104.483652 97.279942 
L 104.876131 97.07928 
L 105.304289 97.129007 
L 106.517404 97.460182 
L 106.838523 97.227939 
L 107.195321 96.687952 
L 107.659159 95.543769 
L 108.444116 92.863854 
L 109.407472 89.766842 
L 109.94267 88.728788 
L 110.370828 88.344123 
L 110.727627 88.292376 
L 111.191465 88.468672 
L 111.940742 88.769269 
L 112.297541 88.652673 
L 112.654339 88.252748 
L 113.082497 87.381564 
L 113.760415 85.393636 
L 114.723771 82.68405 
L 115.223289 81.898773 
L 115.615767 81.662235 
L 115.972566 81.694236 
L 116.614803 82.043532 
L 117.078641 82.181716 
L 117.39976 82.060981 
L 117.756559 81.649108 
L 118.220397 80.693806 
L 119.89735 76.773043 
L 120.289828 76.513985 
L 120.646627 76.541214 
L 121.217505 76.871545 
L 121.717023 77.075102 
L 122.038141 76.987184 
L 122.35926 76.662912 
L 122.787418 75.878878 
L 124.357332 72.617381 
L 124.714131 72.437865 
L 125.070929 72.506536 
L 126.319724 73.009356 
L 126.640843 72.743662 
L 127.069001 72.039053 
L 128.496195 69.350085 
L 128.852994 69.201386 
L 129.209792 69.301673 
L 130.351548 69.842789 
L 130.672666 69.62458 
L 131.065145 69.050659 
L 132.456659 66.712003 
L 132.813458 66.631524 
L 133.205936 66.813479 
L 134.097933 67.328463 
L 134.419051 67.205542 
L 134.77585 66.794097 
L 135.489447 65.5011 
L 136.024645 64.755368 
L 136.381443 64.585791 
L 136.738242 64.683863 
L 137.951357 65.292167 
L 138.272476 65.043067 
L 138.736314 64.349307 
L 139.556951 63.141048 
L 139.913749 62.985963 
L 140.234868 63.079798 
L 140.877105 63.592881 
L 141.305264 63.767099 
L 141.626382 63.641658 
L 142.018861 63.190116 
L 143.053577 61.826533 
L 143.374695 61.767867 
L 143.731494 61.947573 
L 144.69485 62.580617 
L 145.015969 62.444883 
L 145.408447 61.996452 
L 146.300443 60.917288 
L 146.621562 60.86531 
L 146.978361 61.056579 
L 147.941717 61.715103 
L 148.262835 61.580413 
L 148.690994 61.099572 
L 149.404591 60.301162 
L 149.72571 60.236275 
L 150.082508 60.421839 
L 151.081544 61.128072 
L 151.402663 60.989338 
L 151.866501 60.48076 
L 152.473059 59.894157 
L 152.794177 59.867157 
L 153.150976 60.090514 
L 154.042972 60.785553 
L 154.364091 60.697545 
L 154.792249 60.287895 
L 155.434487 59.715419 
L 155.755605 59.717657 
L 156.112404 59.970676 
L 156.96872 60.662234 
L 157.289839 60.582478 
L 157.753677 60.159712 
L 158.288875 59.74227 
L 158.609994 59.758933 
L 158.966792 60.029321 
L 159.787429 60.73195 
L 160.108548 60.676091 
L 160.572386 60.290853 
L 161.071904 59.945668 
L 161.393023 59.98308 
L 161.785501 60.314728 
L 162.499098 60.969597 
L 162.820217 60.958622 
L 163.248375 60.653885 
L 163.783573 60.313369 
L 164.104692 60.373329 
L 164.49717 60.730553 
L 165.175087 61.379491 
L 165.496206 61.386258 
L 165.924364 61.109916 
L 166.423882 60.834094 
L 166.745001 60.914392 
L 167.137479 61.295252 
L 167.815397 61.953632 
L 168.136515 61.954935 
L 168.600353 61.669566 
L 169.028512 61.495853 
L 169.34963 61.617534 
L 169.777789 62.082529 
L 170.348666 62.651242 
L 170.669785 62.680007 
L 171.133623 62.430596 
L 171.561781 62.294941 
L 171.8829 62.449153 
L 172.346738 62.993477 
L 172.881936 63.508116 
L 173.203055 63.521996 
L 174.202091 63.28723 
L 174.558889 63.631774 
L 175.343846 64.484508 
L 175.664965 64.49653 
L 176.556961 64.312201 
L 176.91376 64.641649 
L 177.770076 65.588338 
L 178.091195 65.589258 
L 178.876152 65.459805 
L 179.197271 65.737977 
L 180.196307 66.820503 
L 180.553105 66.774712 
L 181.088303 66.695818 
L 181.409422 66.919463 
L 181.980299 67.713588 
L 182.408458 68.116659 
L 182.765256 68.137302 
L 183.371814 68.083584 
L 183.692932 68.339232 
L 184.870368 69.597429 
L 185.762364 69.683148 
L 186.154843 70.187404 
L 186.83276 71.065376 
L 187.189558 71.146069 
L 187.831796 71.197127 
L 188.152914 71.530191 
L 189.15195 72.783189 
L 189.580109 72.795987 
L 189.936907 72.873489 
L 190.258026 73.193818 
L 191.328422 74.557342 
L 192.256098 74.870756 
L 192.719936 75.611291 
L 193.255134 76.338001 
L 193.611932 76.463309 
L 194.14713 76.608484 
L 194.468249 76.987502 
L 195.467285 78.397982 
L 196.430641 78.903682 
L 197.643756 80.540793 
L 198.250314 80.804072 
L 198.607112 81.329624 
L 199.427749 82.642665 
L 199.855907 82.812552 
L 200.212706 83.028144 
L 200.569504 83.562759 
L 201.390141 84.948659 
L 201.818299 85.152068 
L 202.175098 85.396706 
L 202.531896 85.966583 
L 203.352533 87.397311 
L 203.887731 87.68349 
L 204.20885 88.019843 
L 204.637008 88.866923 
L 205.207886 89.8943 
L 205.636044 90.180518 
L 205.992842 90.467621 
L 206.349641 91.089799 
L 207.170278 92.65193 
L 208.133634 93.655428 
L 209.13267 95.564052 
L 209.846267 96.271244 
L 210.310105 97.346649 
L 210.845303 98.401238 
L 211.880019 99.749323 
L 212.736335 101.59941 
L 213.556972 102.636338 
L 214.698727 105.049573 
L 215.162565 105.608701 
L 215.555044 106.556353 
L 216.232961 108.21846 
L 217.196317 109.752243 
L 218.088314 111.985393 
L 218.766231 113.005103 
L 219.301429 114.62551 
L 219.765267 115.72442 
L 220.585904 117.164666 
L 221.656299 120.017961 
L 222.120137 120.816487 
L 222.548296 122.182698 
L 223.154853 123.972725 
L 223.97549 125.654315 
L 225.010206 128.795898 
L 225.474044 129.733228 
L 225.902202 131.293482 
L 226.47308 133.215147 
L 227.329396 135.326055 
L 228.221393 138.531081 
L 228.79227 139.898421 
L 229.291788 142.078253 
L 229.791306 143.84177 
L 230.469224 145.677237 
L 231.682339 150.329154 
L 232.039137 151.503017 
L 233.394972 157.00259 
L 233.75177 158.561788 
L 234.643767 162.888201 
L 235.143285 164.598673 
L 235.642803 167.634799 
L 236.106641 169.94398 
L 236.784558 172.63525 
L 237.890634 178.845196 
L 238.247432 180.492436 
L 238.74695 184.289345 
L 239.210788 187.061049 
L 239.781666 189.785094 
L 240.316864 194.433687 
L 240.745022 197.206251 
L 241.28022 200.112327 
L 241.744058 204.747198 
L 242.207896 208.532344 
L 242.778774 212.121436 
L 243.242612 217.652548 
L 243.70645 222.141557 
L 244.241648 226.1206 
L 244.634127 231.742816 
L 245.169324 238.654041 
L 245.740202 244.140443 
L 246.16836 252.525887 
L 246.632198 260.438533 
L 247.167396 267.295651 
L 247.524195 277.014929 
L 248.130752 294.087947 
L 248.594591 303.805737 
L 248.880029 316.677533 
L 249.27994 346.6 
M 250.474425 346.6 
L 250.806742 332.134223 
L 251.591698 308.510896 
L 252.055537 292.360424 
L 252.376655 287.945365 
L 252.769134 283.929535 
L 253.197292 274.864458 
L 253.58977 268.885722 
L 253.910889 267.242831 
L 254.124968 266.002078 
L 254.410407 262.584237 
L 254.945605 256.097382 
L 255.195364 255.185951 
L 255.480803 254.431156 
L 255.694882 252.945259 
L 256.408479 247.053993 
L 256.658238 246.765215 
L 256.836637 246.517397 
L 257.015037 245.778406 
L 257.871353 241.064432 
L 258.228152 240.990611 
L 258.406551 240.423162 
L 259.191508 237.117321 
L 259.655346 237.251387 
L 259.833745 236.697358 
L 260.404623 234.580367 
L 260.547342 234.624617 
L 260.975501 235.097947 
L 261.01118 235.066558 
L 261.18958 234.659622 
L 261.724778 233.176858 
L 261.867497 233.295416 
L 262.367015 234.052038 
L 262.402695 234.020611 
L 262.616774 233.553167 
L 262.973572 232.788924 
L 263.116292 232.867402 
L 263.366051 233.484035 
L 263.65149 234.062969 
L 263.794209 234.015961 
L 264.329407 233.310116 
L 264.400767 233.401032 
L 264.650526 234.119758 
L 265.007324 235.019059 
L 265.150044 235.000239 
L 265.613882 234.675292 
L 265.792281 235.084486 
L 266.434519 236.90973 
L 266.898357 236.872199 
L 267.112436 237.516113 
L 267.718993 239.652656 
L 268.218511 240.004366 
L 268.46827 241.06683 
L 268.967788 243.212258 
L 269.253227 243.455284 
L 269.431626 243.74152 
L 269.645706 244.608964 
L 270.323623 247.879447 
L 270.716101 248.60447 
L 270.96586 249.930177 
L 271.572418 253.402626 
L 272.036256 254.732254 
L 272.357375 257.105849 
L 272.785533 259.93685 
L 273.356411 262.269372 
L 274.319767 269.015186 
L 274.569526 270.552746 
L 275.033364 275.613698 
L 275.390162 278.147793 
L 275.746961 280.265938 
L 276.06808 284.196039 
L 276.531918 289.52808 
L 277.031436 293.45399 
L 277.459594 300.604287 
L 277.852072 305.243296 
L 278.173191 308.348968 
L 278.49431 314.633362 
L 279.029508 324.994556 
L 279.421986 330.459083 
L 279.743105 340.084482 
L 279.921318 346.6 
M 284.390976 346.6 
L 284.773965 338.614858 
L 285.059403 336.827587 
L 285.237803 335.594776 
L 285.487562 331.898663 
L 285.9514 325.348254 
L 286.165479 324.66391 
L 286.343878 324.25623 
L 286.522277 323.036117 
L 287.200195 316.944906 
L 287.342914 316.9418 
L 287.485634 316.923337 
L 287.628353 316.483976 
L 287.878112 314.53288 
L 288.234911 312.197191 
L 288.34195 312.120897 
L 288.37763 312.151125 
L 288.698749 312.564234 
L 288.734429 312.518165 
L 288.877148 312.014842 
L 289.412346 309.567537 
L 289.555065 309.843085 
L 289.876184 310.646645 
L 289.911864 310.631002 
L 290.054583 310.28086 
L 290.482741 308.88569 
L 290.589781 309.065151 
L 291.089299 310.757801 
L 291.160659 310.686553 
L 291.553137 309.875897 
L 291.624497 309.970085 
L 291.802896 310.707828 
L 292.231054 312.722081 
L 292.373774 312.67722 
L 292.623533 312.459929 
L 292.730572 312.67287 
L 292.944652 313.887567 
L 293.37281 316.480197 
L 293.551209 316.602042 
L 293.693928 316.66409 
L 293.836648 317.076022 
L 294.050727 318.618558 
L 294.514565 322.158197 
L 294.978403 323.595537 
L 295.263842 326.601627 
L 295.656321 330.038493 
L 296.048799 331.833891 
L 296.334238 335.440362 
L 296.762396 340.450198 
L 297.154875 343.135683 
L 297.37407 346.6 
L 297.37407 346.6 
" clip-path="url(#p918da50762)" style="fill: none; stroke: #1f77b4; stroke-width: 1.5; stroke-linecap: square"/>
   </g>
   <g id="patch_3">
    <path d="M 57.6 307.584 
L 57.6 41.472 
" style="fill: none; stroke: #000000; stroke-width: 0.8; stroke-linejoin: miter; stroke-linecap: square"/>
   </g>
   <g id="patch_4">
    <path d="M 414.72 307.584 
L 414.72 41.472 
" style="fill: none; stroke: #000000; stroke-width: 0.8; stroke-linejoin: miter; stroke-linecap: square"/>
   </g>
   <g id="patch_5">
    <path d="M 57.6 307.584 
L 414.72 307.584 
" style="fill: none; stroke: #000000; stroke-width: 0.8; stroke-linejoin: miter; stroke-linecap: square"/>
   </g>
   <g id="patch_6">
    <path d="M 57.6 41.472 
L 414.72 41.472 
" style="fill: none; stroke: #000000; stroke-width: 0.8; stroke-linejoin: miter; stroke-linecap: square"/>
   </g>
   <g id="text_15">
    <!-- Detected E-field (Frequency domain) -->
    <g transform="translate(125.88 35.472) scale(0.12 -0.12)">
     <defs>
      <path id="DejaVuSans-44" d="M 1259 4147 
L 1259 519 
L 2022 519 
Q 2988 519 3436 956 
Q 3884 1394 3884 2338 
Q 3884 3275 3436 3711 
Q 2988 4147 2022 4147 
L 1259 4147 
z
M 628 4666 
L 1925 4666 
Q 3281 4666 3915 4102 
Q 4550 3538 4550 2338 
Q 4550 1131 3912 565 
Q 3275 0 1925 0 
L 628 0 
L 628 4666 
z
" transform="scale(0.015625)"/>
      <path id="DejaVuSans-74" d="M 1172 4494 
L 1172 3500 
L 2356 3500 
L 2356 3053 
L 1172 3053 
L 1172 1153 
Q 1172 725 1289 603 
Q 1406 481 1766 481 
L 2356 481 
L 2356 0 
L 1766 0 
Q 1100 0 847 248 
Q 594 497 594 1153 
L 594 3053 
L 172 3053 
L 172 3500 
L 594 3500 
L 594 4494 
L 1172 4494 
z
" transform="scale(0.015625)"/>
      <path id="DejaVuSans-63" d="M 3122 3366 
L 3122 2828 
Q 2878 2963 2633 3030 
Q 2388 3097 2138 3097 
Q 1578 3097 1268 2742 
Q 959 2388 959 1747 
Q 959 1106 1268 751 
Q 1578 397 2138 397 
Q 2388 397 2633 464 
Q 2878 531 3122 666 
L 3122 134 
Q 2881 22 2623 -34 
Q 2366 -91 2075 -91 
Q 1284 -91 818 406 
Q 353 903 353 1747 
Q 353 2603 823 3093 
Q 1294 3584 2113 3584 
Q 2378 3584 2631 3529 
Q 2884 3475 3122 3366 
z
" transform="scale(0.015625)"/>
      <path id="DejaVuSans-2d" d="M 313 2009 
L 1997 2009 
L 1997 1497 
L 313 1497 
L 313 2009 
z
" transform="scale(0.015625)"/>
      <path id="DejaVuSans-28" d="M 1984 4856 
Q 1566 4138 1362 3434 
Q 1159 2731 1159 2009 
Q 1159 1288 1364 580 
Q 1569 -128 1984 -844 
L 1484 -844 
Q 1016 -109 783 600 
Q 550 1309 550 2009 
Q 550 2706 781 3412 
Q 1013 4119 1484 4856 
L 1984 4856 
z
" transform="scale(0.015625)"/>
      <path id="DejaVuSans-75" d="M 544 1381 
L 544 3500 
L 1119 3500 
L 1119 1403 
Q 1119 906 1312 657 
Q 1506 409 1894 409 
Q 2359 409 2629 706 
Q 2900 1003 2900 1516 
L 2900 3500 
L 3475 3500 
L 3475 0 
L 2900 0 
L 2900 538 
Q 2691 219 2414 64 
Q 2138 -91 1772 -91 
Q 1169 -91 856 284 
Q 544 659 544 1381 
z
M 1991 3584 
L 1991 3584 
z
" transform="scale(0.015625)"/>
      <path id="DejaVuSans-6e" d="M 3513 2113 
L 3513 0 
L 2938 0 
L 2938 2094 
Q 2938 2591 2744 2837 
Q 2550 3084 2163 3084 
Q 1697 3084 1428 2787 
Q 1159 2491 1159 1978 
L 1159 0 
L 581 0 
L 581 3500 
L 1159 3500 
L 1159 2956 
Q 1366 3272 1645 3428 
Q 1925 3584 2291 3584 
Q 2894 3584 3203 3211 
Q 3513 2838 3513 2113 
z
" transform="scale(0.015625)"/>
      <path id="DejaVuSans-79" d="M 2059 -325 
Q 1816 -950 1584 -1140 
Q 1353 -1331 966 -1331 
L 506 -1331 
L 506 -850 
L 844 -850 
Q 1081 -850 1212 -737 
Q 1344 -625 1503 -206 
L 1606 56 
L 191 3500 
L 800 3500 
L 1894 763 
L 2988 3500 
L 3597 3500 
L 2059 -325 
z
" transform="scale(0.015625)"/>
      <path id="DejaVuSans-6f" d="M 1959 3097 
Q 1497 3097 1228 2736 
Q 959 2375 959 1747 
Q 959 1119 1226 758 
Q 1494 397 1959 397 
Q 2419 397 2687 759 
Q 2956 1122 2956 1747 
Q 2956 2369 2687 2733 
Q 2419 3097 1959 3097 
z
M 1959 3584 
Q 2709 3584 3137 3096 
Q 3566 2609 3566 1747 
Q 3566 888 3137 398 
Q 2709 -91 1959 -91 
Q 1206 -91 779 398 
Q 353 888 353 1747 
Q 353 2609 779 3096 
Q 1206 3584 1959 3584 
z
" transform="scale(0.015625)"/>
      <path id="DejaVuSans-6d" d="M 3328 2828 
Q 3544 3216 3844 3400 
Q 4144 3584 4550 3584 
Q 5097 3584 5394 3201 
Q 5691 2819 5691 2113 
L 5691 0 
L 5113 0 
L 5113 2094 
Q 5113 2597 4934 2840 
Q 4756 3084 4391 3084 
Q 3944 3084 3684 2787 
Q 3425 2491 3425 1978 
L 3425 0 
L 2847 0 
L 2847 2094 
Q 2847 2600 2669 2842 
Q 2491 3084 2119 3084 
Q 1678 3084 1418 2786 
Q 1159 2488 1159 1978 
L 1159 0 
L 581 0 
L 581 3500 
L 1159 3500 
L 1159 2956 
Q 1356 3278 1631 3431 
Q 1906 3584 2284 3584 
Q 2666 3584 2933 3390 
Q 3200 3197 3328 2828 
z
" transform="scale(0.015625)"/>
      <path id="DejaVuSans-61" d="M 2194 1759 
Q 1497 1759 1228 1600 
Q 959 1441 959 1056 
Q 959 750 1161 570 
Q 1363 391 1709 391 
Q 2188 391 2477 730 
Q 2766 1069 2766 1631 
L 2766 1759 
L 2194 1759 
z
M 3341 1997 
L 3341 0 
L 2766 0 
L 2766 531 
Q 2569 213 2275 61 
Q 1981 -91 1556 -91 
Q 1019 -91 701 211 
Q 384 513 384 1019 
Q 384 1609 779 1909 
Q 1175 2209 1959 2209 
L 2766 2209 
L 2766 2266 
Q 2766 2663 2505 2880 
Q 2244 3097 1772 3097 
Q 1472 3097 1187 3025 
Q 903 2953 641 2809 
L 641 3341 
Q 956 3463 1253 3523 
Q 1550 3584 1831 3584 
Q 2591 3584 2966 3190 
Q 3341 2797 3341 1997 
z
" transform="scale(0.015625)"/>
      <path id="DejaVuSans-29" d="M 513 4856 
L 1013 4856 
Q 1481 4119 1714 3412 
Q 1947 2706 1947 2009 
Q 1947 1309 1714 600 
Q 1481 -109 1013 -844 
L 513 -844 
Q 928 -128 1133 580 
Q 1338 1288 1338 2009 
Q 1338 2731 1133 3434 
Q 928 4138 513 4856 
z
" transform="scale(0.015625)"/>
     </defs>
     <use xlink:href="#DejaVuSans-44"/>
     <use xlink:href="#DejaVuSans-65" x="77.001953"/>
     <use xlink:href="#DejaVuSans-74" x="138.525391"/>
     <use xlink:href="#DejaVuSans-65" x="177.734375"/>
     <use xlink:href="#DejaVuSans-63" x="239.257812"/>
     <use xlink:href="#DejaVuSans-74" x="294.238281"/>
     <use xlink:href="#DejaVuSans-65" x="333.447266"/>
     <use xlink:href="#DejaVuSans-64" x="394.970703"/>
     <use xlink:href="#DejaVuSans-20" x="458.447266"/>
     <use xlink:href="#DejaVuSans-45" x="490.234375"/>
     <use xlink:href="#DejaVuSans-2d" x="553.417969"/>
     <use xlink:href="#DejaVuSans-66" x="589.501953"/>
     <use xlink:href="#DejaVuSans-69" x="624.707031"/>
     <use xlink:href="#DejaVuSans-65" x="652.490234"/>
     <use xlink:href="#DejaVuSans-6c" x="714.013672"/>
     <use xlink:href="#DejaVuSans-64" x="741.796875"/>
     <use xlink:href="#DejaVuSans-20" x="805.273438"/>
     <use xlink:href="#DejaVuSans-28" x="837.060547"/>
     <use xlink:href="#DejaVuSans-46" x="876.074219"/>
     <use xlink:href="#DejaVuSans-72" x="926.34375"/>
     <use xlink:href="#DejaVuSans-65" x="965.207031"/>
     <use xlink:href="#DejaVuSans-71" x="1026.730469"/>
     <use xlink:href="#DejaVuSans-75" x="1090.207031"/>
     <use xlink:href="#DejaVuSans-65" x="1153.585938"/>
     <use xlink:href="#DejaVuSans-6e" x="1215.109375"/>
     <use xlink:href="#DejaVuSans-63" x="1278.488281"/>
     <use xlink:href="#DejaVuSans-79" x="1333.46875"/>
     <use xlink:href="#DejaVuSans-20" x="1392.648438"/>
     <use xlink:href="#DejaVuSans-64" x="1424.435547"/>
     <use xlink:href="#DejaVuSans-6f" x="1487.912109"/>
     <use xlink:href="#DejaVuSans-6d" x="1549.09375"/>
     <use xlink:href="#DejaVuSans-61" x="1646.505859"/>
     <use xlink:href="#DejaVuSans-69" x="1707.785156"/>
     <use xlink:href="#DejaVuSans-6e" x="1735.568359"/>
     <use xlink:href="#DejaVuSans-29" x="1798.947266"/>
    </g>
   </g>
  </g>
 </g>
 <defs>
  <clipPath id="p918da50762">
   <rect x="57.6" y="41.472" width="357.12" height="266.112"/>
  </clipPath>
 </defs>
</svg>
