<?xml version="1.0" encoding="utf-8" standalone="no"?>
<!DOCTYPE svg PUBLIC "-//W3C//DTD SVG 1.1//EN"
  "http://www.w3.org/Graphics/SVG/1.1/DTD/svg11.dtd">
<svg xmlns:xlink="http://www.w3.org/1999/xlink" width="460.8pt" height="345.6pt" viewBox="0 0 460.8 345.6" xmlns="http://www.w3.org/2000/svg" version="1.1">
 <metadata>
  <rdf:RDF xmlns:dc="http://purl.org/dc/elements/1.1/" xmlns:cc="http://creativecommons.org/ns#" xmlns:rdf="http://www.w3.org/1999/02/22-rdf-syntax-ns#">
   <cc:Work>
    <dc:type rdf:resource="http://purl.org/dc/dcmitype/StillImage"/>
    <dc:date>2024-05-27T20:40:40.176869</dc:date>
    <dc:format>image/svg+xml</dc:format>
    <dc:creator>
     <cc:Agent>
      <dc:title>Matplotlib v3.8.3, https://matplotlib.org/</dc:title>
     </cc:Agent>
    </dc:creator>
   </cc:Work>
  </rdf:RDF>
 </metadata>
 <defs>
  <style type="text/css">*{stroke-linejoin: round; stroke-linecap: butt}</style>
 </defs>
 <g id="figure_1">
  <g id="patch_1">
   <path d="M 0 345.6 
L 460.8 345.6 
L 460.8 0 
L 0 0 
z
" style="fill: #ffffff"/>
  </g>
  <g id="axes_1">
   <g id="patch_2">
    <path d="M 57.6 307.584 
L 414.72 307.584 
L 414.72 41.472 
L 57.6 41.472 
z
" style="fill: #ffffff"/>
   </g>
   <g id="matplotlib.axis_1">
    <g id="xtick_1">
     <g id="line2d_1">
      <defs>
       <path id="m4e7e6ef501" d="M 0 0 
L 0 3.5 
" style="stroke: #000000; stroke-width: 0.8"/>
      </defs>
      <g>
       <use xlink:href="#m4e7e6ef501" x="57.6" y="307.584" style="stroke: #000000; stroke-width: 0.8"/>
      </g>
     </g>
     <g id="text_1">
      <!-- 0.0 -->
      <g transform="translate(49.648438 322.182437) scale(0.1 -0.1)">
       <defs>
        <path id="DejaVuSans-30" d="M 2034 4250 
Q 1547 4250 1301 3770 
Q 1056 3291 1056 2328 
Q 1056 1369 1301 889 
Q 1547 409 2034 409 
Q 2525 409 2770 889 
Q 3016 1369 3016 2328 
Q 3016 3291 2770 3770 
Q 2525 4250 2034 4250 
z
M 2034 4750 
Q 2819 4750 3233 4129 
Q 3647 3509 3647 2328 
Q 3647 1150 3233 529 
Q 2819 -91 2034 -91 
Q 1250 -91 836 529 
Q 422 1150 422 2328 
Q 422 3509 836 4129 
Q 1250 4750 2034 4750 
z
" transform="scale(0.015625)"/>
        <path id="DejaVuSans-2e" d="M 684 794 
L 1344 794 
L 1344 0 
L 684 0 
L 684 794 
z
" transform="scale(0.015625)"/>
       </defs>
       <use xlink:href="#DejaVuSans-30"/>
       <use xlink:href="#DejaVuSans-2e" x="63.623047"/>
       <use xlink:href="#DejaVuSans-30" x="95.410156"/>
      </g>
     </g>
    </g>
    <g id="xtick_2">
     <g id="line2d_2">
      <g>
       <use xlink:href="#m4e7e6ef501" x="129.024" y="307.584" style="stroke: #000000; stroke-width: 0.8"/>
      </g>
     </g>
     <g id="text_2">
      <!-- 0.2 -->
      <g transform="translate(121.072438 322.182437) scale(0.1 -0.1)">
       <defs>
        <path id="DejaVuSans-32" d="M 1228 531 
L 3431 531 
L 3431 0 
L 469 0 
L 469 531 
Q 828 903 1448 1529 
Q 2069 2156 2228 2338 
Q 2531 2678 2651 2914 
Q 2772 3150 2772 3378 
Q 2772 3750 2511 3984 
Q 2250 4219 1831 4219 
Q 1534 4219 1204 4116 
Q 875 4013 500 3803 
L 500 4441 
Q 881 4594 1212 4672 
Q 1544 4750 1819 4750 
Q 2544 4750 2975 4387 
Q 3406 4025 3406 3419 
Q 3406 3131 3298 2873 
Q 3191 2616 2906 2266 
Q 2828 2175 2409 1742 
Q 1991 1309 1228 531 
z
" transform="scale(0.015625)"/>
       </defs>
       <use xlink:href="#DejaVuSans-30"/>
       <use xlink:href="#DejaVuSans-2e" x="63.623047"/>
       <use xlink:href="#DejaVuSans-32" x="95.410156"/>
      </g>
     </g>
    </g>
    <g id="xtick_3">
     <g id="line2d_3">
      <g>
       <use xlink:href="#m4e7e6ef501" x="200.448" y="307.584" style="stroke: #000000; stroke-width: 0.8"/>
      </g>
     </g>
     <g id="text_3">
      <!-- 0.4 -->
      <g transform="translate(192.496438 322.182437) scale(0.1 -0.1)">
       <defs>
        <path id="DejaVuSans-34" d="M 2419 4116 
L 825 1625 
L 2419 1625 
L 2419 4116 
z
M 2253 4666 
L 3047 4666 
L 3047 1625 
L 3713 1625 
L 3713 1100 
L 3047 1100 
L 3047 0 
L 2419 0 
L 2419 1100 
L 313 1100 
L 313 1709 
L 2253 4666 
z
" transform="scale(0.015625)"/>
       </defs>
       <use xlink:href="#DejaVuSans-30"/>
       <use xlink:href="#DejaVuSans-2e" x="63.623047"/>
       <use xlink:href="#DejaVuSans-34" x="95.410156"/>
      </g>
     </g>
    </g>
    <g id="xtick_4">
     <g id="line2d_4">
      <g>
       <use xlink:href="#m4e7e6ef501" x="271.872" y="307.584" style="stroke: #000000; stroke-width: 0.8"/>
      </g>
     </g>
     <g id="text_4">
      <!-- 0.6 -->
      <g transform="translate(263.920437 322.182437) scale(0.1 -0.1)">
       <defs>
        <path id="DejaVuSans-36" d="M 2113 2584 
Q 1688 2584 1439 2293 
Q 1191 2003 1191 1497 
Q 1191 994 1439 701 
Q 1688 409 2113 409 
Q 2538 409 2786 701 
Q 3034 994 3034 1497 
Q 3034 2003 2786 2293 
Q 2538 2584 2113 2584 
z
M 3366 4563 
L 3366 3988 
Q 3128 4100 2886 4159 
Q 2644 4219 2406 4219 
Q 1781 4219 1451 3797 
Q 1122 3375 1075 2522 
Q 1259 2794 1537 2939 
Q 1816 3084 2150 3084 
Q 2853 3084 3261 2657 
Q 3669 2231 3669 1497 
Q 3669 778 3244 343 
Q 2819 -91 2113 -91 
Q 1303 -91 875 529 
Q 447 1150 447 2328 
Q 447 3434 972 4092 
Q 1497 4750 2381 4750 
Q 2619 4750 2861 4703 
Q 3103 4656 3366 4563 
z
" transform="scale(0.015625)"/>
       </defs>
       <use xlink:href="#DejaVuSans-30"/>
       <use xlink:href="#DejaVuSans-2e" x="63.623047"/>
       <use xlink:href="#DejaVuSans-36" x="95.410156"/>
      </g>
     </g>
    </g>
    <g id="xtick_5">
     <g id="line2d_5">
      <g>
       <use xlink:href="#m4e7e6ef501" x="343.296" y="307.584" style="stroke: #000000; stroke-width: 0.8"/>
      </g>
     </g>
     <g id="text_5">
      <!-- 0.8 -->
      <g transform="translate(335.344438 322.182437) scale(0.1 -0.1)">
       <defs>
        <path id="DejaVuSans-38" d="M 2034 2216 
Q 1584 2216 1326 1975 
Q 1069 1734 1069 1313 
Q 1069 891 1326 650 
Q 1584 409 2034 409 
Q 2484 409 2743 651 
Q 3003 894 3003 1313 
Q 3003 1734 2745 1975 
Q 2488 2216 2034 2216 
z
M 1403 2484 
Q 997 2584 770 2862 
Q 544 3141 544 3541 
Q 544 4100 942 4425 
Q 1341 4750 2034 4750 
Q 2731 4750 3128 4425 
Q 3525 4100 3525 3541 
Q 3525 3141 3298 2862 
Q 3072 2584 2669 2484 
Q 3125 2378 3379 2068 
Q 3634 1759 3634 1313 
Q 3634 634 3220 271 
Q 2806 -91 2034 -91 
Q 1263 -91 848 271 
Q 434 634 434 1313 
Q 434 1759 690 2068 
Q 947 2378 1403 2484 
z
M 1172 3481 
Q 1172 3119 1398 2916 
Q 1625 2713 2034 2713 
Q 2441 2713 2670 2916 
Q 2900 3119 2900 3481 
Q 2900 3844 2670 4047 
Q 2441 4250 2034 4250 
Q 1625 4250 1398 4047 
Q 1172 3844 1172 3481 
z
" transform="scale(0.015625)"/>
       </defs>
       <use xlink:href="#DejaVuSans-30"/>
       <use xlink:href="#DejaVuSans-2e" x="63.623047"/>
       <use xlink:href="#DejaVuSans-38" x="95.410156"/>
      </g>
     </g>
    </g>
    <g id="xtick_6">
     <g id="line2d_6">
      <g>
       <use xlink:href="#m4e7e6ef501" x="414.72" y="307.584" style="stroke: #000000; stroke-width: 0.8"/>
      </g>
     </g>
     <g id="text_6">
      <!-- 1.0 -->
      <g transform="translate(406.768438 322.182437) scale(0.1 -0.1)">
       <defs>
        <path id="DejaVuSans-31" d="M 794 531 
L 1825 531 
L 1825 4091 
L 703 3866 
L 703 4441 
L 1819 4666 
L 2450 4666 
L 2450 531 
L 3481 531 
L 3481 0 
L 794 0 
L 794 531 
z
" transform="scale(0.015625)"/>
       </defs>
       <use xlink:href="#DejaVuSans-31"/>
       <use xlink:href="#DejaVuSans-2e" x="63.623047"/>
       <use xlink:href="#DejaVuSans-30" x="95.410156"/>
      </g>
     </g>
    </g>
    <g id="text_7">
     <!-- Freq -->
     <g transform="translate(225.452969 335.860562) scale(0.1 -0.1)">
      <defs>
       <path id="DejaVuSans-46" d="M 628 4666 
L 3309 4666 
L 3309 4134 
L 1259 4134 
L 1259 2759 
L 3109 2759 
L 3109 2228 
L 1259 2228 
L 1259 0 
L 628 0 
L 628 4666 
z
" transform="scale(0.015625)"/>
       <path id="DejaVuSans-72" d="M 2631 2963 
Q 2534 3019 2420 3045 
Q 2306 3072 2169 3072 
Q 1681 3072 1420 2755 
Q 1159 2438 1159 1844 
L 1159 0 
L 581 0 
L 581 3500 
L 1159 3500 
L 1159 2956 
Q 1341 3275 1631 3429 
Q 1922 3584 2338 3584 
Q 2397 3584 2469 3576 
Q 2541 3569 2628 3553 
L 2631 2963 
z
" transform="scale(0.015625)"/>
       <path id="DejaVuSans-65" d="M 3597 1894 
L 3597 1613 
L 953 1613 
Q 991 1019 1311 708 
Q 1631 397 2203 397 
Q 2534 397 2845 478 
Q 3156 559 3463 722 
L 3463 178 
Q 3153 47 2828 -22 
Q 2503 -91 2169 -91 
Q 1331 -91 842 396 
Q 353 884 353 1716 
Q 353 2575 817 3079 
Q 1281 3584 2069 3584 
Q 2775 3584 3186 3129 
Q 3597 2675 3597 1894 
z
M 3022 2063 
Q 3016 2534 2758 2815 
Q 2500 3097 2075 3097 
Q 1594 3097 1305 2825 
Q 1016 2553 972 2059 
L 3022 2063 
z
" transform="scale(0.015625)"/>
       <path id="DejaVuSans-71" d="M 947 1747 
Q 947 1113 1208 752 
Q 1469 391 1925 391 
Q 2381 391 2643 752 
Q 2906 1113 2906 1747 
Q 2906 2381 2643 2742 
Q 2381 3103 1925 3103 
Q 1469 3103 1208 2742 
Q 947 2381 947 1747 
z
M 2906 525 
Q 2725 213 2448 61 
Q 2172 -91 1784 -91 
Q 1150 -91 751 415 
Q 353 922 353 1747 
Q 353 2572 751 3078 
Q 1150 3584 1784 3584 
Q 2172 3584 2448 3432 
Q 2725 3281 2906 2969 
L 2906 3500 
L 3481 3500 
L 3481 -1331 
L 2906 -1331 
L 2906 525 
z
" transform="scale(0.015625)"/>
      </defs>
      <use xlink:href="#DejaVuSans-46"/>
      <use xlink:href="#DejaVuSans-72" x="50.269531"/>
      <use xlink:href="#DejaVuSans-65" x="89.132812"/>
      <use xlink:href="#DejaVuSans-71" x="150.65625"/>
     </g>
    </g>
    <g id="text_8">
     <!-- 1e13 -->
     <g transform="translate(389.479375 334.860562) scale(0.1 -0.1)">
      <defs>
       <path id="DejaVuSans-33" d="M 2597 2516 
Q 3050 2419 3304 2112 
Q 3559 1806 3559 1356 
Q 3559 666 3084 287 
Q 2609 -91 1734 -91 
Q 1441 -91 1130 -33 
Q 819 25 488 141 
L 488 750 
Q 750 597 1062 519 
Q 1375 441 1716 441 
Q 2309 441 2620 675 
Q 2931 909 2931 1356 
Q 2931 1769 2642 2001 
Q 2353 2234 1838 2234 
L 1294 2234 
L 1294 2753 
L 1863 2753 
Q 2328 2753 2575 2939 
Q 2822 3125 2822 3475 
Q 2822 3834 2567 4026 
Q 2313 4219 1838 4219 
Q 1578 4219 1281 4162 
Q 984 4106 628 3988 
L 628 4550 
Q 988 4650 1302 4700 
Q 1616 4750 1894 4750 
Q 2613 4750 3031 4423 
Q 3450 4097 3450 3541 
Q 3450 3153 3228 2886 
Q 3006 2619 2597 2516 
z
" transform="scale(0.015625)"/>
      </defs>
      <use xlink:href="#DejaVuSans-31"/>
      <use xlink:href="#DejaVuSans-65" x="63.623047"/>
      <use xlink:href="#DejaVuSans-31" x="125.146484"/>
      <use xlink:href="#DejaVuSans-33" x="188.769531"/>
     </g>
    </g>
   </g>
   <g id="matplotlib.axis_2">
    <g id="ytick_1">
     <g id="line2d_7">
      <defs>
       <path id="m2c518b0d23" d="M 0 0 
L -3.5 0 
" style="stroke: #000000; stroke-width: 0.8"/>
      </defs>
      <g>
       <use xlink:href="#m2c518b0d23" x="57.6" y="301.720137" style="stroke: #000000; stroke-width: 0.8"/>
      </g>
     </g>
     <g id="text_9">
      <!-- $\mathdefault{10^{-4}}$ -->
      <g transform="translate(27.1 305.519356) scale(0.1 -0.1)">
       <defs>
        <path id="DejaVuSans-2212" d="M 678 2272 
L 4684 2272 
L 4684 1741 
L 678 1741 
L 678 2272 
z
" transform="scale(0.015625)"/>
       </defs>
       <use xlink:href="#DejaVuSans-31" transform="translate(0 0.684375)"/>
       <use xlink:href="#DejaVuSans-30" transform="translate(63.623047 0.684375)"/>
       <use xlink:href="#DejaVuSans-2212" transform="translate(128.203125 38.965625) scale(0.7)"/>
       <use xlink:href="#DejaVuSans-34" transform="translate(186.855469 38.965625) scale(0.7)"/>
      </g>
     </g>
    </g>
    <g id="ytick_2">
     <g id="line2d_8">
      <g>
       <use xlink:href="#m2c518b0d23" x="57.6" y="241.211808" style="stroke: #000000; stroke-width: 0.8"/>
      </g>
     </g>
     <g id="text_10">
      <!-- $\mathdefault{10^{-3}}$ -->
      <g transform="translate(27.1 245.011027) scale(0.1 -0.1)">
       <use xlink:href="#DejaVuSans-31" transform="translate(0 0.765625)"/>
       <use xlink:href="#DejaVuSans-30" transform="translate(63.623047 0.765625)"/>
       <use xlink:href="#DejaVuSans-2212" transform="translate(128.203125 39.046875) scale(0.7)"/>
       <use xlink:href="#DejaVuSans-33" transform="translate(186.855469 39.046875) scale(0.7)"/>
      </g>
     </g>
    </g>
    <g id="ytick_3">
     <g id="line2d_9">
      <g>
       <use xlink:href="#m2c518b0d23" x="57.6" y="180.70348" style="stroke: #000000; stroke-width: 0.8"/>
      </g>
     </g>
     <g id="text_11">
      <!-- $\mathdefault{10^{-2}}$ -->
      <g transform="translate(27.1 184.502698) scale(0.1 -0.1)">
       <use xlink:href="#DejaVuSans-31" transform="translate(0 0.765625)"/>
       <use xlink:href="#DejaVuSans-30" transform="translate(63.623047 0.765625)"/>
       <use xlink:href="#DejaVuSans-2212" transform="translate(128.203125 39.046875) scale(0.7)"/>
       <use xlink:href="#DejaVuSans-32" transform="translate(186.855469 39.046875) scale(0.7)"/>
      </g>
     </g>
    </g>
    <g id="ytick_4">
     <g id="line2d_10">
      <g>
       <use xlink:href="#m2c518b0d23" x="57.6" y="120.195151" style="stroke: #000000; stroke-width: 0.8"/>
      </g>
     </g>
     <g id="text_12">
      <!-- $\mathdefault{10^{-1}}$ -->
      <g transform="translate(27.1 123.994369) scale(0.1 -0.1)">
       <use xlink:href="#DejaVuSans-31" transform="translate(0 0.684375)"/>
       <use xlink:href="#DejaVuSans-30" transform="translate(63.623047 0.684375)"/>
       <use xlink:href="#DejaVuSans-2212" transform="translate(128.203125 38.965625) scale(0.7)"/>
       <use xlink:href="#DejaVuSans-31" transform="translate(186.855469 38.965625) scale(0.7)"/>
      </g>
     </g>
    </g>
    <g id="ytick_5">
     <g id="line2d_11">
      <g>
       <use xlink:href="#m2c518b0d23" x="57.6" y="59.686822" style="stroke: #000000; stroke-width: 0.8"/>
      </g>
     </g>
     <g id="text_13">
      <!-- $\mathdefault{10^{0}}$ -->
      <g transform="translate(33 63.486041) scale(0.1 -0.1)">
       <use xlink:href="#DejaVuSans-31" transform="translate(0 0.765625)"/>
       <use xlink:href="#DejaVuSans-30" transform="translate(63.623047 0.765625)"/>
       <use xlink:href="#DejaVuSans-30" transform="translate(128.203125 39.046875) scale(0.7)"/>
      </g>
     </g>
    </g>
    <g id="ytick_6">
     <g id="line2d_12">
      <defs>
       <path id="m7025a34646" d="M 0 0 
L -2 0 
" style="stroke: #000000; stroke-width: 0.6"/>
      </defs>
      <g>
       <use xlink:href="#m7025a34646" x="57.6" y="307.584" style="stroke: #000000; stroke-width: 0.6"/>
      </g>
     </g>
    </g>
    <g id="ytick_7">
     <g id="line2d_13">
      <g>
       <use xlink:href="#m7025a34646" x="57.6" y="304.488846" style="stroke: #000000; stroke-width: 0.6"/>
      </g>
     </g>
    </g>
    <g id="ytick_8">
     <g id="line2d_14">
      <g>
       <use xlink:href="#m7025a34646" x="57.6" y="283.505315" style="stroke: #000000; stroke-width: 0.6"/>
      </g>
     </g>
    </g>
    <g id="ytick_9">
     <g id="line2d_15">
      <g>
       <use xlink:href="#m7025a34646" x="57.6" y="272.850327" style="stroke: #000000; stroke-width: 0.6"/>
      </g>
     </g>
    </g>
    <g id="ytick_10">
     <g id="line2d_16">
      <g>
       <use xlink:href="#m7025a34646" x="57.6" y="265.290493" style="stroke: #000000; stroke-width: 0.6"/>
      </g>
     </g>
    </g>
    <g id="ytick_11">
     <g id="line2d_17">
      <g>
       <use xlink:href="#m7025a34646" x="57.6" y="259.42663" style="stroke: #000000; stroke-width: 0.6"/>
      </g>
     </g>
    </g>
    <g id="ytick_12">
     <g id="line2d_18">
      <g>
       <use xlink:href="#m7025a34646" x="57.6" y="254.635505" style="stroke: #000000; stroke-width: 0.6"/>
      </g>
     </g>
    </g>
    <g id="ytick_13">
     <g id="line2d_19">
      <g>
       <use xlink:href="#m7025a34646" x="57.6" y="250.584667" style="stroke: #000000; stroke-width: 0.6"/>
      </g>
     </g>
    </g>
    <g id="ytick_14">
     <g id="line2d_20">
      <g>
       <use xlink:href="#m7025a34646" x="57.6" y="247.075671" style="stroke: #000000; stroke-width: 0.6"/>
      </g>
     </g>
    </g>
    <g id="ytick_15">
     <g id="line2d_21">
      <g>
       <use xlink:href="#m7025a34646" x="57.6" y="243.980518" style="stroke: #000000; stroke-width: 0.6"/>
      </g>
     </g>
    </g>
    <g id="ytick_16">
     <g id="line2d_22">
      <g>
       <use xlink:href="#m7025a34646" x="57.6" y="222.996986" style="stroke: #000000; stroke-width: 0.6"/>
      </g>
     </g>
    </g>
    <g id="ytick_17">
     <g id="line2d_23">
      <g>
       <use xlink:href="#m7025a34646" x="57.6" y="212.341999" style="stroke: #000000; stroke-width: 0.6"/>
      </g>
     </g>
    </g>
    <g id="ytick_18">
     <g id="line2d_24">
      <g>
       <use xlink:href="#m7025a34646" x="57.6" y="204.782164" style="stroke: #000000; stroke-width: 0.6"/>
      </g>
     </g>
    </g>
    <g id="ytick_19">
     <g id="line2d_25">
      <g>
       <use xlink:href="#m7025a34646" x="57.6" y="198.918301" style="stroke: #000000; stroke-width: 0.6"/>
      </g>
     </g>
    </g>
    <g id="ytick_20">
     <g id="line2d_26">
      <g>
       <use xlink:href="#m7025a34646" x="57.6" y="194.127177" style="stroke: #000000; stroke-width: 0.6"/>
      </g>
     </g>
    </g>
    <g id="ytick_21">
     <g id="line2d_27">
      <g>
       <use xlink:href="#m7025a34646" x="57.6" y="190.076338" style="stroke: #000000; stroke-width: 0.6"/>
      </g>
     </g>
    </g>
    <g id="ytick_22">
     <g id="line2d_28">
      <g>
       <use xlink:href="#m7025a34646" x="57.6" y="186.567342" style="stroke: #000000; stroke-width: 0.6"/>
      </g>
     </g>
    </g>
    <g id="ytick_23">
     <g id="line2d_29">
      <g>
       <use xlink:href="#m7025a34646" x="57.6" y="183.472189" style="stroke: #000000; stroke-width: 0.6"/>
      </g>
     </g>
    </g>
    <g id="ytick_24">
     <g id="line2d_30">
      <g>
       <use xlink:href="#m7025a34646" x="57.6" y="162.488658" style="stroke: #000000; stroke-width: 0.6"/>
      </g>
     </g>
    </g>
    <g id="ytick_25">
     <g id="line2d_31">
      <g>
       <use xlink:href="#m7025a34646" x="57.6" y="151.83367" style="stroke: #000000; stroke-width: 0.6"/>
      </g>
     </g>
    </g>
    <g id="ytick_26">
     <g id="line2d_32">
      <g>
       <use xlink:href="#m7025a34646" x="57.6" y="144.273836" style="stroke: #000000; stroke-width: 0.6"/>
      </g>
     </g>
    </g>
    <g id="ytick_27">
     <g id="line2d_33">
      <g>
       <use xlink:href="#m7025a34646" x="57.6" y="138.409973" style="stroke: #000000; stroke-width: 0.6"/>
      </g>
     </g>
    </g>
    <g id="ytick_28">
     <g id="line2d_34">
      <g>
       <use xlink:href="#m7025a34646" x="57.6" y="133.618848" style="stroke: #000000; stroke-width: 0.6"/>
      </g>
     </g>
    </g>
    <g id="ytick_29">
     <g id="line2d_35">
      <g>
       <use xlink:href="#m7025a34646" x="57.6" y="129.568009" style="stroke: #000000; stroke-width: 0.6"/>
      </g>
     </g>
    </g>
    <g id="ytick_30">
     <g id="line2d_36">
      <g>
       <use xlink:href="#m7025a34646" x="57.6" y="126.059014" style="stroke: #000000; stroke-width: 0.6"/>
      </g>
     </g>
    </g>
    <g id="ytick_31">
     <g id="line2d_37">
      <g>
       <use xlink:href="#m7025a34646" x="57.6" y="122.96386" style="stroke: #000000; stroke-width: 0.6"/>
      </g>
     </g>
    </g>
    <g id="ytick_32">
     <g id="line2d_38">
      <g>
       <use xlink:href="#m7025a34646" x="57.6" y="101.980329" style="stroke: #000000; stroke-width: 0.6"/>
      </g>
     </g>
    </g>
    <g id="ytick_33">
     <g id="line2d_39">
      <g>
       <use xlink:href="#m7025a34646" x="57.6" y="91.325341" style="stroke: #000000; stroke-width: 0.6"/>
      </g>
     </g>
    </g>
    <g id="ytick_34">
     <g id="line2d_40">
      <g>
       <use xlink:href="#m7025a34646" x="57.6" y="83.765507" style="stroke: #000000; stroke-width: 0.6"/>
      </g>
     </g>
    </g>
    <g id="ytick_35">
     <g id="line2d_41">
      <g>
       <use xlink:href="#m7025a34646" x="57.6" y="77.901644" style="stroke: #000000; stroke-width: 0.6"/>
      </g>
     </g>
    </g>
    <g id="ytick_36">
     <g id="line2d_42">
      <g>
       <use xlink:href="#m7025a34646" x="57.6" y="73.110519" style="stroke: #000000; stroke-width: 0.6"/>
      </g>
     </g>
    </g>
    <g id="ytick_37">
     <g id="line2d_43">
      <g>
       <use xlink:href="#m7025a34646" x="57.6" y="69.059681" style="stroke: #000000; stroke-width: 0.6"/>
      </g>
     </g>
    </g>
    <g id="ytick_38">
     <g id="line2d_44">
      <g>
       <use xlink:href="#m7025a34646" x="57.6" y="65.550685" style="stroke: #000000; stroke-width: 0.6"/>
      </g>
     </g>
    </g>
    <g id="ytick_39">
     <g id="line2d_45">
      <g>
       <use xlink:href="#m7025a34646" x="57.6" y="62.455531" style="stroke: #000000; stroke-width: 0.6"/>
      </g>
     </g>
    </g>
    <g id="ytick_40">
     <g id="line2d_46">
      <g>
       <use xlink:href="#m7025a34646" x="57.6" y="41.472" style="stroke: #000000; stroke-width: 0.6"/>
      </g>
     </g>
    </g>
    <g id="text_14">
     <!-- E field ^2 -->
     <g transform="translate(21.020312 199.025656) rotate(-90) scale(0.1 -0.1)">
      <defs>
       <path id="DejaVuSans-45" d="M 628 4666 
L 3578 4666 
L 3578 4134 
L 1259 4134 
L 1259 2753 
L 3481 2753 
L 3481 2222 
L 1259 2222 
L 1259 531 
L 3634 531 
L 3634 0 
L 628 0 
L 628 4666 
z
" transform="scale(0.015625)"/>
       <path id="DejaVuSans-20" transform="scale(0.015625)"/>
       <path id="DejaVuSans-66" d="M 2375 4863 
L 2375 4384 
L 1825 4384 
Q 1516 4384 1395 4259 
Q 1275 4134 1275 3809 
L 1275 3500 
L 2222 3500 
L 2222 3053 
L 1275 3053 
L 1275 0 
L 697 0 
L 697 3053 
L 147 3053 
L 147 3500 
L 697 3500 
L 697 3744 
Q 697 4328 969 4595 
Q 1241 4863 1831 4863 
L 2375 4863 
z
" transform="scale(0.015625)"/>
       <path id="DejaVuSans-69" d="M 603 3500 
L 1178 3500 
L 1178 0 
L 603 0 
L 603 3500 
z
M 603 4863 
L 1178 4863 
L 1178 4134 
L 603 4134 
L 603 4863 
z
" transform="scale(0.015625)"/>
       <path id="DejaVuSans-6c" d="M 603 4863 
L 1178 4863 
L 1178 0 
L 603 0 
L 603 4863 
z
" transform="scale(0.015625)"/>
       <path id="DejaVuSans-64" d="M 2906 2969 
L 2906 4863 
L 3481 4863 
L 3481 0 
L 2906 0 
L 2906 525 
Q 2725 213 2448 61 
Q 2172 -91 1784 -91 
Q 1150 -91 751 415 
Q 353 922 353 1747 
Q 353 2572 751 3078 
Q 1150 3584 1784 3584 
Q 2172 3584 2448 3432 
Q 2725 3281 2906 2969 
z
M 947 1747 
Q 947 1113 1208 752 
Q 1469 391 1925 391 
Q 2381 391 2643 752 
Q 2906 1113 2906 1747 
Q 2906 2381 2643 2742 
Q 2381 3103 1925 3103 
Q 1469 3103 1208 2742 
Q 947 2381 947 1747 
z
" transform="scale(0.015625)"/>
       <path id="DejaVuSans-5e" d="M 2988 4666 
L 4684 2925 
L 4056 2925 
L 2681 4159 
L 1306 2925 
L 678 2925 
L 2375 4666 
L 2988 4666 
z
" transform="scale(0.015625)"/>
      </defs>
      <use xlink:href="#DejaVuSans-45"/>
      <use xlink:href="#DejaVuSans-20" x="63.183594"/>
      <use xlink:href="#DejaVuSans-66" x="94.970703"/>
      <use xlink:href="#DejaVuSans-69" x="130.175781"/>
      <use xlink:href="#DejaVuSans-65" x="157.958984"/>
      <use xlink:href="#DejaVuSans-6c" x="219.482422"/>
      <use xlink:href="#DejaVuSans-64" x="247.265625"/>
      <use xlink:href="#DejaVuSans-20" x="310.742188"/>
      <use xlink:href="#DejaVuSans-5e" x="342.529297"/>
      <use xlink:href="#DejaVuSans-32" x="426.318359"/>
     </g>
    </g>
   </g>
   <g id="line2d_47">
    <path d="M 64.925015 346.6 
L 66.234847 311.761968 
L 67.626361 280.630039 
L 69.053555 253.541162 
L 70.516429 229.901984 
L 71.943624 210.292233 
L 73.335138 194.143425 
L 74.619613 181.709622 
L 75.797048 172.368772 
L 76.831764 165.800731 
L 77.75944 161.241932 
L 78.580077 158.271011 
L 79.257994 156.563565 
L 79.864552 155.585841 
L 80.399749 155.117572 
L 80.899267 154.962562 
L 81.505825 155.03038 
L 82.576221 155.200474 
L 82.968699 155.016013 
L 83.361177 154.556533 
L 83.789336 153.649629 
L 84.288854 151.975879 
L 84.895411 149.053934 
L 85.751728 143.665982 
L 87.963879 129.231731 
L 88.784516 125.520746 
L 89.426753 123.533621 
L 89.961951 122.495877 
L 90.425789 122.015068 
L 90.853947 121.862564 
L 91.353465 121.937267 
L 92.495221 122.2055 
L 92.852019 122.006042 
L 93.208818 121.541966 
L 93.636976 120.575234 
L 94.172174 118.732593 
L 94.957131 115.074634 
L 96.562724 107.436386 
L 97.204962 105.418068 
L 97.740159 104.391516 
L 98.168318 103.98532 
L 98.560796 103.888198 
L 99.024634 104.01061 
L 99.98799 104.336492 
L 100.344789 104.190764 
L 100.701587 103.774371 
L 101.129746 102.868239 
L 101.700623 101.025155 
L 103.912775 93.095309 
L 104.376613 92.387286 
L 104.769091 92.13456 
L 105.161569 92.142532 
L 105.768127 92.436975 
L 106.339005 92.633662 
L 106.695803 92.518395 
L 107.052602 92.125172 
L 107.48076 91.25273 
L 108.087318 89.404929 
L 109.514512 84.871857 
L 110.01403 84.035737 
L 110.406508 83.756443 
L 110.763307 83.752446 
L 111.262825 84.000014 
L 111.940742 84.313378 
L 112.297541 84.224378 
L 112.618659 83.90315 
L 113.046818 83.099221 
L 113.689055 81.301023 
L 114.723771 78.448201 
L 115.187609 77.738515 
L 115.580087 77.504884 
L 115.936886 77.546178 
L 116.507764 77.893041 
L 117.042962 78.138125 
L 117.36408 78.068645 
L 117.685199 77.766041 
L 118.113357 76.996955 
L 118.862634 75.049391 
L 119.611911 73.352687 
L 120.040069 72.854917 
L 120.396868 72.745709 
L 120.789346 72.885884 
L 121.859742 73.441762 
L 122.180861 73.281204 
L 122.537659 72.82075 
L 123.072857 71.690823 
L 124.071893 69.548497 
L 124.500051 69.136341 
L 124.85685 69.097826 
L 125.249328 69.301731 
L 126.141325 69.835647 
L 126.462443 69.73461 
L 126.819242 69.341615 
L 127.31876 68.397471 
L 128.282116 66.569351 
L 128.674595 66.273494 
L 128.995713 66.28127 
L 129.423872 66.54911 
L 130.173149 67.047034 
L 130.494267 66.994496 
L 130.815386 66.703013 
L 131.279224 65.936323 
L 132.24258 64.298515 
L 132.599379 64.085898 
L 132.920497 64.131696 
L 133.384336 64.47245 
L 134.026573 64.916879 
L 134.347692 64.881432 
L 134.66881 64.607759 
L 135.168328 63.823348 
L 135.953285 62.628021 
L 136.310084 62.440697 
L 136.631202 62.5106 
L 137.095041 62.882486 
L 137.701598 63.321301 
L 138.022717 63.294768 
L 138.343836 63.031424 
L 138.879033 62.234846 
L 139.521271 61.382285 
L 139.878069 61.239937 
L 140.199188 61.349222 
L 140.734386 61.830116 
L 141.233904 62.173491 
L 141.555023 62.139684 
L 141.911821 61.831094 
L 143.196296 60.418064 
L 143.517415 60.499176 
L 143.981253 60.906453 
L 144.58781 61.389339 
L 144.908929 61.37348 
L 145.265728 61.087684 
L 146.407483 59.917499 
L 146.728602 59.983152 
L 147.15676 60.353727 
L 147.834677 60.931539 
L 148.155796 60.917947 
L 148.512594 60.641051 
L 149.51163 59.694917 
L 149.832749 59.750261 
L 150.225228 60.084247 
L 150.974505 60.754967 
L 151.295623 60.737961 
L 151.652422 60.466796 
L 152.508738 59.718372 
L 152.829857 59.76095 
L 153.222335 60.092899 
L 154.007292 60.822719 
L 154.328411 60.805149 
L 154.720889 60.50929 
L 155.434487 59.954395 
L 155.755605 60.001276 
L 156.148084 60.344342 
L 156.933041 61.10474 
L 157.254159 61.096556 
L 157.646638 60.821851 
L 158.288875 60.383201 
L 158.609994 60.445807 
L 159.002472 60.809512 
L 159.787429 61.588534 
L 160.108548 61.579301 
L 160.536706 61.290777 
L 161.071904 60.989633 
L 161.393023 61.074256 
L 161.785501 61.463806 
L 162.534778 62.240657 
L 162.855897 62.251258 
L 163.284055 61.994753 
L 163.783573 61.760604 
L 164.104692 61.869011 
L 164.49717 62.285646 
L 165.210767 63.056 
L 165.531886 63.085566 
L 165.995724 62.837754 
L 166.423882 62.68401 
L 166.745001 62.813957 
L 167.173159 63.304627 
L 167.815397 64.019751 
L 168.136515 64.071338 
L 168.600353 63.858858 
L 169.028512 63.752698 
L 169.34963 63.925215 
L 169.813469 64.509376 
L 170.384346 65.139014 
L 170.705465 65.193228 
L 171.775861 65.067355 
L 172.168339 65.520715 
L 172.881936 66.384646 
L 173.203055 66.451118 
L 174.202091 66.380904 
L 174.594569 66.836137 
L 175.343846 67.767977 
L 175.664965 67.833712 
L 176.556961 67.799353 
L 176.91376 68.189105 
L 177.805756 69.298487 
L 178.162555 69.325793 
L 178.804792 69.301313 
L 179.125911 69.582163 
L 180.339026 70.961884 
L 181.266702 71.08679 
L 181.659181 71.608821 
L 182.372778 72.59221 
L 182.729576 72.700524 
L 183.407494 72.775958 
L 183.728612 73.116249 
L 184.799008 74.517395 
L 185.262846 74.547116 
L 185.619645 74.659011 
L 185.940763 75.010074 
L 187.046839 76.479026 
L 188.010195 76.864794 
L 188.509713 77.703869 
L 189.009231 78.412862 
L 189.36603 78.574766 
L 189.972587 78.774973 
L 190.329386 79.243239 
L 191.257062 80.653319 
L 191.68522 80.784435 
L 192.077699 80.977405 
L 192.434497 81.464504 
L 193.362173 82.925707 
L 193.826012 83.092566 
L 194.18281 83.319455 
L 194.539609 83.855031 
L 195.395925 85.279213 
L 195.824084 85.47612 
L 196.216562 85.730418 
L 196.573361 86.282834 
L 197.429677 87.765748 
L 197.893515 88.006596 
L 198.250314 88.286033 
L 198.642792 88.957124 
L 199.392069 90.325824 
L 199.820227 90.599031 
L 200.212706 90.904407 
L 200.569504 91.5113 
L 201.425821 93.098988 
L 202.460537 94.162683 
L 203.459573 96.014785 
L 204.20885 96.715937 
L 204.672688 97.739625 
L 205.243566 98.842926 
L 205.778763 99.289222 
L 206.135562 99.773876 
L 206.67076 101.038953 
L 207.170278 101.970192 
L 208.169314 103.262421 
L 209.09699 105.263076 
L 209.881947 106.236411 
L 211.237781 108.93605 
L 211.63026 109.492767 
L 212.094098 110.687907 
L 212.664976 112.019611 
L 213.699691 113.721312 
L 214.520328 115.777276 
L 215.340965 117.083237 
L 216.5184 119.921058 
L 216.946558 120.607249 
L 217.374717 121.840542 
L 218.016954 123.587715 
L 218.90895 125.292293 
L 219.872306 128.007269 
L 220.478864 129.139559 
L 221.014062 130.97147 
L 221.51358 132.316698 
L 222.227177 133.776617 
L 223.511652 137.514852 
L 223.86845 138.379129 
L 224.439328 140.571301 
L 224.903166 141.916755 
L 225.581083 143.528154 
L 226.829878 147.653743 
L 227.186677 148.650395 
L 228.720911 153.883278 
L 229.149069 155.735795 
L 229.755627 158.226561 
L 230.540583 160.648365 
L 231.539619 164.90353 
L 232.003457 166.378429 
L 232.538655 169.245745 
L 233.002493 171.208896 
L 233.644731 173.442663 
L 234.893526 179.355632 
L 235.250324 180.99249 
L 236.32072 186.730633 
L 236.713198 188.429316 
L 237.284076 192.451725 
L 237.747914 194.823885 
L 238.247432 197.090075 
L 238.78263 201.299728 
L 239.246468 204.060382 
L 239.781666 206.777596 
L 240.352544 211.874417 
L 240.780702 214.618936 
L 241.24454 217.20851 
L 241.672698 221.467769 
L 242.207896 226.156096 
L 242.814454 230.250416 
L 244.705486 251.175559 
L 245.169324 257.059607 
L 245.740202 262.69815 
L 246.16836 271.198004 
L 246.632198 279.234887 
L 247.167396 286.235735 
L 247.524195 296.051059 
L 248.166432 313.909072 
L 248.558911 322.009202 
L 248.84435 334.043492 
L 249.038465 346.6 
M 251.056876 346.6 
L 251.341939 338.987766 
L 252.233936 309.692607 
L 252.983213 300.226978 
L 253.554091 289.892175 
L 253.839529 288.283841 
L 254.089288 287.116191 
L 254.339047 284.509362 
L 254.981285 276.977564 
L 255.231044 276.273289 
L 255.445123 275.797738 
L 255.659202 274.535043 
L 256.479839 268.418675 
L 256.907997 267.919399 
L 257.122076 266.755067 
L 257.728634 263.073553 
L 257.907033 262.97281 
L 258.192472 263.034567 
L 258.335191 262.744141 
L 258.58495 261.522569 
L 259.013108 259.497914 
L 259.191508 259.393656 
L 259.655346 259.66053 
L 259.833745 259.157661 
L 260.404623 257.204689 
L 260.547342 257.290015 
L 261.01118 257.865656 
L 261.18958 257.510223 
L 261.724778 256.182242 
L 261.867497 256.342144 
L 262.367015 257.243698 
L 262.402695 257.222637 
L 262.581094 256.908344 
L 262.973572 256.157049 
L 263.116292 256.277123 
L 263.366051 256.966621 
L 263.68717 257.650915 
L 263.829889 257.587123 
L 264.293727 257.043328 
L 264.329407 257.074578 
L 264.507806 257.46639 
L 265.078684 259.021534 
L 265.257083 258.91287 
L 265.542522 258.744142 
L 265.685242 258.95614 
L 265.935001 259.865271 
L 266.327479 261.207349 
L 266.505878 261.294999 
L 266.826997 261.285633 
L 267.005396 261.680327 
L 267.362195 263.341996 
L 267.683313 264.377539 
L 267.933072 264.509163 
L 268.111472 264.665178 
L 268.289871 265.173381 
L 268.682349 267.28589 
L 269.003468 268.417274 
L 269.538666 269.410752 
L 269.895465 271.56387 
L 270.252263 273.267921 
L 270.858821 274.970669 
L 271.715137 279.666377 
L 271.964896 280.43592 
L 272.250335 282.33734 
L 272.821213 286.368382 
L 273.320731 288.468044 
L 273.748889 292.528006 
L 274.105688 294.925084 
L 274.533846 297.093371 
L 274.890644 300.957482 
L 275.318803 304.872118 
L 275.782641 307.818154 
L 276.175119 313.063678 
L 276.567598 317.226062 
L 276.995756 320.605069 
L 277.352554 326.424884 
L 277.780713 332.501333 
L 278.244551 337.419839 
L 278.637029 346.192776 
L 278.654177 346.6 
M 287.761779 346.6 
L 288.27059 343.332603 
L 288.37763 343.37871 
L 288.698749 343.897026 
L 288.734429 343.862655 
L 288.877148 343.406145 
L 289.376666 341.121334 
L 289.412346 341.134646 
L 289.555065 341.457144 
L 289.911864 342.362562 
L 290.018903 342.173667 
L 290.482741 340.805628 
L 290.518421 340.847259 
L 290.661141 341.295793 
L 291.089299 342.878398 
L 291.196339 342.772204 
L 291.553137 342.15029 
L 291.588817 342.193738 
L 291.731536 342.671004 
L 292.302414 345.26326 
L 292.516493 345.078189 
L 292.623533 345.090402 
L 292.766252 345.484016 
L 292.941364 346.6 
L 292.941364 346.6 
" clip-path="url(#pe56b241d77)" style="fill: none; stroke: #1f77b4; stroke-width: 1.5; stroke-linecap: square"/>
   </g>
   <g id="patch_3">
    <path d="M 57.6 307.584 
L 57.6 41.472 
" style="fill: none; stroke: #000000; stroke-width: 0.8; stroke-linejoin: miter; stroke-linecap: square"/>
   </g>
   <g id="patch_4">
    <path d="M 414.72 307.584 
L 414.72 41.472 
" style="fill: none; stroke: #000000; stroke-width: 0.8; stroke-linejoin: miter; stroke-linecap: square"/>
   </g>
   <g id="patch_5">
    <path d="M 57.6 307.584 
L 414.72 307.584 
" style="fill: none; stroke: #000000; stroke-width: 0.8; stroke-linejoin: miter; stroke-linecap: square"/>
   </g>
   <g id="patch_6">
    <path d="M 57.6 41.472 
L 414.72 41.472 
" style="fill: none; stroke: #000000; stroke-width: 0.8; stroke-linejoin: miter; stroke-linecap: square"/>
   </g>
   <g id="text_15">
    <!-- Detected E-field (Frequency domain) -->
    <g transform="translate(125.88 35.472) scale(0.12 -0.12)">
     <defs>
      <path id="DejaVuSans-44" d="M 1259 4147 
L 1259 519 
L 2022 519 
Q 2988 519 3436 956 
Q 3884 1394 3884 2338 
Q 3884 3275 3436 3711 
Q 2988 4147 2022 4147 
L 1259 4147 
z
M 628 4666 
L 1925 4666 
Q 3281 4666 3915 4102 
Q 4550 3538 4550 2338 
Q 4550 1131 3912 565 
Q 3275 0 1925 0 
L 628 0 
L 628 4666 
z
" transform="scale(0.015625)"/>
      <path id="DejaVuSans-74" d="M 1172 4494 
L 1172 3500 
L 2356 3500 
L 2356 3053 
L 1172 3053 
L 1172 1153 
Q 1172 725 1289 603 
Q 1406 481 1766 481 
L 2356 481 
L 2356 0 
L 1766 0 
Q 1100 0 847 248 
Q 594 497 594 1153 
L 594 3053 
L 172 3053 
L 172 3500 
L 594 3500 
L 594 4494 
L 1172 4494 
z
" transform="scale(0.015625)"/>
      <path id="DejaVuSans-63" d="M 3122 3366 
L 3122 2828 
Q 2878 2963 2633 3030 
Q 2388 3097 2138 3097 
Q 1578 3097 1268 2742 
Q 959 2388 959 1747 
Q 959 1106 1268 751 
Q 1578 397 2138 397 
Q 2388 397 2633 464 
Q 2878 531 3122 666 
L 3122 134 
Q 2881 22 2623 -34 
Q 2366 -91 2075 -91 
Q 1284 -91 818 406 
Q 353 903 353 1747 
Q 353 2603 823 3093 
Q 1294 3584 2113 3584 
Q 2378 3584 2631 3529 
Q 2884 3475 3122 3366 
z
" transform="scale(0.015625)"/>
      <path id="DejaVuSans-2d" d="M 313 2009 
L 1997 2009 
L 1997 1497 
L 313 1497 
L 313 2009 
z
" transform="scale(0.015625)"/>
      <path id="DejaVuSans-28" d="M 1984 4856 
Q 1566 4138 1362 3434 
Q 1159 2731 1159 2009 
Q 1159 1288 1364 580 
Q 1569 -128 1984 -844 
L 1484 -844 
Q 1016 -109 783 600 
Q 550 1309 550 2009 
Q 550 2706 781 3412 
Q 1013 4119 1484 4856 
L 1984 4856 
z
" transform="scale(0.015625)"/>
      <path id="DejaVuSans-75" d="M 544 1381 
L 544 3500 
L 1119 3500 
L 1119 1403 
Q 1119 906 1312 657 
Q 1506 409 1894 409 
Q 2359 409 2629 706 
Q 2900 1003 2900 1516 
L 2900 3500 
L 3475 3500 
L 3475 0 
L 2900 0 
L 2900 538 
Q 2691 219 2414 64 
Q 2138 -91 1772 -91 
Q 1169 -91 856 284 
Q 544 659 544 1381 
z
M 1991 3584 
L 1991 3584 
z
" transform="scale(0.015625)"/>
      <path id="DejaVuSans-6e" d="M 3513 2113 
L 3513 0 
L 2938 0 
L 2938 2094 
Q 2938 2591 2744 2837 
Q 2550 3084 2163 3084 
Q 1697 3084 1428 2787 
Q 1159 2491 1159 1978 
L 1159 0 
L 581 0 
L 581 3500 
L 1159 3500 
L 1159 2956 
Q 1366 3272 1645 3428 
Q 1925 3584 2291 3584 
Q 2894 3584 3203 3211 
Q 3513 2838 3513 2113 
z
" transform="scale(0.015625)"/>
      <path id="DejaVuSans-79" d="M 2059 -325 
Q 1816 -950 1584 -1140 
Q 1353 -1331 966 -1331 
L 506 -1331 
L 506 -850 
L 844 -850 
Q 1081 -850 1212 -737 
Q 1344 -625 1503 -206 
L 1606 56 
L 191 3500 
L 800 3500 
L 1894 763 
L 2988 3500 
L 3597 3500 
L 2059 -325 
z
" transform="scale(0.015625)"/>
      <path id="DejaVuSans-6f" d="M 1959 3097 
Q 1497 3097 1228 2736 
Q 959 2375 959 1747 
Q 959 1119 1226 758 
Q 1494 397 1959 397 
Q 2419 397 2687 759 
Q 2956 1122 2956 1747 
Q 2956 2369 2687 2733 
Q 2419 3097 1959 3097 
z
M 1959 3584 
Q 2709 3584 3137 3096 
Q 3566 2609 3566 1747 
Q 3566 888 3137 398 
Q 2709 -91 1959 -91 
Q 1206 -91 779 398 
Q 353 888 353 1747 
Q 353 2609 779 3096 
Q 1206 3584 1959 3584 
z
" transform="scale(0.015625)"/>
      <path id="DejaVuSans-6d" d="M 3328 2828 
Q 3544 3216 3844 3400 
Q 4144 3584 4550 3584 
Q 5097 3584 5394 3201 
Q 5691 2819 5691 2113 
L 5691 0 
L 5113 0 
L 5113 2094 
Q 5113 2597 4934 2840 
Q 4756 3084 4391 3084 
Q 3944 3084 3684 2787 
Q 3425 2491 3425 1978 
L 3425 0 
L 2847 0 
L 2847 2094 
Q 2847 2600 2669 2842 
Q 2491 3084 2119 3084 
Q 1678 3084 1418 2786 
Q 1159 2488 1159 1978 
L 1159 0 
L 581 0 
L 581 3500 
L 1159 3500 
L 1159 2956 
Q 1356 3278 1631 3431 
Q 1906 3584 2284 3584 
Q 2666 3584 2933 3390 
Q 3200 3197 3328 2828 
z
" transform="scale(0.015625)"/>
      <path id="DejaVuSans-61" d="M 2194 1759 
Q 1497 1759 1228 1600 
Q 959 1441 959 1056 
Q 959 750 1161 570 
Q 1363 391 1709 391 
Q 2188 391 2477 730 
Q 2766 1069 2766 1631 
L 2766 1759 
L 2194 1759 
z
M 3341 1997 
L 3341 0 
L 2766 0 
L 2766 531 
Q 2569 213 2275 61 
Q 1981 -91 1556 -91 
Q 1019 -91 701 211 
Q 384 513 384 1019 
Q 384 1609 779 1909 
Q 1175 2209 1959 2209 
L 2766 2209 
L 2766 2266 
Q 2766 2663 2505 2880 
Q 2244 3097 1772 3097 
Q 1472 3097 1187 3025 
Q 903 2953 641 2809 
L 641 3341 
Q 956 3463 1253 3523 
Q 1550 3584 1831 3584 
Q 2591 3584 2966 3190 
Q 3341 2797 3341 1997 
z
" transform="scale(0.015625)"/>
      <path id="DejaVuSans-29" d="M 513 4856 
L 1013 4856 
Q 1481 4119 1714 3412 
Q 1947 2706 1947 2009 
Q 1947 1309 1714 600 
Q 1481 -109 1013 -844 
L 513 -844 
Q 928 -128 1133 580 
Q 1338 1288 1338 2009 
Q 1338 2731 1133 3434 
Q 928 4138 513 4856 
z
" transform="scale(0.015625)"/>
     </defs>
     <use xlink:href="#DejaVuSans-44"/>
     <use xlink:href="#DejaVuSans-65" x="77.001953"/>
     <use xlink:href="#DejaVuSans-74" x="138.525391"/>
     <use xlink:href="#DejaVuSans-65" x="177.734375"/>
     <use xlink:href="#DejaVuSans-63" x="239.257812"/>
     <use xlink:href="#DejaVuSans-74" x="294.238281"/>
     <use xlink:href="#DejaVuSans-65" x="333.447266"/>
     <use xlink:href="#DejaVuSans-64" x="394.970703"/>
     <use xlink:href="#DejaVuSans-20" x="458.447266"/>
     <use xlink:href="#DejaVuSans-45" x="490.234375"/>
     <use xlink:href="#DejaVuSans-2d" x="553.417969"/>
     <use xlink:href="#DejaVuSans-66" x="589.501953"/>
     <use xlink:href="#DejaVuSans-69" x="624.707031"/>
     <use xlink:href="#DejaVuSans-65" x="652.490234"/>
     <use xlink:href="#DejaVuSans-6c" x="714.013672"/>
     <use xlink:href="#DejaVuSans-64" x="741.796875"/>
     <use xlink:href="#DejaVuSans-20" x="805.273438"/>
     <use xlink:href="#DejaVuSans-28" x="837.060547"/>
     <use xlink:href="#DejaVuSans-46" x="876.074219"/>
     <use xlink:href="#DejaVuSans-72" x="926.34375"/>
     <use xlink:href="#DejaVuSans-65" x="965.207031"/>
     <use xlink:href="#DejaVuSans-71" x="1026.730469"/>
     <use xlink:href="#DejaVuSans-75" x="1090.207031"/>
     <use xlink:href="#DejaVuSans-65" x="1153.585938"/>
     <use xlink:href="#DejaVuSans-6e" x="1215.109375"/>
     <use xlink:href="#DejaVuSans-63" x="1278.488281"/>
     <use xlink:href="#DejaVuSans-79" x="1333.46875"/>
     <use xlink:href="#DejaVuSans-20" x="1392.648438"/>
     <use xlink:href="#DejaVuSans-64" x="1424.435547"/>
     <use xlink:href="#DejaVuSans-6f" x="1487.912109"/>
     <use xlink:href="#DejaVuSans-6d" x="1549.09375"/>
     <use xlink:href="#DejaVuSans-61" x="1646.505859"/>
     <use xlink:href="#DejaVuSans-69" x="1707.785156"/>
     <use xlink:href="#DejaVuSans-6e" x="1735.568359"/>
     <use xlink:href="#DejaVuSans-29" x="1798.947266"/>
    </g>
   </g>
  </g>
 </g>
 <defs>
  <clipPath id="pe56b241d77">
   <rect x="57.6" y="41.472" width="357.12" height="266.112"/>
  </clipPath>
 </defs>
</svg>
